<mxfile host="Electron" modified="2024-03-13T04:18:39.952Z" agent="Mozilla/5.0 (Windows NT 10.0; Win64; x64) AppleWebKit/537.36 (KHTML, like Gecko) draw.io/21.6.1 Chrome/112.0.5615.204 Electron/24.6.1 Safari/537.36" etag="qXLfs08lyvnG0-zHPbap" version="21.6.1" type="device">
  <diagram name="페이지-1" id="bYY_zz5fh36rqCRrTe5M">
    <mxGraphModel dx="1434" dy="836" grid="1" gridSize="10" guides="1" tooltips="1" connect="1" arrows="1" fold="1" page="1" pageScale="1" pageWidth="827" pageHeight="1169" math="0" shadow="0">
      <root>
        <mxCell id="0" />
        <mxCell id="1" parent="0" />
        <mxCell id="4uIfpQyvWnWvoeIAnhdc-2" value="" style="shape=image;verticalLabelPosition=bottom;labelBackgroundColor=default;verticalAlign=top;aspect=fixed;imageAspect=0;image=data:image/png,iVBORw0KGgoAAAANSUhEUgAAATgAAAFbCAYAAABBH5KeAAAgAElEQVR4nOy9W5MkyXUm9h2PiMzKunR1dU9P90z39MxgBhiAAAiQIHjZXWG5a9qlUZQeaDKTmagHvejH6El/QDKjfoAelyvbC7gSL6B4ARdc4jaYwdwHM32r6q5bVmaE+9GD+3E/4RmRlVVZ3T3TyGPWXZmRER5+/fzcndwP/y3TV38fK1rRilb0LBF/8H0QM/PTrsiKVrSiFT0OMk+7Aita0YpW9LhoBXArWtGKnllaAdyKVrSiZ5ZWALeiFa3omaUVwK1oRSt6ZmkFcCta0YqeWVoB3IpWtKJnllYAt6IVreiZpRXArWhFK3pmaQVwK1rRip5ZWgHcila0omeWyvM++Lv/4r9tX5CIVsLsdcrukfvOGwXLfYXNK5TCz8uE3i5T6awekLrQbJ9dVBX0vdJntODLzlKnU8uinn4/Q9uZZ8uRtizSj12/5VOo63rfs3I9zvvspq76znt//H7G+dXqg6dFF7G25tOrr1zDH//xH5/5uXMH2xMRti/9i3TBMmA6JplloJBBAOCy+yxLgXMmb0YMwDpfTnxW/xjeQ6ocCu90nOqQl8ncDSBSTteEddn3vNycSLXdhUVQUn8/yPsZqd8cOu7p6D+j7pX2nVY/II3XbOX9b9alS0YJAX3ywFyAy3c/SmXpORIBQ91L4YXsUlkUnpW5Jv0QFyHUGHfMN6Cjrj3gWRjAOV9MmTXeOl+mzI+8/x37sdHEnOqU/yaFMPwYSBV1eaGqMzRTFs/OWyCNpQsP5P1dmDAPs3LjvOypg2qWX0s9dZRxEywx6flHe9/FeaDq3BwcAIyqL6UvFIBspvIOqGQiAmjUdwAw0nkENJwmV2l8WXXHSDP8pC5Db7VAKXywenIjTWDDvsx8QuoFYV1a5Jb9wBrMDjiy+hFmy40/hOcicIe6EPln2PnbKuPLlH4w5P85hPaGOjluc8el8fWWquV9DszndHS7yqL7HgoA12QAJ/3fOf49pOveRYVJi7dR/XFaWdKfjsM4qnIW4dLOsoZKk8BX5qtQPm9lY5X5YV3a1LpoalO9+trHYW4CYb6jewOr3WzDitlLqSwBuOz3smiv39qm+kgbdZ2ErEvgV5r2Ji91qEO5HNanUeVaxiN8d7ZdC9BSAIdG9RBzGLCODpb7mNPOJiSdycZ3ngySdd1l6fc1SCAhr7bqXcSAC2WUoVOlLk0+ugIYHZPOOV9OGcrvm5fcVS7Ujsd+Ykn7GIl7k4nTcLscwx5EnN46ZZcPE4GoDW6t9qn+aNiXl0/A2MbwmbIx0g1s0H6PcYozpjZH10uhvWXRf4u1rdsXL4sVoCNwdwibnWpTDppVWPFdG2ofVSZtNl0iqqYZgOM2J5xTbX39K9PfPmCx+nb1H2flGAJKWRtutr8AwDZJeorlZuX01UnqIONaBRa9tul369I8Lc1sueegJQEuq4AhP6FmdkdOi1p2VkMJ8ADFQWGWGyuovdtxmCwGACv2mJAmFnP4TYEBqP1sF0XWndpcHTFgpdyO+2UyaNE5a4Z/N5K4wqFeZNQGEf5JO1y4p4uDEfGzcx/oAHDh+rpmvEN7515UVyfin2PAkge800j6FepvTqISaNWR0/uAJB4KeEjlZW4JNyGbnxa966xPZTw0tzGPKHCycczmtFGL2jI3mOe/R2/UVt0b+yWbh1qlQ/qlCBuhSaKnMd0AJ/NSmJB8CuSbl5SrGx3XSyby53WSNZszBBoTLoCWA7i8ImRmOQkgLBiTBk10YE51stqgZgowRftdrMqQ713AoxeqnojW+TK7SMqSMkTM0fqUrj4whQLPjoXZ+qy+WwW2XQMrINgnovUBVue9pywqETHOAnC25/Oi1LdLFx3cYGPTWABp9wc8ZwkoES6AT+ESwOnyGpvNl/A3X/h9VCgxsYs4vEPqFKWSM5LN/uYiqq4P4Osuag2h2gIVUn9VmAUSVht03xwpua1iaUK5Qpp50VKCAGaLg0YPpxcAnS4G5C6Wg6NwjdHWNRRK9NIcjh6kCHSZyCW6pZziTmPaO3gcHMaMKFyosuS7AEhhEgD0rW2pUxH0LfPqJeUx2u0V8NAbgf5OofyZRcbtjaFrEmo9XF85zEls66o7MMuVXJC40KIo1vYBhAHIpvsid5FvFhmZwN3YIHLLwmUGEHSr8t58Q5xXbk7CPS6ytwjnfhHUAmD1cq1ndZhtgx6/rrGM5Z7GVc4pt7OOoZ6aowXS2u963aKbzAK0HMDlu5dVldaAQ6pjZABEBxKLkPuRRM28nJn3I03UXETV79L10OUV8h5WHR7QQb8uipZqoXUN2Ey9OIFNrEPWPqC9azJ8PTtFUtWHfb8vUs5p1qgu/dFFuwBw/K+bnAJq6XOc8gyQximOs36ePeB1Lax5Cv8uOiu3epH911kWz/89Xxedj59xXpyprA6sOOu7zkHLAVxOmqPp+wzM7sSaZkQ4Nyui6nIcEN0Q8iK7ymo9jzZH1yo3B6855XQ939IZKp1Q1+Dn5fWJMvP67SzlnJUuUCeyMGmgPgv16Uj7vq/omaaLBbiLILEKyg5emKTvEBKjg4hhjFl/ICkrV/5rgCiD+4fj9A4RA6ui/V1bPkWM1mx0qQwFUi+piyi3G25biaUquRGly6iSt7Frhyt6xPknSVpZranLcttH2ti0zE4uep/HwYH2tXNFp1NhutfQPDqPfhefRYCTSSm6k4KC3iQsEEPetUJM2S2FKyVLEdBWSJN6zl8ABgbRPUUAqgmWoWGRdBJl8KWqAydWFUnUlLLK4KUo9RIXAoZ/L8NbGAUspSzAlxcV5uFZrUB3CuAYXgHboYZpOSP3uXlosQ/SBpq/UPOyZp5XFHWZaCuVRW+ZlztXFMesceksVJB3r7Butpz8vV2O5dqSKJ+lv0q1IcpzWiWyAr7UV6J3lr+FAQZhDS3qljM9XxU+ewAnJBavMvtbmdRJwg2Jkh7wgCVE8b+0YwgnQfDAwgCMVb8HRfSgBEqXHA5N+M0pgBPAAdICEcfS3BlT3CiKrCzAD7Z4p0u9NDhE66ZwdpQWv54f0bBguzkmbeWNLiHk+1p8kLqoyPpUGy+MbEAZt8pI/dZFFH6fN8GtA6y2fHZY6OdRZYBR6TnnlsXVzVpRC9mgwkWZKwaJ45C/Mr6icwZ8O2oLTF27nF9mkrlVUprT4ug7CH5wiw7owfmq8NkFOA1e0X+JVBSE+o0Uh3cWGgQurVBlaQ5MT2YggZCAbN/ilUUvYqaIxqWZLUs+67K6AE5EX+2gKu/QwCSRF51VoxQCJeVLmI0WuXKOrVTfhWvW42OQOLZClavrMRP+Fdo8yABOjAQIbY0WT8UpzSPhFBge3EaVB8ppBuL52ioCeybuQDJWoq6oFMhVxnOGul5Tm/5Zlz632vaMgp5wZkJxXoS5Miz838L4viwDBwe0fenEV1X8GIHZuXhG+uwBXBQDkBZIXCgCNrKI0P4eiedcUx0nQCVlaf8dWZBF2IEc0m+VwQwHp0nKargd8gWEsniWw5KREM4mBzjNMWlzfe6w6lzyKcy7goDoGJ2Dc0H+t+j3p+umOTgFXK2wNEoAALT7lpA81/tIfhIPf0bgcl0Curk6r2wcGR7c1quwiVlgYmc5zZwK+PcPCg9iBfnPwwIoDEgW5yAHOAeeWmDSeGArGsVdB9F1xj0n1xeg4/vs13PRGZiluWUAs8srhmvJmqG0YQwLPw6Fv4eGhZeOBOAam6I0GhX6JePdGxe9GH22AC4iv0lAVyiuRxZVXFiKg2MGFQQWbqcwMRYbALhhUEngABRUhl3ZKN0XIYWr6Li8mSBvWUwG3bNGlTUT35eV1fesHlgHcGP9IrEBhKKnO9qcQYmMo3OpDgIQfZyneNrnABfFesW9cX4PJYOQCf0r/T9PVI3NpqRqsAw4B54CqJFEaGO641JFv+q/JI5iWIJGHuBYynfO6z/zjUGTgFhl/DvXStCo9NyHgJsWxQGgtqCpBY4NMLH+sgB1EzYdzQkLZ5o7DBdm1t/sInzCtFqBkPr0LCTrslFzSqQqzb1HdQ0BayWwVoCqIvXfMPwV3W8rCiOUl4e2nZOePsBpRa4o4LXYlIt1pWnpwEiLJIUBOQY7B5JFKvPEcFsUrIqkD+uiaLFcroMvpBwX6m4d0ISFSpqjcwnoSkoWJ2H1W9lb0G5z7L+wY5Jp9z+g+j9ws3lUh4j3MlbyWYsppwGcCTuaGAQsg0BgE7iuGoiJGboArsr6tzQelIIOjiioZ2P/hcmRu93I4q8MMCyBkkDD0nOCw8B5rJVpgYt4Xltg3ASwbZK+07LnHgWz5H4Rl3NrbGFCHGoGhkKyOVL2nA7f6gqzylUq+XfdDbpMXU5LrUHpr4xvHHP1jkHhN5lhAVRlAre4SWQVJbQ9GD7/AIe2uKYXo3AE0shgeSHpyHxShwEgZ2Z2RgotpWisCGzxkh34RMgxyFi/OI0Dg9FiT8UiWwfjggQ0C6sPIHK7uZgkO69wGXrC5aLooEjckjYOBO6NiqBv0ZNdRFXZlE4jEVEDAFARuG4HD3DM7cUvVc7HsfKcV9TBgYOEbtsW3lxPJgusIA+Qg8B5rFXAegkaBLCTuSfRI1MLLsI4lAbE7KfetPHjoxesZc+J99E8Xz6x1EbDVfhNA6VINTnlahH9vaXnRCqza2MqVNul7/VGpsaCBkFEXSsj90aDIKYOO8Il+7KlnJOePsAxVDwnIQYWa9GuUTtHafyEJ5odQ83qCpvfJwnKZJP3y86jJ4weXK3Ml4Uv7iUzIWuKXZd3aX+6s5CIONb5duvA6+imwG2/OqHwXMt1o6sf+iIjrGsDRwx36yiDGEwMklhIIO3wOoIEmN3UWu/UAId2v3e1cR6pvvOWU3d6WTIfTNGO67QOaBhcOC+KChclY9C47J/ignT6ptgvcxYuM1ppqHJOS7hrq+YDhb4iTpLJWfsrJw16Up95/SV1l7kuJNlyCgIaAhsDMq5bv0ZQ9eY0BuekzwDA5SDk2otC64yEZXZKxDg3UVo8OhhYT0KTLW4ZbFGoNhawRQqqjkVT2x0lBiGbtu5GOHQH9Gc3AdBYsCx82bUFxEUZq3Pp6VCyGCqHHitexzXtUJz7eoHSO1vzzqVmiWpS/s7MTwIq7l4wEeD85GZpcyucLi+OuiMWGgvUJpWlN4iueFRNBYMb56cZkRczQ5wrM4NcmfqJ2XOCE+u56Nq250u8T3FWnPcNJR2UdkXSAKdVBwTPRQugAl5tocU6p6ShzlBH7v6sr8nlzjRinOZvnGvZvczBUCRtJ4BsVwf00xKGhqcPcJo0W2qdZ+MJoXPk9yKKB9ycv+EAUt+y+s7Zb8juAcIAhWtkuxeJPB8jKdjfq0VnEeNqm0TmnJj9RHbCFQRg04posTIKaY5SdtizECkLqIyDkLihuJy7A1AwUDgvDJZ+Y6KKu8WlKbrbLOBmg1VS6i4+cI1qd6rw7AbBAE5sVKZz7ZL7ht4UugbPUQQRDs7aJBthXQLDUJ6MbR3KFQvqtAlg2sXZC/iEdkrqIkOhD8krCyWZK5D0nlUBEtHYse+f6JrCaXxEDG6JoNkmLO3R/TWPrJtdE6I3raidy1HHQEfOGS1pgafkfQYXWcLPDMABqSPACdgii0rdu/VnmSj8pxW3+c7ueFYXpEkmhnBpWnTQHJ2QfNehW9qKOM+HT57Xu3CunBbQ1Ap6Ig9wItKF93BN/X55us16I5CIEgEJRgJ0nY0mWoi5IzchwLUFJmHxTW0qU3OkUm5LZGa1YD1Xwo5B0u/WzSZqrB0wabwVX4C5tSkGEG5tfOGacHaSDDUa1ggkWZLF+79KoiDVFnwcDBtN0tH6Z73eMfladlhNz7qM8vtjYkwkbjGbK+zYW5idcHIuWWH75nyuLlpCD/fZAzggTUDr4EHNJZGU4C1qj4v6OLiu37o47AW57nORUwtS3iMKeE1RzObUlwTEuFtZVH3UAi60vfJld8499XU4Xe64vKgVVUekaF2cbp+kyBIVg8z9vD7GpQVknecWRBfHWXlAmwNkIKpKDEeA9aKp51JjzjmHCMg8tUnvJ30X6wNEH0QgLeIWhR+1FVqMNGKFHChjzdQGoYOBCXxdGyTVSsv9hGZ1p8uSqD8aAW8ZD3kn/BhNXdr8EDaa3C9SS08yf2SsnikOTpMsZueSM6DLV/MFktY35YYCIO3KuZFBSHbzx2WZFYnKubYPVR9H25UFGQgTf8F+7DKi5GnLAb945ZpFe3FPZcGe9jI1ywUocj1ZLlrOS5hZ2wTGAm59ercODhDiU2fZi9yNA5cuAZDmNjUXnlufhWMWC+cCROL1b+Dn/rDwbiqjChQcz/mkAawDWfZ+fnXQbYmPm1h1H6fAI/ORzKxBgClyeaznhGM/JzS+ReMhgqeDlwLYMuhzbWSYR9psHXf2x/w+DXAu61idIlu4Dc6ef9wTClA7c3h/n8Nqfj2v66LvWqRBEgXRR4twcV3v7iwyR7ye+lBYYNpA01vFrBxCmgvaKVb7fsnmIk7DdTBEDMrEhcR/qk6aDHUDf2lCeJhJfmPrFWhjkN5dBlCb2sBYBw5fNud8/mq6SDWPrBtiAAJ08KAnm4wmnTdSfOHEz1OpTzise14iXOuzDXCannQaoKif6SC96E/LDfc46UnoIhdty2kbz3SOIeWxkFoUub5wUZI06MahFfQPdAOchB0xPMdlCShK5eHfUcvcdUg+lgrcAvdG6yH0LLybDICTBnwsGVOM5zRd4OK6LJ+A0nNfEAkDIgYGG4COQt/kfS9uNYwYstW7ZfWdebEgfX4AbkWfH8q983MS0Dyv8lhEPxErRYwWZTxwdj1on1qhjyPXRg/tHzmPKBgN8vdqgIsREnS6qsN540eLtP5KytP9BCQl/0VtxAQPqLrOErqnjxQU0ifTnRaGxvG/c9FyAKfDQ+S7ntT5RM8tiFL5RVlQKSt/zy8rST90heYAsyBznj4/D8Vkn+EdudVYh5Kdh6KlVs2rPLwM4fVEbf1gH/WBiejsOuuqxCv9sw5Tk2IlrDCPMtDJH4FkVNDOstqZWEQ+x95KPJP6X/cRfNu1H52US5hvaFqEdKKKUkWwSPlR94hZg8qiY0/xv3PRcgA3E0dHbXSWbLtNODxEDneWgG6ZPIvu5AzA2lTOLzsZr2zuDc2RvgcQfbDO2ufnoeiHFepVK+U7kIBpGWNMKwytpyyZZ0C/uDbveSGF1Z2/5f0vlk4RM4lSiGDMvBFI5w/UVtM8f51x3qjA7BMZOOdjX4PllsWBWf5Kmc6m9zHS93lOzouSqBw0wA0KxLN+W9zlY9xQ59ByAFeZNsDJhNLhHQDiqfCyw4pPVqEWm7gwaG6k65BlcZA9y+CI75fu8DzLx0WSsOycDzJS+89SltRd+k+DVIm0yxU0O3HFn0jEN3EdOS/ASR1iSFu4GEPRpI0K4ITD0OKKFicXJTnoGmGeFadMAp2+6TQd3Ln7I7RZxDGJWMmHWHOZ2g9R8stJXQUcRcwMIWIxG7Rjn4CA2UdOSPRE7h/pX5rVQdqZbXJ6DE8jnbVlYNLnIoDzoPRZe2zQv81EmLjZtaudnxc6OHxxWhLgFlUan1JpOQNTFJXCGeYe+mCAw644F5eizBy+yoJWnSsD3Wdpksv5YFDHtfz+yKF2DGZUKp8CciJ6GiCmCSpUueKprln9yiTLrryXybc7PsvoPd1+ERLORILt9TGP+ixTcm0wl40JSAB3Vg6u5sgRzXBwXWTIL0hjkj+bHr9crFyUmNuiEyFZOmub5qbCgijBSL3EeijZbovwVwLQKYCWBVIWGbR9QCWCorbtsD1NWo0BeN80pgSYUh8DxDNDgFmuVb5LHjdCe/0L9yZ58xz7xAba06ArUQJCv3CoV+SG1Xg9NRF17YJsFFL/QrH2IuLUwSNbbhROYJ4OziKBA+BBMbLpoddK8h3at0hEvM797vJU1VIv4WbFD44QHF+z50kWXH/1o+d+SW1AFH0NF2id76DrJu2MnvaUfgtYB0do5SY7Cwm4aC69pLQAY6LQoj2uQPouscRnrYOMI8E/O88NQl4om40Jm6Uev7Jog9CilM+vMmTICJlUWJ+vQfA+bUIt1xFKYzYwvoz1gY+IyDnOrtCvGGPLyQ0mp0LE1NDAmlP/xTrJfHTtea83UDFM6AwggzbAUUyD5DcfIviQLFlDDRJjkZNwlzIvHCW3kafm6CsAF4Nsz1+RFhny4ockYIznLQAxVYxweyzvVxMOnEQleS6KtUr/o8XrnKJok12vCs+d9AEcIaXS6ROLBLj6SB4TvUzc+U2amJG7U79pZbfOJmFUGeILtgzA5WqIkpKOa5HJKON1Vg5OxlE2wUVEKq3EF4dxEW37fNAAQMKo+hIU6L6XHGejKqlfApdNAh4CaFE9o8TSklL6oLXSly8bPNAGL5nvAMDK0NBVT+1cPGPNpPZ9kcML/WspWWTlnkptoCJOS2kh95vXwYX1CfZLpUGoR2iAGD46+z7UxbD6fH6xdTmAi2mHO7iJi6A6iD36RB1GmrA6b5SII3JTF8DJZ0ABXP5SWagiasl1al/n7BmtF4wKZe4exFy0JLRFAs7u05MscgNtp8hWinDAT6auk4iIEVPqLEJ5nQQsJaNvrBOn7/nzedtEb7gIwOn1KHqjqPPidtldFPs6+IlpMXpeW4NLB3e5MXB7vnvuLeSeC5wLJgA7m0RRyW0IhPoLuPnrVJkElI5BEwuWjURCzYAAaqpOoq7QfSVtKSgxBMKZdekt9RyLG0K2pgukyArAZ+jVHNwMwAVOuXRBakDaGBlZLsd8klFrLs241pyBPtt+cCV5ljq/BigLFacdMXIvaE96UfrqjpKFWeQHg0Dp7JB2NxmPLtFK2HcNTAB6LXcaiHLfJCHR8+gFop+7YGVsLxWqfroPo8uD1KdjEkZuIGtbntpanifMcr3CxQeMahknxMerD6yNt16yC1zDKfYkLUpyTN9OizkJd9WBAbYhu3TXKWR6foj+LHA+HHPYsc9DJ1KM47aoqnVcuREtj7S5AIMaLbox6mcMBSsrAKfUFVI/kX7iUaBhrERKe2rB9q3YRva7us7flt+n3UoW5fZy1juy+Ei6IBHDtEJbW2O1klUod0RstQOpfs4k8bvP6VMGQY70k2cJaCnbRP+nq6Kty5rjFNZc6p3XP+8+h25AzftPZyGJ5Wbt6hsb4XgD5nZ64GsyoXwRSfJy1Xfx6I/uDmKgYVWOiFwt5Tgl0Mj6KEYJNO5sIX6c/Y3XOdWJg6gvVm19OI7+xwjjEjYIyboRLkmdmSiBh2Q/kawkOueb+MMJ6fHVnyUpgl6j8+KWpU3SLt1GXb5+XtdDx0XrRJwMxBTwst5kDkrsrkg/xqaNk9mLyaKnPCctB3DSQBnYyu82M4HV01DxSlhuXrzSMzm1EDgoM1uGPsFKe4jXDjGnlhSj2WvAm99P86ruO6hEBshl55Hm3N48UT5vy1mVq327c1+bZKKK2KAnrhZ38+fF+HEWCn1Cuo2EWStcsL5h2oCn3NZD9VGYa/EQoS6S/HmywfRQa/xlQ9Pcm3AVQABMTgd8T2ziwCRRpwSah80gvlkU+NL3IeU8g0FN6Q8YOmn8P6vKAhCD+0+jWE+lhwW6n42eC4GrjNl8QhtVn0ROUo7cDNdpCA9IDXkQ16mpdNjZxiBtXpXadXQdhUp8BgDOqckjHFCeHE/8sPSurBekcF+5HxzQzTEJB6fFFR0GUyLpaaJ+LhPxcoBjrxCd2fWEexMfrJwhsmricTYQ+Y7XdcgGkMQJIbHwqrqdK5ZSSOftylOy58H0kgtOuMF5IUzzADtrK+XcslayS33EBYbC68mFhJNZ27MsLiTZNrrclhy3nWbzMeldPOwTrui+547nCWDjNz4Spb8koBTRPPRTfMoSqFTrRsDFBv1a44Cj2ltTJY9dvma62tLdjNRnXb/JHJcumpdlRo9z9plrhJxvrHRtaq6FZAG4NPTJQ2sHrqyqF3fPo1xSOCMtB3CSJVUact5MHyaIY9oPLhfj5C9lzwQ9D+nFIht1zLqQcXREyUVAi40igsiup/VODXU7HjcIbHzGzsuNrL/3iJuSqyuKqwbxBCl5tFe04FRmF3epJzFoZnHOPCMiRhTROfW5iLOOkggj5fSJ3vI5hvAosSNuPEjWWBsUqBKC1OXbpdsgZUgyyHwtNNzu7xnH056FJe2TDVwqEY40jO1qGCDruRcB/ZgXjv04WtVnoavYEciEssTPsXaJMxrXyYnX9gBclyN5/ntsJzrGGsmq3slJoK32adSY1pS0L9a3jQv2G5McvSkMDZEfm/UKtDXw10LmY0wCaDhGOsITrb5ahpYDuBNJt7AEdwEgaZADlaaluuo8ASuIfxQXCqGV6C9ay1RPyYHNshDKIqW4EV2NkOUgWiOU5YLHeFZz5avX2vyY/W4oE6QVlE2zIJe3b1GKPl2mPwW31CfX1/QBomWAQh/FRUU+NTUDLd/AaMU2veIkldQ2DsWTtowy9ggHF8qbmoVEMSoDMMaIgKwPjZ3PAegDU3LS0klMna4ATpJeThioTPBd4zbH1ajytHN0YcAInKgJXGtlgZMAFqKDY1Ve3h+nLTvN/VZFPxc3L+xRJB/L8IlnVdlaJRBS2LNjoFHcdfSLJJ8NZWPg61QFy3EV1lRtwXqcRP/3VA9+zg9b6SK9Q8queBrLGUN5qD1h5THh2nTOLK1wFqOCtqxClRfE0+iYSIgiMutdWyu3C5fKbvWBS+0SsUMqG0VAtI0guRiu2hRJns25N6mfNtgIKGkQXYaMSYs49j8nnVj+Cpb/KNVLt0MMQwJmZZE8+Mm/g4LDKwsnExYWhee5L9FpeD6GCWV6OAZSv/epQHIrr+ZOpb/jP6T26XhL3e/a4tkFKjZsmABiGiYi7xSrAURnJI71QlusncfBuaxOjdqsDLU5Ucrul3ETlUVuvZcfJtoAACAASURBVNXSQPQzZO+GUoS1Y8hvHiaM9bAEtgYgEDCuwaZO88WEsbZZfy6ZPHY5gOvyv8lJcmQBaUBOM/vKoS7CncUMIkD0IRIAEwUmMAuIeSoa4d7kfM8OpTSJsUHaRlDAiVkAEQBiAlmXPNDlOQ1w86jLwijcTM55ibVWW/UiwM1/zUJEnNQNQWL073aIUQm9zxJ0JVo+TJFTo/b5AqKjKY0fZuG+pQ8ZmBu1IAr7oTI0RBDKxG3ZtDTp1OdA0rsJmEfrYNa5LYtiz2bfyR3p51wCrLxedeCYdBEyH2Q99Olm88uNqj8xQEbpY5HALBK1dbZ5W2SOEAAuEFUXIvYGYGIwiMhvPIPCJ+yMUk0XfqgokCUNDMBFuonMo9bpPflO0EExvjHsgMZ48UgCmc9LCvyozxIYzdRAPPbuSZBOdd43cbVSWce5xrMBLqouitOJ+fMXJKnXoophynKkdRgt2C3ImRKS3rVv4YvBKweTGfFPlbGIMv+8m4vGxbzLHHzfd9Wtz4l8kfrk80sbBOK73fxNRW8kOoMvO7QiFZps7HQUTEmAM+1DxC+YlswHhyiZAOhW2GqWWiusta+a5oyIUoHRJ0dNMBtYYGLP3stAEgCEDm7VUdVHdEWaG3Th4fgZyR1A3EJECdx0HBEYz9p0swtB+9XldcpFAv2s9Iful8gpxkJ8H3D+eQ7JwtYcsZ58kVtGGqcFcSqSFMeeq2UXPPtl3KSdtQv1BsAmAbRT/Rn7BbPWXj3XBNBq53VuegHnGS36XEW6AFTeS9IRczp40X6amevZb11ldpV92vsyTrrXH7LrvfFaT3tn1rgsJrTnrThXB6mIpja6vmDSpGQBsrZq2wa7Dq+Fs9LyCS/j4MODS54qxgVFvTH+s7CeOoWP3m1yC6pQoyxMopcx4WBehGtl1htNJqJO4MUiZvAEfhcSMaDIdkrrvIWHyOvfajEyZO+QfFy1UghrErDUpBW3urwZfY3iInJRVcJwmJNLRocRpEWiB3NIQed6J5ffNEd1XhFBdDc2iSnRGi0GndAeJgopvsNcUNkxOLoeZQAu80E4iMYC447QqkmzmN9YF2lxMBfXclrU295xEvXEQfk00mPAvk9b6o/O+uhdCvOPpTwrndVn07F///EU2D/xyQEmTTxPwltVg0tMDnB5qvizVnWpp3PKM5sCyk8NSpFOWWiV0j90WRfF70ncNuSUbIPkh1ZQy3oDIFlYNdUWaILupyraXKVeCAy/aAKjIQpjdux9ugh+MYkiWXNfpx2oG728M3DTE+e8i3IeIMW+D99FrIi/U1tHlZclbetazA5t7lnCkYLOla0DNdRut9ZPSs4+RjpAWTuLRlck9f7GgQsCNU452prERRjKjgtckh3IqSv/3mkkLjPy+cykxu8sVKoNXNbiWfwrhRGZATecDtLOc2p8VAP7Ez9uk6ZtSBHfQe2zKPVcgi4O4PoGq885kLLP8/ooF/0kVZDOjSWWTimPPfjFI8cEqAjJNUTvajPAxDPvZRFZxfon3/Pd8VRw6hKHsjbOiFWK8r7SYudpui8BEflMHb/p8LH8WYfuBZaL4kQJ8KR+0ZrOswYYvVMHbjkae0RHFC114T7ZXOQMVMeeK5e+LE0CSg1EDug92Bqq7C6RMY+fBZL6YBHKyzgraYmpVYdTgFbrNqMVFkkKkCL7yjCEzvTn+ZzL28dBPJ00wLEBHk38OhMXGFk74o1QZ2upK3noGejiAE6cVS96lxTS/koNe6NDK7QGCfBkd2pMCi6IrgdAdDzMPZOFUyAoi5FqTwA0tmpCiL8SQrm5qHsW6npOFmu+UWiAkL4/TZyM/n49YyTl5Ac3C5Vzns0pj1QBvJ8TAbAMGqh+ygHOchBXlMjdF7bVOK+qMOGdTgAOaSHNBPBn/dwR1dIb0pRzFFKn09QDj4M0aC3CoUocqIyhRASJM3QYm7nPCxUGYNstruq5I+JpaQGqwWacmAuGYg44SU2tNj5NgMvjLqH0QTMkC9Vkug1K37WoKqFRhCSWWMURzBuMUix5LpVX2/Zp2l06CUYCuC6MamziYoQkyFrqlXOCy5LUqVVkBnZ6our+z8VJAfc+tj+GwPXNqDDGZyVRLUwQHX5bp0Hl3CIHUUW4KOHgtEe/zIewobC4gNigdpB4T7HEn1Zt7dDc1T1GKnoGWjQTybzncj/EPlq4avNu7Bjf6Meo62dmxUdCPxhZBk8bP61EJST611yKyjlhsk8T4Dre3NdIpjDpKFmnxKctj48EELO+yo5jsp0HmGVnhaxJgGnUvbYjlGemnui/R9KG5zo2MVTMBKhTmjN5mfPe01mvnsktm4AO85JyhRvLaZ7OZJ74xAy/055x0caF6eB9psLn3jogGaG06C59acN8kL/6YB3Rb+o0Sos4QGsfsS5XpHxexz6n9mIv1HhovZcmXZWW1TF8Lk1KfS7uGC7Ik7IB581xGTD3NZcyRsIgrRMCYgy0PF+oNorvpU69rjtEbwKRWQhjMgntmejQDrSNCrq4C+KGP9v54GxQnElOeiHRn/SJS9YmB08NOqftplo53fk7fOiNDtyvgyhVFrP1EgDvKle4jyV2pydOMUZ3idlnm/m/ixgoCRtkMwRCrKoYnLrmACd9m+NkVV9WbSLWThWORnKGQlWk8LOqAI0qfxhLjHXuKE9HZUydt8CLlV42bfkuklHtPLcjvqCtnHA8O2d7RVZqzzvRqzF82yqglUFY5rk8k+dnFGL2a0PO+5DvRfjNop2oUz8XqtUKCNDqi6fGweUuBkAYvE4WDpHNjla0cD1u8OpzvC47G6d7hIvKLZFCeueXnde5dlxgF50GcNJOq9oYvdwDdye58wlo+QZJF+h39fbVKUTOly0svZRr2Yvlukw9RsJZLKoQb70TSe/Xp+qbEaUDaY5Rv7rLbxLwxgndZ3HsXfJ5Sw533fVg+H6KnAqleZE/MrPxUaqzcGJyIIycObBegS4NgctrwPaa/7wzglmvQeUYKKcISmmoPCJgGPi8iQSgADcluBmA7RA4bMD7Ex9ovz8BjqYJACcN6Kj2ICccrsx/CW/TXGDugtQ15tL3ApZafZQ7Covqg2zqm7zfmIPkJeMa5kMcQ7WGjSojzg+XypH6L8kELAlwmr008AAGzOUvZ6Ia8kGY8ywj6OaK1AFd+q5CsfWS8Td/9zyaq+sw3W2UejmnuMesffkz9pT29lciWRI5/od4SIe2ELbGKDx3Xh2h5D7r2wD6Igh04k4hGfu8rHlzwKp2LkIObXHKUBs8Y7lZeSJyCqgPStCoBLaGPuXPsABdWQe9uAXc3ga9sA66vg56aQPF4C5KuouKjgBMQGBQMGZ5qCsBVGAYOJSwvA6LHTh+DvyQwXfG4N0T8J0x8GAMHEyAg6k/A3Vv7H3JpJ9EKpmEzBzaZSnHnjrTdRmE81VDtmBDXiMUOWPFxenCRGcOeEkpJ9nktBN2Ttb5dUSBWZDwvy4vBjPblrPQxYmo4jRKhJlA7dyidh4OQnYUVuX1FaMXSV80wXlJHFiF9ByYSR+9hLFBUqCLf5hwH0DgAFTZ2h9r3uIXU784S8d6dpQDtHVI+jSqPitxnyjYB+TzyjqN8lTvMyBFbXCLohYlLnzenAicG1XGHwSzNQR21kBbQ2BrCLqxCbx2BeaNbRTbj2DW3kIx/BSleRMvmAd4AccYUoMSjCLMAweChcGUDSYocIwSuxjiEe+g5puwWy/AVTtw1y7Dvvwc+J4F7h17YHs0AT8Ygh6e+PqJdbK24OMaOK6Tv59sNGo8yKmlbgNnFHgSEl0ZABLJSIupTSqLTRCndbLbvN+o47om4TBlAHr1lEvMj0AXE4uKUBnJbRXld27fl+tUzvuu055vhaFcILidVl5er/O0U0j3XZAOUnkOURksi1eAPO/flnUSaWfsqqMW7aVMp+rhePaZRWje/fn7BYhiSJXq79z9QP4Sz75DxGjhwuTRaIEXEYqV6K3KN5QOghlVHtR2RsDOCHRlBHppG/TaBoqbY5Rr72NAP8F18y5u0tv4avMQN3YbDCcOhQMKK+AANAWhLgmTijAeGdwblfi4uIQ77gbuDW/iYHALNb8M4gJuYx3u8gZofxN87wjYqMCjKomiJ0F0PZiAq6INcDr7dN434lTeFXIlSRu0LlOnSwfaqpEZqye6JRxtie2qT+jzVJfw35I66osTUbuuzSToQ/8uv6I25ey67jbNoZLiXiwnRTwQFnfRLsfqMvJ3cvor+kShJXfShUgyjUj9NOAC/anUT+Na5+lUxb9SQr+ApHcT3dvIp/nB5RHo2jro+U3Qy5dhbjLK4duozN9g3fwA36A9/J55hH9yeIjihwDuAjQBcAwPuAMAI4A3AVwG3A3g8HaBN6sj/DX28bf8Ed7h9wG+A3IHsNuvgLZehLPPeV1fPLEq9M1xDYwb8KDwUTu1Brjkl8ddPnoEfzJW1hcsACf+g1pUrS1IXHJ6s5hwtxFKG+Z0MgcguRHlc9Xx2dPj569d6ukVPX3SInOukzxNZO2jaABZkHIRWqxyp0Wo5OQ4id6yg+uVeRadZalZOLSBLu+jGTELMT8dhiUwLEGbA9DVEfDcBnBjE/R8iWLtI5Tmh3iJ3sKvmQf4veYRXvv3U6z9B8an721gPC4xaQpwyIRLhlGVDoOBxdrQ4tLGFNuvWnzxmyfY+o0G156f4vsGeNM5fGqmqDGBpRowU7idDbDb9jG9Ij6Oa/DB1Ft0CT4cSgwOEimAIJ7mudzE8hv7PfwiccDhvNVWynSw7wunTvmaN8dabl9qo+rSnXeNwzIqjEArgPu8Uyd3N+f7onSW54Iup+VaMM/a2kcR1Hoo5xrET3KGaFY53QK4LsMGAKWLiu4qVQC5jYG3lu6MQNc2QNsWpvwUQ/NzvGJ+gX/OB/jND49B/4Zw9//awE8Or+IAFcYo4QLIGjCGsFiDxQbVuIITXL41weYHU/zKZIrNbzqs33AYrZ/ghzTBPTCO+ATEB7CbN4HiCpiNd5liABMDHJTAdgVcXgOPGx+XW1tgYoMztXBfLn0GhUOcszyNjHSSVyiD5FwIy8BhAQzq1JfjJhjV1Nh1cIpx7LShSc+vlldFRsuoebACuBVdBOWTUGe0fZxUFt3cAwVjylnf3zAwyMBPEqMOSy+qblY+K+1gFwb3sIU9fBFjfL0Zo/oTxt6fDPHdo5fwA/c8bHAQ4bDKKXwyYBhiFGBc/+QI3/h39/EbP7iDW/9NjZ3/3uKVr05xvWD8BSZ4l3+Bxr0CY27BjG7D3XzOK/NgwG4AtiOwuwo+MqCjOoiVAeB0eq88csdQO6ebiLUSejhuwCcNcFz7ONKpBT88AQ6n3uixN/aPPiQAdfK70xxX7saVH/wU+z24NlUdvy2pQ18B3IoeHz0JdWsPA5dLt21/QZesqPp6geQNIO4+ksPseOrdNR6egLfG4K0RXHkNJ3wdH+Mu7pkDXDtuYPcM7rs17GG4UL1PpgXsrsHu4RrWvtvg6sMxLt08xndG+7j5+gnu3toDP/cAdvst1GtXcVRtw8LAgcCoYHmAKUaYbBawtfMSvmO4xsFa9k0E4CxjGoDWAXAhTJJBaIB4Vs5xAxxboJ4WcM0APK3AzRBohnDjIXiyBXd8A/zAgT94CHzwCLhzCN47AQ4nHgBr1b8yHjGRQ0dfzPOsOI2rP4VWALeizy8tMu8l8WLU33ECOIekXxIld/iNawciCxQ1cFj4BXz/yOvSiOB2nocdvoLD6ov4kfsYPyn28cbGBADQnEE2P8AAP+Er+MnkCvCfgS/9YA+/RZ/ia1sP8IXfO4H51jGKNx6AbzHqywa7KNDAS4UOhJoJYxCOYDAFRXHYBuBi+WyAcfitCddEopwS4aQ0OBoaPCgL7JYFjssNuPISGrqMKe+gxg4mfA0TfhFTvgK3uw7+2WW4Nx+Bf/YAeO8h8PF+MFJMw0uUu9g8XawcF9lFBLSO0DwjrQBuRZ9f6lNui0Jb/Lk0aUfYaH0ObhPigFpbYEJgDok6qxBZcO/Ye+g4BtYr2LXnUF/+Fdyn9/Em34PdeAQAqM+VsM3Tx7yJP8VL+NujG8CfM278lyM8tznGYORQlZ53K+BgiL1fHXt2dZN8W7wnFvmAHzBKOBgwSvLPFXCoYFHBgQoAJeDWAHeJ0FwDpi8Rpi8TmlcL8M0Sj0Zr+BQjfMzreI838CZfwh6/ivrSG7Bfvo3m+VtwGwPPDTbOR18c1/Oa2E3zjhBYwpC6ArgVfX5pnsuRhAY5wKMSEuBpUVWua786Zp8oE4G5K8gD3KDw1sPapwlyGwPYV2/iaPsNvGl+BLvpV2J9ZutKoiNUOOLKc0CfAPc/HeEKTlDBYQCLASzKoMOTIDATgMy7S3Lk4ko4FPC6vopc+O4wgP9sDDwCDADeArADFDccNm9Osf3SFJs3jsFrh9i7bHDneoWPXyjx8vND/ITu44PhIzyojsAbG8DxJbiDKbA7Bn5xEKTKzIhwGhfWl+ThqfrBrWhFnwcSv61W+BHaaZR0SnwiyFmlCHosKo0/7eukAY19GnRmwG7cQrPxNfy0/A9otj23US8hUuV0n0e4j9HsDxeh37TwORTHAB4B+AhY/8caX6BH+IrZxau0j5fpADtfm+LVfz4F/2tg93qJf0c1/m/awz7tgQcj8KvfBt+/DH53zztGdzmT00VU+Oy0ArgVPZukOTM5yCYHOC2m6kSl8QwGFx2PGROgdqBhAT6YRIW6Y4bduob6xdeBjf8CYDkR9WnTFAU+4i0cuAF+jKvYpBqX3p/g9r8/wBd/9BCbfzfBb//XR1j7JqPCR/h7933YtRtwL90GXdvwkRanZZXOqS+t1AXQCuB+2ajXd+wZI51yXsDNullrXXRO5uRnp9Phi4Wvdt6xtjKgsgA/OPY6ueMa9vUraK69At4qYJSI+HmkBgYPMcRDDlZgBrZ2p7i/N8LkzQK/cncXX+BjrD3PuPvCPbxv3sad8n00V2+Dnlv3cbvzAK5r/nWlxr+gOboCuF8mkgzK58ky+3kkicsV3du8tN46o69ECwBejGscgCa6OzAQ+5L3xqDXdmC/cQu8Y1ChQfFE/GOeHB2hwo/5Kt62lzF+s8Tv/x/v4fmbDb7zR4f4R9rDffo5zODrcFdHHuDmHRQjCW77uiievnYxfXh+beiKPofEvxzcWyTFxXG61PqH7HoM4FT/ck4wRgs0wNEUfOcIrrmJH1zexPCPLP7V9vv4Mu228sB9nsmBMEGBKQq4KYGOgOKEsUaMAVkAU5BpgEF5+rkgXfn4WsSzXPYStOLgfpmI8csFcNLex9lmy8CjE9iTK/jetW386v/0AN/5+cewbxrsPxpgOilwxBUmKD7XoisAjNBgCAuswbuXxF+CO3HfYUVAR0YcRS2LKy50vFYc3IqeXcqteY+DrAMfTOA+bfBnzXX86Vc3Mf1fCb/2R3fxP7/6Y/yheRtv0B7WTk0n/dmnETVYowYYAlx4Z2EvtXu345iFJT/zw1B/mBZwYeJoF604uBU9uyTiJbB0TGMvWQYOpuB39/HJ176J/2fzCPbr7+Llgymev3qC5z+s8a1Dwo2Pj3DySQH+hHB0UOE+RrjD6xh/jpbgCA3WhIMbRL4NAIPIc3BUGn88pCY5nKePHiOH/fnp3RWt6DyUO/BeNFn2acV/9gCTk9/BX1QH+H5R45/900P8+j87xq+4Y3z9k3v41b+4C/NXDPs9wp0P1/GP7hqmfB2WR/6IDfmX6Qo9LlMAEwI/Rc3emgDcEJ6LA2IydhgXc+iR+exoH1cAt6Jnk/RZu48L3IAgok7h3tmF/cE2Tr76e7A738L36R7ewx6+Sw+wvX0f5rf2UL6+i80/OMKVY8Y2HeG38R529h2q9xn0IYA7AHYBHAN0AOAAqA8KPMIAn/AGPuV1fMIbOMTg8bRlDpVwWEeDITXgEcAl1LHp1jvydmUJPk08fcy0ArgVPZskymqH08VT8bs6q4MqkDi4n+/B/qdt2DvX0Fx9ER+aNXzstkG0jaK4DCoeoiz3cOnyGLduMF5eZ3xpkwEqMPhkAvPhI5g7D1HsHmLruMHmgcPWgcXaPjCdVrjxYAOf3tvAtXtjfHK8gT1ewwEq2CekRh+iwTrViYNrAVyIVChMCKxX/SiuSU/JvrICuBU9uzTvhC5NctDyPP+tPrLO6+De2YW9ewiMKti1AlQRUDd+4Q/WQIMXQKNbOLiyhk+f38APXrqE8rUrKH/1OsrXH6B67R9Q8n/GCG/hDRzidUzwZZ7gSzzBrd0TbP/1BG/8+R5O/rzEz97bwd+463iTd3D8hABuHY3n4FpW1AzIJAvyeTaKx0QrgPtlI1Km/IsU3VqHxQTSp1npkKgnRQQloqKfk5Czc7tOtF+E5MzQqfV/Lfu4VUnJNPCLn+sSQAFXlmjWS2C7AN0rUGw+j3LtVVTmIY7NGD+jTzCmA0yJ0BBg14Cb364xdA7lscPNowPcvruOX/AGjlGdr85npCNU2OcB9niI5z84hvkAuHbS4EY1wTrtYmruwmy+CH5+A7wzAu4fez9BmWNdR0c+AVoB3OeNlp0kkoobAMi1Fdu971T36NfraxE01e9aXBHg6wM4KbfrPfp9+fWua/H9lE6Bd3yKLuiM4KaLEa6lKsIJ91KW5HInMNjHm9cOPPUOwvRoAtw7gnt+B3ZwHYZeQs37uIspLDhmBKY1wugVxpW6wdo+48p7E9zcPcR2PcU9Xn8i/nXHqLCLNdzHCK99/AjFzx2uPLS49fwU27SHA/MJaPMrwAtbwNUR8GHpAU6P+4x19bFXewVwnys67YSoRZ5vJR8svA/SaQfMVIUX4UQMAVJ6al1mDpS6qkU5ey2vmw6RKsIp65rjlDNQdRm1U4DSQYR0sPBFLii9YAk+ffqgAA39X3+IivUrjJD0U8JRTq0/wf7hCfCwAW9tw5kbsPwIQI1HMJjwJwBxyC7O+NLLJ3jpn9ao3rS49tYYOw8nqOAweULB/bu8hju8jr3xENd+Nkb5c8Yr1yd4Acf4BX0Cs34AurkNuroOXit9hhIgGRryYcpP9eqiUyMf5tNyAKd3xHh+54Kz6DQnzMftoPk4SfphHjeyUDmUThJnzPcUX7S8GTDg7sM+RFxzLh3XR0hOnBzuMTh7nUxHBlcTuC0pq5BTiZVYKQCfc5HzAO48dTmNWg6toTID40OVBkUaJxNQ34U6liHOUjIJjxvw/gR4cAK+vAl7+RqIjgA0mKJAQwYfYReMXRQE8IhR3gZu/GaNze/VuPLoBBU/OYA7wAB3eYR7boTn3hqj+Dnj5rdr3CpO8CO6h+ngIejKVeDqOmitTLgk8aVysDiFTVGSXM4bgyWTjCwHcFWRJnzt0mnZkbq29UCS+76TuJ2rK14OFyiUG8WTz45SE0DY0U3afaJn9xnrSfALw4VF0hvnp5FUy2xZB8pO2noHa3NYoqrwxUxFedx1zyKNyCmAbK2+g1Pd5MSr3BsemK0Dh2tz4x/7WMtwrSqAes487ZKdZbEqhTpVhc+FVhZpIzE2pWSqiiSyy2HKJ7W3wD44Bu+swa3vwJop2DgAQxQY4D4GOMQUJQhMwOgy48q3LIavNtj5yYmPBeUno4cbo8RdrOMOb+CL7z9E+bbD80cNbm2fYBO7OCwegC69ClwNWUV0t0p/1cFfblDEtUuVAdd9OorlGJ3lAG6gdg5R1GqqQoOAxKZL3qcC/QrupsdkL8+WJk0c2R0+UyTcDhLenJf7IvLlCGh2UcO+fEJbjGO0c5yVHWMkHJgLZn7H7bqu0cUqhyu1yIn8Li6uHIXxgNvaFE6hYk79DKXsFSIRyCbcBOW3cGK1YhVkTklfAO3NKnAgJL/JAdGDIp1WJW2Ud+pDrZmB2oKPG9D+FHz/2ANCuQV360YQ3YZgjMBYw4SHeNe8jykYJRg7lyy+/MoEl2mCQefu9PjoAa/hE17HPTvCi28eoXqXcevXprhGx7hLn8KMjkHPrYO3hr4dcpqXCSI6+/4gmcuhr0hLBnKAOfCURdTBKazxoAAoNFAmc9ciF58l4cwMwx+NlhHZwNWErKE1dXMl0OVlpA8nPu3ei6Rcf5b3gxbJu/pIFquIvnl/ieimjQiG0gSbtxHoxewwKwbqU4+0BRboVkuISN3VDj1Wsunp+7vG5ywkHD2H9hQGKDilJ49cl0sAB7QXkcxVq34XaSP0IZUmbSRVOHF+LSynfF2Iw7HSwfHUgsY1eD9wMPB94QYDYOsSeFSCq0tgWgdjDbtwsKbEGvZwe6vGl1+bYH2jwXD/yQLcGBU+5Q3ccet4/t0xyncZN79e44Y5xk/pDmg0Bl1bBy5lABfnZlivAvrarSRuIqHfLyCWeDmAWzvlcdnRAKVo7RCqrUuTybFvYBdJWYMi3Of6AU4U4PlCkQ6XScjsd/Nl9DjnodxfSJ9b2bdxRDFuTn/pvqiK8wOFpkGYqLKYRcTSddIkmXPn+USdllbnvGTIhwo1ITYygD03Hlgo1InDOQEUQIr1QgocBRMnToPYW0Jl8xCuTXNswyCeipFB9Kd1Nk8d+zMfqPaREI5BUxvqxHAvbAEvXIcrn4PhSwANQMx46Ab4qWF8aeMQ09cJ1TX7xAHOgXCX1/Gp28AXP3yIjXdqvDhpcGM0RkH3YdZPgOvPg7bXwF1rqjCgklL/EVJ/1dlm3Dgsq15cDuBOSzNsqC0iifiRn3RkOZnyhTvpex8BmHAKpI6nqFNbRyde7F2HEmvuIoq6C7Z5URIuqE/PSACceqnmMPr6VayMItKd1l88T895BpJxJALIJQsq0M0VCsDlbTztHbq/9K4unKvlNtcF+P4QV5DwHEcgAeJZAKGPOMsPx/Jc41oWYg59zNLOWEw6vcrPOeEWDTCxifMQdYyoCXKg9/jqmd9xAx7U/uDmwyn4aAo6HIJHA3CxDoctQRwEfQAAIABJREFUOGyDcAVj3sfbvId3bu/j9j8b49fv3MXhoeeqnlQ6JomILcHgAWCHwBQGzBXYmdlzUWsbrN0e0NgySKWDRxP+WoUVoP5T085AywPcvD6tqV1pQvsoNw7/XFgQshnJ9a73iU5Lv9eSOltRc20dhciEFaUmtyf8XAoS4cz7u8iF2TvPQqdFO70RzANFqYOuh8s+y/qXgzGhrp2H4jiqPotjSO2+kw1DQHfRMB1Z7XFSaxHFJP2iGCSkHxoGKlUfAVSG57pIgR06AF++y4KTvo2bxpyxaCjN6zIAugRplpw2I+tSveLU9GDNRKCiAU4K7zZyHP6Na6AeAoXXxTneAmEbU1zFh3wfP7q+h9v/1T6+8qNd3P/xGopjxj4PMEaJ+jHnFC7hUIJRGgesA5PK4NiWcBgBTQmcNODaJuZCEoS6ImWUbqitVtGMD4WN46kDXG3ni0Cy4wJpMdfKs1SypDLQmkhdFlQgsfuETMSh9jPzFpTURya2vHuRQy8ERE87yLZViT5ulNtl5PXqolxpLsYAbVjQfmHCPcz01xlJj2PcmQXADGCVmOTUeIrovwjA5X5wevOTvtJzScqU9mmRWThXmZuG0ibaRw0DxqWFdkp/MRA3FipNmscM32bpMxmDEOGQzv+kBIql8SqAkwY8aUCT8PfEgtcGACowj8DYgsNV7PJ1/M3oLt743Ql+ZfcY//p//wAvv32AH+Eqfs7b2MXIH+z8mKgihwoO5cCh2SIcsMEhKjA2wE3lz0Y9UQAnfn914tqYvCqhBXB6kxcRdUlaDuCmts2FRGucFr3kuyxMl8RLrUSUa1C/dVFr0jxh0qmrdRtFRBZwkkETWgR4FyHxi5P+scIlcgIBbTEEkqVZ6njRRAI+4Xs+bk4vakV5H2oOX55rcVKBCtPe2UVcbqlCkKzCAlTzHJpl3LRIeRo5eN1nELkEgMkxwEr3qcszlNxgDAEc9IFTq0Ct8UBQO+8o7AZAMQAwAmMTDg5jV+OnZg//8QrDfGcPr9kpXvurh9j4aY1bHx7gH8bX8B5vL3U+6zwawmJIFrQB2C3gAAUOeQDmLXBTgY/rpE8TEoCTIxXlbAvhmoE2B2dPkX4WpCUBLqtAFfQOlUGc9bX+Hkh2ZU2n7bA5PQ1HYBcGzcJPTmlTY9u6M3FkjM/JBF92wuVt7uMOO56zCIv9LCCny9ccKfXc00XW9xVlz4hOprecPtFQNr9MvI/zST3Hri2CajFb09SGM1G5rV8kdN8v7SrDBiPeqPEAaQ5tU9wk0ObOCwV01PixObEJCBr/lxsCmyGY1sDYBHOFGgN86Mb408Jh42uM4e093Lg9xVf+4wle++tH4J8T9idD7PLahYMcQQCuATYBtwnsw+AIFRge4DA+md0k4iYkRpswNoPCt7VFoQ8vgDFYDuByGZmgFPbkRRdR9MuCF/3NzPx9CoC1DFmRR/T3QFpH5S+Ee54C1ykk43AWkLWiThDAFu71jIvGADOgKEaLs5L4sLVEyB4VA4vqIvyd2iQKa7IuKbob5Zybb1Q52axZjoMl1K9flBS4lo5nhZMRXVxpQJNwoHQQTzFpvJUVa0EP59vqcBUOl3HH3cC/xd/g3dFb+J3fOca33zjGc79l8e3/7Q74LcLf8nV8jM0LNT6UsKjgMCQLbAB2nfCICxxzBeYNoK68DlHr4IAguam175x3iu6TKvQaWoIxWA7gcvFBLKGy+Lt2rieRJ/9JUN720777i4+tOqeS4DGfAWQjIGcT9aw05eRErBXK5xGZGyQ9bEtc7wE4F7gG4SBy1yGx4Eu9codfIKlF9HM6NDFa85H6mZDe21WGWF85lDENgDaRv03g6Bx45AEOKL2l8oRg9zdwYNfwzpUSB5vXMX7ufTx4/gN8fX0fX/vHE3y1foCjD0uM6xIPMLqwmTdQAMeXhIMrAge36TOmHE19e/JDtqXPbJAoBHi7LPEtV6Tz1/5ig+2lQV2T7WlyLyvytIzbiB6/s46lhQ/rqm0SS+05OTiiBFSDYr7eTByXhcPrArjaJuDJyxEluICo5uZ0WRJ+JNZj4ciIkpuJiK+K8yQJ3WqCcSUDOZ56gwMwAvMIwBDOjsD7BH7LohnfgP3qy/hk7Rt4YL6H77PDv3zpY7zwP9a4/ek+3H3CvWaEhzyEhbkQkBvCoQo6OGwDbpNwAINDBB1cXYGP6lmAA5LhR7tqWdft96kBbolIpVU2kV8WIsyy+rmFW0gMQRdFAgwXnQtuIWMAJzFSB8cL6fBBQjJiEFRYVtAn5/WXPpIwOU0Sf3oWEku4RGBEMPSyMKMEbAHsj8F3j4CHJ+DLV2Av30Cz8WWMeQ8/5hP85OVDPPeHDa6Nj/GdP/0YmycNfowruM+js9Wng8Q669hEty4CUMABNAENLGhr6LOJnIVDz8dSz78lJL4VwD0rlINUPrkkN5omETf1s46T+LTw+3q0wXm6I12nrvoGHdOMaJg/c5aFo8VAeQep9pmsfgzfflK/iU45RjUgiaZ5qnN5JvcEkGf0d9EHShhXJSFMxnM1EqAfZV/yBpuTxmcR3h2DH9Rwh1dhhzcxLb+Aj+gOfrRzH6/+9hQv703xxUcPwR8Rqk8t3pls4xGG8ZzW81ADAwZ5oJsCsEABRokGhGPQoAEurwHrA6+DnGRj0QdWWSTJzFmp56QVwD0rlAed6zCZzjRJAKyOCAiziINPHdv+iaXzwgHdIhwQ/PN6wEjfKws8xiJK/KdrT3ThlErFEbrcAtdDBSXgFl/CyIGZdI8YxASQtLUzhmmR92ETMUozHwJQQBJPIWWp+wyFckzKrjEsffhjZYBhyC03LAA0IDQAyuQ5I7ruoxrYr+G2NmDLF3HibuMf6CO8cO0EO/+Dxc6OxZe+u4vX/s0j/PTBDn7A1/AOtvEpbyzWbxlNUMCCPB5NAJoyhmB4e+0j0GgCuroObA0CB1unh22wvswDrOgDdzEixArgPk+kuSGgHSWgFyCQ9BoiduVcVHSyDhOpccqbn04XC7TIS9kij/XRIt4crkt+NkjcU2xf1l4BJy3O9Vl28wwuUp5YR6WJVhylqRt4pSzpR/HditET6p1dGVtm2hucXKHGRIBuGICu9AH8NCxAGKuXqHjW2oIPJsDuGHx1BDe6gQav4AP+GP/JnGC6QfjKr09wc6fGi1+q8fL39zH8scUX33+Ij483cZ/XcBfruMfrC7uTWBBqGG+ZrQGa+LwnQzQgOgQNa58PbnsNPCOiB+ngtPlwgbQCuKdBQaUze10GXYlVmrSYqYFLbpPgZSBkcsk4HuFKJPpBLIjybvEvY/aikLALOv+e3CvgAsAvuszHrAiIxUBnKq2utku/RFFU/x7+k+SI8m7h4ro4xRZX2yFKSqW08r9UdTBov6ekpBtjeIuu43Y9u5yas3aSFn3DOJKkOh+UoIGkPi+AiuC5IOlfVefagg+nwO4x+GADbvMqbPkK7tE97GOMQ1rHvZce4cu391H/BrD5hRqv/dkuvvL3wN2P1/H+wRbePrwMnhJ2sYbpAiFeDEIDAwsDmgKm9oaHIVmADkGDE9DlyyGbiJYi4n+LzYcLohXAPQ0yZlZHA6hFSombis9QO0RMg5t8lqwWgE+fLdyEgIcxCbBK5wPNRUylBnAmRUXERKbsF634khHCIs5maJ6OSSvnFwG3mBdO9YNF4iSj2IhZENGGgi6SoHjNleq+dJTKlBhI3cYISJ7TopDNhpm9qKrHMUZOdNTHSN6zVJb/Rx7YhmW8RsPSc3KYeo0X2fQaEY1r50XUvRPwJ4dww03gym0QNQAu4R36CPfpPXyPPsQbw2N843fG+NZXx/jCvQl2/uIE69+r8eLfHuHKgxN8n6/jQ95c6BhCF7g4TACywIAYFRoYHIJoH7R2FdgYZNzwkwM1TSuAexwkoJJvhwq/klJdkc5Nxuo7kMQYIIlSIirJIpFrIM/BafO7cDPRF8mArPNhRqL8bdg7uhqT/OXkOVKfO+M0qZuLsjg94F7ExuBL3OLgSN2jU15rMj3vlvukvyn7Ta6XnMqXMZnpewqcVhHzERKzz07CGXCKLlHHC7e4X0qbkgkgVxkPaDJugaMjTOE5OBWeEsfLAcdTYG8M/rQCCoIbV2jWrsENh3g4uoX9tddQmF9gn3axe/lj/GLnA3z5hT3cGtZ46XqN69eOYf+cUL9nYEG4w+uYnmKAsCBYJm9AmAIVGAM0IBzA0CPQcAraGvi05dL2rsSkYozpogsKLVwO4C4akS/SNWEREpFIPuf1OG/7BAR0lhJZTK0XZ9/z5IulzpisgKVUC0MWUchFRjrHluhAhLuL0QyIKY0oiKlxIp7AO1bWSBNT6mNC2WW2ACRIvdMNxCb91iL9pqnFEUL5mqFjc+jLoYdZ7lKTFqPKkEg1b2PQv1FBCXwYiGn3VfJPqgxYcucF0ZdCUk+WzUXGUoC5DNbSYeE5t7XEyQEWRAJwas64oDM9qsEPT3zdphb8aAQ7GsBduglcfR10hWCKR/jIfIJPy3/E35kSX6g+wHd+dR+/++VDvPH6BC8f7WPwicPxtMKxK7HLa+A5k98FKyqPATpirFnGNk0xon2A7qIZ3gZdqYAra8CdwWyWaRM6qzIhLx7amxHQ3uiWoOUAbnjBDGAeKN55j3ixL6YU7SVCEm1ERAKS8r2PKzi1XGrvVhrHhOIuH9oqcaya42K0F59ScpOk2a6KBKYDBWzwf2m9QpxIZcifLpxLE1BC9GyN8+4Hx8FJc2qTGCTZQiQrRtb1rLKbkNp1WQLczzJRjUpfnfeZZArp8JniPpFQG1u6OALtkqDdU3Sdpe/FGh1PzXIga9KcDeNAwqUR+cNoQlkklmZJ310ZD2brFTBSFtSg5/P94JAMDCqCQ4wcDJ9aab8AS0SECRve1hC4MoDdKcE7N8E7BQiMX9A6/hJvwZRA9TrjS384wc79E3zj+/dQHxn8A1/DQwznDtMJlzjaq7D29zW++pUT8K1HeBkf4KfU4Cc797H7u98GLn8N7m93gY/2wbtj4NGJr5/S+3JlQYMCXElq85CwdOhVNHEu3JtbnV5aDqFGSx52oZEbaFv1gCyWTVn7BJyWpcIAZVaeTBxtBTwL9blkaJL0OkB6t6To0f5glTIUBPEzpsoWUBOgE6PCsPAcw6AANgf+98DNURSLKImq4TuJ0vqo9qE2x7VPxHjShElpU3KFVgiOT17IDSfluZAkvjxL90UwQbvvZeFH1wxOdZE0Wl1laWNL11hqMUlbmPN7hCMjSlmNSwM0JoUSVcECKq4iwnXmZcn4DUtgVIE2Kg9ySgfngZARFJHpHwWQlISuAfB50oAOKfYNFwQcToHjNaDegDNbwPZt1HSIRziG5UfYNA1uXKnx3Lctrvy8wa3DQ4x/VmJ8UOJdbOMg+Mtpbm4QYiLGXOLB0Rqu/X+M61cbVF88xuVBg5sbh7h5/QBvv1ri7c2v4OFzG7AfvQT3zhh4Zxe8d+IBWTZFSXQgXK+KDiEttZyTlgO4jcFSj7cO4uiiWvlBxcwly8qPc8gE7kR8cGSxnYUIp3qwU2nAzsV02S2RdWAid4BBkUCvDDv/sEgik5zBOSiAKpxitDFI1zcH6fdhCRqVbVFXgFBSy9cOdDT1k3DvGDiY+kUyabwyu7azYOLC+QIdyU9Jj9+iZJQ+UYElCecUMn6wpHgPoVaUp+eRsobFXB0gVYVPzhg+A4jfW2Q5hR8J+ESLqjKEDEtgyP1zQObUoACtB+5tYwDaGCQOTvzjvLbL1w0WTBagHt9CAQtCcpspG/BxDXo0Aa9XcM1VOPM8HG5i7O7jbTrE3+EEN1+s8Wv/ncXG0RRf23+AtSOLNW7wM97BfYzQqM7bQI0BHI5Q4RfTTRR/xrj1w0Nce6nBlWsW33xtjPEfHOAv/8mn+D+v3cZPLv9LTJo/QPNDAv/VB8D7D4FHE/DEb5w09eF7pM/dZYAa256r56SlAI42zsjB5X5cXQAiimRR0gobXmsx6TFRnpNMH3J8mhVIxOY+UUhTaQKuqYWn/a0AvzsPAqhVotw2SoQpgFEJWlOK6XDwCa0HjmBz4M/qDN9powocDfsXkAMVDii8lQ7swPUAfHIJ/GAC3D/2BxMf18DhBBg3KTsrEEVDqm37TAkgifqdmWPCw638ear90lbpx8L4RVBSKncawFaL0jJWjMSBiz6rjwpvbNFGEpIzL6Q8m0R4bmz4zmmDFt+uQQGseU6ZKyWKaRIAH5SRg8OGBzmM/DUKPnDJrCwcnPVjl8+vwNUykPpbhA/yKdxpUAB3juFefA62uAVD+zh0Y/zMNPgrU2P4AuO1fzXBJjm8+P8e4ls/Bq4enOAT3sBDDDFGCQuDIRpUcDgI2YM/mWzgrQcTnEwKTD82KN5lvPjOIV7/yyP8L7//Pv7kK3+Fvyi3cPDyr6PZv+orde/Ib5iiDhFfRmEOZN1nm9x5aDkObvOMHJx2nIwhKtRe6KI4F5BrQsolSb8iaavPyBjMJREJ+8KdRBwRHRB6OIKuXVsxZxAfMykrcm+YjTwQ8aagdKDwsFCe76XnAEQpLb8PSj8uW0NgcwBaK4CRAa0bYN2ABqLXsfDe8VMQnYBwEq4P4XgEd2UE3imBhxvA/sQfUHwUuDnhzCS3fm3BE5v0eQBiclMdbK6plS1CiaUBzDyn6q+RFscZSUfICPWxqU46qL0wHtxbuk0ZDE6KbMrqpzdUFzjWaeNVBCc+QWVM2FmatBmJa4cYeOJGoMoOxiEaFFH/RhsD/1eejXGoYjnVIqprMwUagPM+1l8NgT89hLu0A1q/gWYwwQkm+IhP8H03xcYWo/wm43ZVY7OY4nX7ENvvTfDi0SHuTtax69Yw5hI1DAowDlBhn4c4QYHBxOJ4UuKES1QfOnzpR3v41o8Yvzk8wPG1H+Pd5zbxznPX4b74JbjxZfCgAB5N/JmwE2UdVhxcjDjp8kY4Ay0HcOtnADhCSnxp0JrQJBNcixIipjn2IsPUtkXWDp3LuUkWRs5N6rqIj1mT+Ui12pdbF0mJDAHQ5ZAUMRZIMdqKJByHZMyQBT8owsIISmkRPUV/Myz8Qtkc+lCZzQFovQCZI5A5ABVjEE3gQ39qgGoQTkA4gD9R3YKxDuJd0NZzcGtX4K5tA7snwMOxF1mPp77v/3/q3iToluS67/udzBru9E1v7Dd0vwaa3RgaIAGSICiDNikxbA4KU1Z4CInhjcIhbxzaauuNI2wrHOGVFd544Y0VXpghhw3LlCiLpAgQEiEQQGNoAD33G/p983Snqso8XmRmVd37fe+h0c8kwvnivu9OVTcrK/OfZ/ifc6JKpM5Do0jVdOThNGj9RbeSF01XXyepN9FcElinqlUJEKKKqlUTVBslSAFJkuuDXDLiJzU9tX6RGqWLPOjPp74a7jVIbtOqp1VoDNWKttQ0n8tOopZSobIXnSJ9m2kCt3ERzAd9Xlw7FzvJOOyHayqqj9dUXZySGiUhiZW70vzwtzdh5+MIDXPveNPUOF+zKIUvfnrGJ8cLJpueG38y4+r3Ftx+MOWDesy+DDjSAaeaM6Xkvo4D4ZfgWU1U5G/qDd69v8mv/Q/3+eXndvnuf/wDHvtvUV2/h//YFoJAOQubz3nVdXhlDUWtKWl0H7E9I8DlFzxqT27RvpRUgeQRtL2J3feUKbTl8RZ1UAkqR5vpwl2yY33YliZq+1ovei3XW1qAyet6IYNEur7e6wSEidNj6Dy0lxF3U0vntmZFemspBMOo2gyixNA3Uo9zGFqkdFAuMHmNyDHCKUbOEGZAjVBHsDvHxM+FGmWC4xCXPY/YGnJFTQajITofhglZuU5qiplnW6mqNf77YDdtbagpG3KS8NY2qDSmSbLpq93JVjjIgt2m8UGKqlxnsE6v+8A1iNJs8vYn1WfdsWDlgl2xlSy8wqwOZQRVoYm/730HcEkqH0QnwzCL88mtqukpMD/FnY4CuIX7V6zSQwx0hIxORRU8YrQn1CRtx3cOlzTfage1DWUJa986P3w9gaqg2XoeHRrUC+9LiTX3mY92OX/B8KlfXXL9asPg+Qb7bU/2lme0V6NemGvGjIwF2aV0knMMy6XlGw9ucPufnvP5Xzjmay/+iLPyPfzNz6DLDbAGLecBdJMA0PI4e/PhaVy5D9GezQY3zD48lSJ5F/t/k7epZ1SW3HTkU4DKBxBUDXmyWtWBYA958g/yVNl2Pd26gS6ld/+47vokM0Fi0Wj0TiFMSWXtS3CJHHppn6Io3leJC9v73Xi+MkpsRZTOkkozzDvbzSALUsCkCN8ZZ0juEOYIs0C85BAjpxhOQGYB3FgiMo/Ad4jlBCNLnI4RpggNDYpa0MlV/GQTqgJmZbgPs7ozbFcuqHBJdYMO9OLk1JR3rW/Ab1X3bsxkmMOop+olB0ikveiiCfy92kUHSBHzqLkAemlOZNGIPyk6b/+TvLrJi5ea1wCcaSMsYghT7YIdsoqqt9XwiBxGSZvRKI+qtInnjZJcyoFX2CDpjcI9bO9foopEiVOIToUoHykaXvcTQCq9BLOBG6dNz4GVh77qPLgK1HmY1/hmG+UaZGPISo7NgO944YCG6Sgj/9lTyhc8kxc8+Q3P1T9cMJg7zs9yTqTAeXkqV67G8F29yqf/8JBP/tYjXnr+bT6Q1/E7L9DUQzAhWkMnhGiZZGdOkyJJxWk9fMT2bBLc0wr7rrc+ezt1PHlJ+kHZmUFEu4WRERZ442gzOAAYAq/ostaqg/pk9B9cAj6pH0m6WA/WlqhWJntdblZrTqzb0fr0AtPrk4lqSv/rhUVjplpJ4Nd6QCO4DSO4pcUw6i+OPIChXQSAkhmGM0ROMZwicoJwhEhPgmOByCkZZ4xkSYZjIXNmTPE6xcgZygmeAaI2zJZxkBQ1C9cueQO5CUV+87gBJT5WqtGhGvrWuJ66qBeD5K100ukwQwZ5Z+eKEquMehJjkYUCJ1VIEim1jwTYKBGUWVD/BgHg9AlSv+Q9HhYEMErFxRNoD12nMq8nAUg2sxRmlbKJ9KXUNpA/HpfmflJVN4PNlO0BMpIw1wFVC2IBy6XqUj+bcePDRuJSPdco/dQuXGMmYeq6kJATUZwM4eoLQAOm4cAbvmPeZqQNy7Hw8qtLbo1qikIZFA0v/ekJMoMjGfBANy72Z629fbTJy/9in//gFw6oX/hjvi7HTHfu4EdX8HfGaDNCfR75bynmNniQwxgb9BnqSjxjyvJL3ntSiEUSnZNNKnyZNuhZhLbGZj8CIFET+ult0o/3fyepAAItyTKMzxOaXHxpomqQamna+Dr97vp1pYwUfQN5/3ytQ6UHcKkK1Tp49rNb9FX2pKIl43sCvDILEsMgCza50kKmCFWQzpgD8yjJpUdyJjS9h0MRPAaP4lcWUnJEBIkPUwZ11VrwGYjr+Fh99ShdX6pn6jSsT41/0/0yfpXzlkCpzFYZ/XkEuNJ0WXxr1zkemqyT7pNzI8WNllm38RhWAS6Nf26DtJ0+U1ZVo8IGzaJVn1jtc7o/pnfOJFmtA6r0xNa0mQ0y2CiQrQwmSyQHJTEUcoiqoKZ7oz2Vt1cbJNiqfScpps01OWemdad1RJuuDgvccALjO4jMmDPnkU75ni7IM0V3gpBxzTWMc8+mVtx5MGXxwQFnRwXv6QZnPNkWf3854Z2v7/DC/3bAr//iWzz38XMW129wMrzOCVuc65glZc8P4/GYKLEmJd3yzhN/4ent2Qs/6+qi19oFN/dlgp3TONl6ElIK44gT4wJmpiIgSYV4Ek3EK+qSaP4Uye1JrR/Ok1TLRKi8LDliak+iIPQpMReyWDzhkH7Wj8v4d8nL1JcYWta7ARYB4KSJEloFVCA1IfYqkUbDjygWocAxYqoCLFEmeJ3gGaBaBAkCYrB3PF58F31xWVvPteYvyS23sgFIL3TJcCFPWgyPEquBHlNatLaQx/yySqsiX4hoeNp4J1pPZsLYpzmmiqrpvLGJg7jerAQ7XJYk+ziHo9TK8hKqSN8zn4SBIkQdyKbDZPuAwesmIcozRyjCubUgAFxn+1u53rYil++0kcinVCMh/XkeUpfLYIGOcmQ0QzcL/PAq3pzh5YypHvOePyIzdSAwbMCrvwTl8zXZDeXav5lx7Q/nXDld8HvuJc70yQD3gY756nducfP7M/7Gv3vE3/w7J/hf+RFvDUt+RMk7WnCMpdFu/SfenYekZ/AnT/yFp7dnArhgj1qbQI2iLhpo0yJIk1lYueFiDdjebtNv6fs9z5g+jRmfNl+vUbK9RNp6WkHfy4LIJf6XzrWulnzU9pNESMQFeIE/mLhirYqfSKFpWlSIVC3QBa9p2u2VJEqploCgkiEMUcZ4xsCQID30PcPhN1QM2GwVxD9MuwwU071K15Q2kQRukeArGUFijAAtMXZTtYgqZVj0kux+6REFFnyMtOiPeyYxDrR/fzWEYCmo0W7sDSvHipEQGtUmIOhtkKlOhPOr15tMFk2Yy5KcDsMMGTjEHmK5j8oIJQ8FZihiPQbCcyzQdNJb/1qrKNmmKmF9b3zKfiISpsF5FTiOZTB1aDHGXbmOZHPEnDHllPc8VHLCmbEckXFvs+LOF2quveSY/Kzj5v8z5bf/5B3eu3/Ia3qVt3TrUrvcvo74fXePr337Fi/8w1Nu/945W+Wcn7s656V7S6prgrcCWZAW1YZ5oRn4geBG8D9++Fm20p5dgluf4Gn3gs7dLkIrcfeaigu76HrrG/wT7w1+PDUkTlBVkH7iRIje2acsyKRmPKmtxyumxXKZHXCdOS+sLqxWXb3kdy70T9rvS1pkJuYPS0kRLQTprK96piwU6ZHeT2MYxjdMyAy0REVRHaE6QRmiFPR1SsGhNIANl94u+g8pLa/ZM1uvYpLcEgfMxGuLIC45YNL1BWVNTQ4mi7bUOL8UqE3UvH3nVKjjHOpvpOsxvITaQXHfAAAgAElEQVRh6MehilM0mQtMkJLb/TzdvzQPjHRSXp/k3C+uoxrHPXk8CTSpMkOKBiOHGHmIsoVnCyVJcSWdDc6sglriEzqNHu1Lir2k+Zf2NhE0q2IMaIiI0WGG5kPcxk0kP2fBKTWOOTlTP+VQ5rw/mPMz9xbce7Hm2osNk4nnlfKQW69NMQ8UfSx84MfM1mDlnJzv6VV4ALsPh7woQ16UU3ZuLilfbth4zmNyRXLFZIpkIKJIDmbosRsfnRL27AC37kXtp5lu7QNy0RYWJ8GlS6Mvsazb3Z7WEm/GabR1XSLFXdbaHfgpAJeuq5+NNDMXK3gnY/I6uPaBXAie4cukuKf20Vz+EN9JapLyh3Wvk+Ql9I24SaXKIpABavFaEgoMD6GVGCAAaDpHhopfXdA/qUkgk0D9MT3VNNnCMhMksiJ61kxStyN/DwgolgdJEiIOR/qFN8Fh06eOrDvck/PiMk6jMWG8axc85/2xvmSDFHvJORLAOu3se+3GzypNpcgQMwvebHmAp0b0TupMBLgCcKDSJTdIHLvIRWwrh/U3YyH0oTDtMUowM2vPtiuFRQ34bBuXvYCwQMmZssV9PWRXjvihHPFdLbkjNbc3az7x15Z87hcXXP3Wgn/nf7nPC18+5X9fvsTbuvXE2/6ebvJIJ3ydm9hd5bnjKdezOaU05KIU4sjEk6Hk4hhKw9jWwOETz/m09mwAVzvagrmprRdEBoK8ufZen8meXrfZNaKHMdlIEmg9KedX364RpYqgql4iScHlhN70W+l8fT6RElXxHij1uWqtR1BYT2x74bef9t4KL046YavtYwDiljvYqkVu7RHsbUk1DZy3ZIPr3weLakb0yQe1iCGqE4KK2pfg/OpviK4ueK+r/e23RKxN1wjdRmDogY3pJRNI0pwnSaGS/kqw1Kg2iOSsgLZYVCyCDaq07xn1obu3Egc1ZQlpk2zqqt21dk8GtiS9JTNBew7fgU0y0aRlkYjiKzY4CQDHPkYeABKdRAa8BTHoUsN9z6QHbOsAp91vS5qvsbP91PRNIP6KTx9pq/KqbMDtTZi8iLFDVK/SyAkLPWUuJ8xYcChz3mHBG8NTXhvs8dLPTfm0Lrl9/ZzP/R97nD4sOdDBpVOhxsT06Bk0UDeGIwZk4jEoGT7eSY0z0lHg+ekAnHIRuISLdjnoeU7Ta78ap9h34ScqRRYnokTPmfQWx8pv9oGsB3gJFGAVHNcJvW1Qr7Qg0qoYybvZHiLdORL4KqwY3teBuE9gTLM9Le5+a4nC0lEskrc1pdhJRvfCRMM70TbVqaGSMhGyBJbx9TJ6RH1US9NF5RHYcmCA6jCqp3kwtAPEmEiROr7XBJufjdSDBBL9OMm+Cm7S7/XHi85+lXfX00pvucRr6ztMElATwS4neYIDEIfSeiIWzQaIydDadGpkuhfed3a1FMmQUiD1o2WMQG1XpDexUaJL5N6UEinFlUocehc+V6FzHqWWYopj9hEpFTFTjByQyy61jhCWYYnX0d44XaJDGzmhdKTlBG6uo8hoHbmj6bqFztFTuxYUA8h5aFxIbRVpSr64imTPoeUINdcRMwPmOJ2ylBnHeo4w5/tyQCn3eeXmHme/tc9vvnDIZ9/Y540Ptjl05VN5cqmdUQQv7E+oAHzY9mxE36uji2/2bWZPaj66tJONJIFJX83px2smu4wBSGCUOkE78bpdVNaer9lazPo5Yt6wpK6k9ZhY78kb1U5qLoJsu0PqRQDtJxVIktk6TQRWC8Wk5It5zOs27MWYbpSR0KtgIgVEArFXOEfkHCNngf/GFJFp+EyiiqoJ5DICOCQprt+fOkjAahCa+P1EPAXUoMaGRd34MBx1XDj9YHW4mOuu6Tl71omvrefUgEnVpFLSx/RIhyakbEhTWTABrBVUBoFDObCr9j4iYKXYXokggoKxwZmV7k0/eiRl/kgAZ02MJrEhEiFJ4MuYV2/pOkfC+nwY5nBzAs9NQgZcThFOmVBxwhKkCUbO8yoA6qwGIyGOs79xe5685pI2leZjkiZb27GEvSYdmrzGRYaXCXJ1Bx1fpZOgl9EEsozz4wzHPm/KG3yZ18herPmd3zzjE396xA+mOz82M/BfRns2gPvE1dVxTVkNogFVbLQXtK0zjErfpR15TdoPsu/bqHLTgV8/hCP1oyUM9ySl1vuVJITeJEdWFpykHXw9lrRvJ0lM/L660lfPoFNr18/TB7ikIvWN06ldAnCSm7B4hhmyWcBGhgwdUizBVGvgNieEY50hHBOIvecI5xiZtvYrLwNCSnIfF1JyQCxAKkSXhGJwOSLBFiOabEE1QoNPucmyAkaC5nkA96T6aLzfaGv/Uk8Xfme7MZQEaIW0HlXJkr2ts791KrbCSiLI5IAAsLRRkRIATAfZqmnB0yWuTCtAmnR4OFY7c4E0BbrhkO1BpGVoIA9PChgTyM6lRMOWCde3TNe9rrfH7xUGNnLkRoPJTzBygMgMLz6aDfJg/jmLhUVndZh74zysqyQ9xul8qda0/lY/BBIT5vTSoLYJtkZjkKMcnUwDodtkaBVre9gCNUOwwdmEVSSv8VzjFMs7/pQ/Hx3wpc9OuffSKc+9NuU93bzYp7/k9mwA9/lbF3dq1RgGpcFA3Eut04rIKTg6hthQNejShaSL61QQJUyGfmiVcCEsqs1ym4AkAVGayIkgmjh6K8cTSLNPS6uzIsHFmZMAKYFfPBfrPMD1uNN+S1EQCWRTy6LdKgXTDzJkYpGijlJZlM6YrQCcxHjTEMEQQrSEBYY5RioUA1qhUqMsES3xUiCtHW5AcC4MotqavKnRPscS1SVGHEqN2hE6GgIlnc6dPH4pzXYWrjEZ/vsthWFZ7X3fB2mBmBigtR9CGmhp7YHa+4zYz0gV0gxshg4L2iSjuWkBNoTbJWDsslqIjfQYG6kggHiPVuOY2MAi14bw3BgzmmHMCSnaXTURcxPFZt27ISS7ZrCNHmHlfYw8BipmGDwjvA7RJejJIqwRr2EubA86HmTfBnhZaqYnObKS6SU9rx26CCDHNNJHNuYBM8+qnlkkhA2qhAwtYjJEcpxZMNNdfqTv8YPn9/ilX5jyM9874X6zEcoL/hTbswHcq9ud8R0DXjpVU6NklcCqD35NBLdFEx7L9DdxeHpG3uRmTzaH1KLrvn0epbdOVe39jeXYgrgeQaQPJq2K+hSA6+cZSy2dYz31T1967CdDTBPOa7f7pvMl21PbJx+kARtytoldQFbFEKzzHsDNo5Q2wzCHqI4GSe6AUpaUNJQ0GDwNnqXMWWhDwxIkx3RiDAHcSjqQK4BBfD5CdYlvpb4KkSXKPC7ong2xXdwdwKk1IRphZRKFw0LcZVDLlFBspVWpW35flB7CxOg9b6IdUkAD8AWVegnYYLrNs2CCMAo22XbD+eWC80XRmB48RBUYYBBUdjeEEdjRGWbwHsY8xJoDhHkYI00bQ9Y7d//MllBJNItLP9jejOwjzPE6iDzEASxcSA45qwMYj3Oom3ANec82qBrWoTWQaRAULmtPImcnp0Xl0HmNnFXo/iyYHgZZuG9FXEN9oWGQwcjgrtxBOGNP3ufb197m819a8Nmv7PPoR2N+pNs0zxBq9aztmQDO3pzR7tZqw81zPd0+GbTTJqsGaoHGQq1oBVSKVorMm5gZwrdZKDQBoo83pb/7t54vaakFK+DWV1nblN504JOZrn6AED2SH/7aBV0FxDRxhA7I2lQv2qpepFjX1vCd7CQakk+2C62JY5uIuvNoSzuPgHaKae1r54gECQ5mGJlTMKPklCGOIZ5B9E7VCDM8Io5KG1L4j7S/a3FS4MnwlHjNgREqY7wuQBqMuiABaoMyB0qkBbi+KOvbc4J03LXeKIam0ZngggdUbZSsImitqHlpDng6Xl8VbXWC0kQV1QQVVYPErXbFU9Q7h7JSfb3tV7dhSQr4tyE8zQxm2Owx1rzOWN5iLIdkLKgYUOkghrtZDI4M179KGiwNZcyLm7d3JEjdyxhBMg6bzLwOdQzOqmD/2yiDFGy0Swjatysm50MqArQuPa3bAltnhQYprjLIrEZPFmFtVK7LiJyZlfRVFBYtLbo5QBjgNu5yNnqFH46+w+PPnXH3r5zxuf09OII9hhxr+VMBumcCuEx+SPBkBe8VhF1SW4NvE58LmmWAhYFBtYwM9AFQgrMw8+GGtskMu12lTW54aVpq6QiiKZV3ShK5rqImqSlWnuq8W9ru5hdbWmSrN6fjlK23qGqtqAYp5c1lLVxTCDROr9OO0Ae4WQdmSYKLr00Mrg9BLTOMLJjQcJWakXiK6Cc1BCgoUTJVZuJbFaKfeX+JoYrufEcZJDc2gArFxUeDp6YDtwRwfdtYalkcmRx60qK2z/uSjiGELUBH/+iPZZLk+s6HeTxeek6QIC2JxIXfnutik0sBricFiURStSLMseYR1rxBLt/kmnmHF2TKEM8xGSeatWcrgKH4tpyy0+QGspxqRsUo9ind8wKvY9BxCJOLYMPxMoQhLkfBGyp+Faz6IYReoZKLw3ZZS2tMiNzRTuvQxiOLOnIAbefgSynPUlr8jQXMx/gXtqgGr/KO/xbfffkhr/zNU37l+w+4/Y1z/sw/xzf1OqdPiVn9i2rPJsHJGyQJLkzWYHfQOLqB+R5DGCRvQVC1bFUeGKKmRMchmFqdgIuLxUfbW0vW7Nno+uE1Keg67TI2sf5d3HkVbN0tIhvtODYtxGT/6QNo/7MEcJ2E1QFWAiJ63+9HDIT3VtWgJOlo+15nZ+rsUMmOlYLn+wAXbGtniJyRMaegopCakoZMarZx7ODYENeSQQCWKpRYcgl3IJrjKVFM/E4VrXbBb+ZZUjPVENPqNToXtMHIMtrsLJ0ndl3dg6Sy9gEuxMFmvTENEpZgo1os0fwRN8h2xbYuv0hmXhA8ehWqac4Rz7UMx0hvPPXiyk/UE0gWBcvqhhSBU2oMJxi5TyY/5GPmPr8gh7wiC0bi2deMA7HU8SrCDA+kVYBGwnZ0qBmHYjnSOTMyKkIOtXMVPCXKEBgEe9jJEj2ahU17VgXysdVe5t9kHuqN+dPC5xJNpp8YofHh1i1jcek62sanVZciv3980pJKiwxz9HiBn05wfsLh8z/Lv87e4t6rFZ/5uwtuffOcX3rrEXe/fsbX92/ytm5FHtxfTnsmgBvJG4TJZ/GS4ROA9SaQRtkgeYaUDKSMfKtxkA7MEC3GaJGM2SWQgxaoA6018pOiobrpqYcGsD6ssVyRTONuk8AiSQfB+xcme+JSNW0vV710fQALC08jYF+UTjqKQmqSAtv761H6x1r6YNkdk7yZCRBNVN2iiso5VqZYZmRyjmVKxjmlLBkF0zQjQsTiFo4tHBtRRbJoMN2LcKZKgWGMCYwVYBgXohAgdYGJcqNjirAvFUttqMVTa4PKLN7DtTCiC2OUNggbjNNk0c6W974PfRCUeE6VGJwYIbovgQXQT2p5gGQRCZoBLoy3+nivK0LAuonnlN5vhrFPczZQYy5ZFtJE6TiQcQfyLi/JPl80U16plgyd56CwHNqMGqFQz9ApA++x0Q7rRDjPLPsm47FmPJCaA804x/CB5swYowzDXdQhnJ/A6RKOFjAsQk632kGu7UYewMeHaZOy6CTTiMRr7HNVUw0J6L6TCPJosI8vBBYu1HJItKh+65Wo1CKDwzmcLvDFNc6vvcJr4xe5c+uQ0d/w3Hy14ca3T3meU6qvGvZOhxzr4MIW+BfVngngbpk32zyjSwxV3B2bnkUnvfZiCeBlgyFWhkGC02EMLi5j4HfyQGUgg7AobND3IQNvY46s7vwIID7woiRKGC2oKV2Ike89p/e9TurqgO0yCS5JV13r1HDa73dAGB0kSOyLj99IEkI6lyOkD0/nT/3pjO8SwWwgS8Y4RtQMpWFCzRjHGE8hnnEEuDGebXEx2EpjbwIsnOI5xjKPg5j8o8H0rW0MRIVQCZxg2VHHqTh2dclpzBEX7mHRG5+0afTHUOmTcNE8gEwbnNxJtWEcy2ioL8JcaEFxEBXtBEoVImfBscIckUU8R3KSDFEmcS7l7dUJPcqIBkgXqZEW1GzrOV2/zyLTGG3wmKtyxj2peFmWXP+gxk5hfMdzc6uhQSidx5yCmUFbpa0Qqp2Gq6OGCTlGNfjKNOMAj2DxuonqDuoGMN1Dzyv0ZAlbVcgG4hI9x9CGlIl0pOWUabhOdt7e76eWJDLVnnM6SbhRQ1oG7eeysVipwVvY4HU9XeJHOe75TfY/9ipf4SFnpefez1TcutPw+Vfm/PJ/+QGv/+kVTpuyZ5n8i23PBHC/bR631qVlXBApYjFFoXglZhWzhGAMg4/MeafJ0Jq3k88gmPg/muOweCwOS01GjaWOdo60aMMyCv+6Z+lTbb8JipEg0SV1zLQ2HR9lzT6wpb8BpEx7vq5ZfLwm2u/bBFISFMCw/F17rMfEcxH74DC4eJXhHBku8oE9GY6SJUMWjKRhrJ7SK4UPEkJBeJ6pknvCX5RhHbO7ieJscKI0uTDNDSdimcYeJYAbRnhAFecE58L8n5WWAyxHWB6TcSg5lRbU7X3rDPgW116biYS4dLVOg+E/jLS9RIm3OLL23A5LRUalllryeP9NVDYdOQsGVJSyxNKEbUEyas1pyGlkEOedxVFECkeibyRpzoYIjaikd5JiAuUkmWqUEo8RZiieGuFMDdsjQ26VRS7UKhiBUpQ8Zd6NGK+Z4qwhyoKcYjlUyy6WMybUegOvt/DcQA8jXeNsGThwqQKVi9pKyvybImriXGvTqKdoILiosj4tZ+PKg1XpL7WaIAkmzT7TwII4q9DZDgu9wyN9Dm9mPBxNuTOqKQfKL/3GjC/+8ANmuznv6uZfCsg9E8D9R7OTKKtEJVCCbBTkDyFDaVSCZtmT7BIo1hpCwFMWH6NK7pVctX2vkRCo04gwE9M+5kbC70mUl0Rwcbyc9GCoN4YqkEdbRbJJZRJupCHIjtlT6nja/unSphyf1skkSJRN+iaRuExshGAfxyYxyDNSsFT4fQOU6nEIOUqhyqY6trxnpJ5CffCJrAugSqBjpTYlYXOgqZXAGOpN4cxazsXgJUyCgcZzeyVzmqK8QMFtCadiOTaGA8k4EssMw0ICbBu0vd6ccP/S9QoBcIPcLO3cCGDUN2XE3F9CuL9iWIoJtikM52qYEh5VkMMY49jGsymOPKrgFcJUTUztGTULhIYcpykkLZlTcrxmiDh8KyGGuxGSDiSpskCjp1lkgUjDAmFfLe9KweB6kJgPsdQqTHAURslL11kwSnBDYVoadjXjgea8pznvaMkjSqZ6jVqfx+nzuOYa+sEUPZiFamaLJtjflg58CJEL3MhEYO9Nt7YgjnZ2ufXYa/UX30utn8Tzx9nySCqxadVirS1erzPlNu/pCY/V8khqBmP42F+v+OV/8oi90yGHiwEzzSJ56S8O6J4J4Db+J9cqVGoFn4PmAUjURjNI/BWPtKYN9aANqJNAp1oCM5AZmGPFnIPMgTrEGmsOPhPcJjSbgtsIz/1GcMTqQNACfDTdkfdMNwmVojnHRLObgeDsjGK6aHCkyiWO2tRC3d04aSKwpFvTN9u0mm96TdScfTcRBVqOqTRgGkXq2L8KzELbc9klZCdKfqxks9gPAR0RQCs6qIEgqA7iD6QorBy0BCbhkW8rGzuO4cQHS4ADu1TsHMyZIjPgBOQ43AM2lI1Nx2DTs7PjqDcENxBczN0lDe1ubnwcxwakUWLxriAQxESiXnr3KI1fnDOuENwGuHHIAzbPDKdiOVLLMZZTLHMNEtWmeLZxbImjxAd3jBqmYlLqTypMoAyrZSnBMxzkPcNSLbUYHLCQsNgWallgmElOrZbEBwx/I2GZmjmGXXLe1RwDjPCcY8LGqTARZVx4TKOQgx+GaznCso/lERnvU/CYTeZ6nUafx+mLOO6huw59cIYezNtSjTqtOxU1FbRuHQ2B2KzJG1q7C9E+K015OucTnphgYOVzgTY5rILWHl0Ivt6hkY+jIqicsqczvmbe4c7tip3/wvGF//kxV/94wXcWV3mXTfZ1+BcGcs8EcCdf7jIGiCUMdB7Hxfb0+ywu6AR0HnwjOGdoGqFZGuq5YTmzLE8tOhWic6xz0GXABGRTKSaOfMOTTzzF0JOVHlt4skIxMaeUyRRjFGPDzTc25JvqEdbRRlopyGsEW7euhPa+70B9/LznLBQhODfaL7ICcKrSRkatnNtJWPhOcI2gdeiDr4VmKVFDEPxSqE8N9bHBzwU8WKsUQ0c+8GSZx2aKkSgxDXwwCAiYTLGZxxSKTIAN0KtQ3lTKHUXLCOoR1DgEOQK/LyxPLa4WzFCxG8powzO+7mEHGIeNBwMSEwfT2fShAl8JWod7neZBO19yBdsJmBgQowGcrxB+YwuqDWE2NJwNDNOxZTo0LIpwvlHjGS88o8qTO6UxQmOEZS5UVnA2SP61EepMqDKoMgnSoRpm0nmLzzEsoqR4juFYLXPJaMipKKPaXOK0BBy1ZuyT8w4FDSFVaIOwIYFYs4WjsZCXYVyqIgDvkWbsacYjzdnTMWd6owM3vYc/3UDvz+HhGezHAskxtlUXMdGl1a4oT7K7SSjfp5kGALyM05k255SS6mltPQpiHezanIbpL8FBMW3w8zEufxFlgNMptcx5z5d8deS59SXHq0czPjU5IH/bcW1/zuHpAL80+AXBBBUNOk1LVZJ10/eHbs8EcD/8Vzvt8+grxRJSntDzIIoQLS5CTbBB1GqZacY5Oeeac6IhxcqBDkOQbrqgmk5MOoH8oeOqzNmQmm1ZsiVLxtSMpGEkDSWOAkchngJHLj4qJOHRb33iYY3Bq2lVyMuaQ2jUoBc+16DqPqF5ldZWuEpZNdHOa1hEqaLBUGuQLjT2scJyqgUnPhTaBRjSsBOvfxIdDnm8xonUDCSQTAc4BjSUxiMjhU2QG6A3gW1gGCXOGXAEcgB8AG7XcOIK5poxEEcpDRPTUGw52ABGBGk5GGBbUGuTmFTgnFBruKb+6AR/qe89j3NHQAowO4peBa7C4KZS3HJs33L4F2r0Fui1sKDkTJEPQA6BOcSgCzT2T2O2Jy0l9HkSNIK5CWaOKcJMA+fvBMs0/j3DsC+WU7WcYzlhzjGGUy3xMiEQQEoOKMjVM8OQFNxrCJvimatQiyErPOphLsHmFiS4jMdknOo2jb+L03s0+jGcvoj/oELfPkYfnqG7U5hWkZMWo33QQBMZZF00gze09o4UMH/ZFE5E+RQB8ZO0y8K+UqKCFCbZKHqyQM+2cRsvomwBDaIVXq7wNWr8lTn6n3q+9Nem/PyXd/n5r+7BG8A+1LuGY0pOtWBOxjkFZ5qzIPvpANxX6tvt83Dpia3UQYDZGpG99Bz25hZmNIBJkPrcrKKZ1Sx3T5m+fcB0b8YCy4LsIsD0Ls6pcMCQU0r2ZRhALFIcsujGsNF60koxhLxS2YqTIAFO6G0TqSAX3Qir3fCXBTXzdGm+tdeunTuNUvDt9t0d0hpgk0ukxlCpbfPVZ3h2ZRT58AHYLJ4hDRMqNqWmxDGSmjENA2kYTB1l3TCcNQweOwZlgy1D5/xSWCwzZouM81nOQTXgsR9xSkmOC+eVmtFxQzl1QQITQIXGC40zeC84F547b1j6oA72eU8uOl0k3qMEcMGU78lqZdQ0DM4aBo8aRm81bIwrNkcVxU0HLwLPBbWPM+ARyCMCqAbDXJBSh/F1AQw0SJybAfzM0FOOlMkEmoHgB8JyLNQTYT42HGLZU8uRZBxjOVDLnmR8AOxpxpIMpWShW+yScc6CLHqyHXCdhrkE218uQm1CtYwzDZLhrmYc6Qa13sLpCwHY6tv4RzX84ADeOkQfnKIHs0ATMRKzkyQVlS7LSW7AdQAnXoMpIKUW64dmPQ3U+kVq+sTh/ueXnEdaW54ESfKsQh9OGS8y7s49V2cNQ6eM5Dam+G3s4Av8afGQ7+dvcPPfeoNbn9pl+9QxWnhGc8VSc00b1An1zFDPDK4y8N88uetPa88mwenOEz/b+sQNrv/8Xcrr4xW7d9tiogH78dts/jIMjhccfPMB89ceXe65ic0jzBLF4MOgemv8dp13s20dkLi47D6yLeAj7jDP1NZ+06AMaRhSs0HNiIYNKjaoGGrDpK4Z1zXb0yWbUoFAYR2iUDvLKQXHWrDHiPd1wn3d4JQCi1LSMNaGybJitGxacArUE8sSQ4PFabB7JcmzoisoAgHIU+eTEyKp1gYlazzjpmYyq9mg4goLbsicmzJja7KkuOvIr3sYgp6B2zc0uwZtgmZmRhok1VifRXJFBmBKRTZAt8FsKvkVZXg1vGYCeh24FhwfVwrLlcyyj+OQjAkZBUqFcKIVSxTVITVDTqXkTIOiO5ElBcodambR9pchVBK8pmeYCJgZ57pBozfw3ML527jpJvrguJXeOJiFugmLBnKLVk3IwOOCR0xKi+Ypgidy4awJ6msWieQpa02aJ0+rYZzUTI3PL8tS3P9u+pvy6kVwfHG54NMPdtnZTTc8eeMsUm4g04w62+BYbtPIX2FvfIJ9+fuMbr/OtlmyQcNIG/KmQc4VOWswC346AHdZG93e4vavvkR5fQxAfV4xffeI07f2aeY1bhas0XaQk41zxne32XzpGsX2gFu/9hJXP3eHD/7kLc7eOvj/tF9NJBL0b9ll0tT/n5tHmJOxxHKqJRMq5mpZimVIw4KMORlOOtVx6IJMuMRyogXHOmCXEY90wvu6QY1pJa4Cx0SDZJgksCaq1wuyVgpOkurlUmvX+h5pad+LZA11jKm5JnMOmHGkJben59x4e86VB0tkrPhT4czlnNQlXoVMPOXckR95rCgi0Q9qlNK4AH7btOpv+9gAeQ70ALK5snPTUV6N/lZVVEIEyF6UlFUtIa37gMR59Cw455hHLDgg4yx6mpPX+EyDigLz8pEAACAASURBVHqM4ZScijHKFl538PUGurdEH58Hz2kCNuhx1uiy+BrbFcSGCGLSOQ9SbrvGPdlbut7aGxCBLqWSf9ohvXKZNzYsX7idsz1okIUyWwiPFsp7hzXL2rMY5MhzQwZ3dhjfvc1tv8cLh6dMZtvIG7dYPPhl3n7xhxxfexdDhZEZMq4phjWlKvDeh7uOtfZMAPc8Z+0klkHO5PP3GH/uHpJbqncesfzBQ+Y/eIwhmHsg0WwN1alliWX37QM++JdvsfXKdbY/cYPJx65w9zc+ycE373Pw5w9wi+YpPVhtNi7CpLK1D9EeC+9iLEKS2tYXY7+FaIx0bCfptXw66UKdQtSD9o4NzoKV1z0VFIgh4t2j7z5PxtbVa/VsULMhFWNqBtH2mOEZSLC7DcuG4aihHDny0genROnDe0NHOWzI85Cs0jYeO/cMzxsmJxU3dme8sn/E0tv2OgvjKQYOa33LX/ZOaGpDUxucT32XyOyL16GrkvH62PWfWwn3cCgNg7xhNGkYb9VMdmo2t5cU2w7d1OBBnkFx5picV6gXrFVs7slyRUwYYYmOJs2CJ5MtAqhtQzMRFmOhLoTFhrAYGRbbhnkpnKhlX7OormZ8QM5D3WCm14LUpbcIBr/gWQnZRArOOOV9qbmtOSXKhoTwpzMs5xruaYmn4JxGdjHyEGtzZHuIf3mM5nfQj+3A6RI9mqOPzuFoHqSxMouOqFHIKtIvPJPCGFPRmSZKe/0JvZ5SKQHZpRPeXbS5hRtEh4aOorR86lrOp24V2Ex5eO55u4Z3lwSnyOky9GWQI2I4LwccPLfFgxe2+Ma993nxYI97B8pzh9d48fVN3rxzlzfvPKLKzjBSYbOKHMdPBeA+PQ78a6+Cfulz+M/cBRzZa69T/Nlr4BxuvLqwa7UsNGPqM85cwdTnNN7gf3ifox89xP3iPa588ePc/MILjLaHPPi/v4+oX7HbBHuNdvJC3HRy4xiZmqFpomHcURoXDO7i22IWTW+xobRqqvZU1vXmVaJDIEgoLgKWjeJHJkFqSGBmek6HAIx9NS1aKXu/vdToZNDwqLxp6chLnzH3PUOrQGEbbmQznstnXMvmbNiasa0ZSMNGVrNpK4oth9sR/DboJKhjfkPwO/H5Zlz0FszSMT6u2diHWw+U7Idg31TmdQC4TJQ88+gWXdipIZRdXQRaj2/AaYhoqdVSqWHpMxoNQJf630ROWQpCFzRuEJCLZ2RqJrYmm3j8dXC3Bfc8uLuCuwsnN23w/lZgdj3DvQpcpCiV4EZ0MzsE0KCFoEODHwPb4CewjBSUKQHQTrAcq+WEnAOfcUjOqWackHGoBTO9itPn8dzB6fVwYhwp6Sias5BD7uuUa4Tg/ys0ZCjLyOEzKBtSs8ERDe+CKZBigb9xB3f9Lv6F63DehByJJxX61jn+jRN4fA7jPNAw5iU6X/TqPrgQrVA5tHIB5CoXd+MewlVrAGcInLlL2xOkt0QsJnj/f+7ekFduhAzKr+9WfPNEcYm+khJlNBEsZ3UIO9ud4q9dB3ODd64WvHf1iE8+aPjM/YJX7n+M8fw5/vUrj/FS0eiSSmrgj57Qz6e3ZwK4f/sLD1An7N15lQefuI0w54XX/4grzQ+Qz8dB6B+ggq/AzwU3M7hzoTkxLBc25GbXgpN/85Czvffht77I8OUdJme3mX/l+7E8ccOG1EyoWs/hkABmWeaRCdihxwwUM1JMqeF5oZigb8TU2v0+hRt1oa9rTQGaKIk1nZlQJIyi5J2Sq6xOD107eftN153HJ5pIDVoLfi7tcX4h+HMJ1BkHDEB2gnexuOMornnstsduKmas2CuK2fLUW8JJbllkwsIKi9ywsIZFLiwywzwLdAoBMq+MGmVSO7YWjqszx9XzhmwWZdYc6lJo8o5QjQTeW+4U22iMOFPy2pEtPOVSGC9qtIrX2YSDOpzWbgwTZSQP1yBbnmpTmA8MJ6XheGA5HliOSsu8NDQGMg8btz3jKkjnjUhLFfG9PjoTbGuNhaU11FmIyZ2pYaqWpQrHEYDOyVjqiIoJlY5oGFDpkJoJtV7B63N4vYpnm5AkNETuip6BZIg/4czMeTNano8xjKPcv4zS+SaeW7JA+IAjPHCK5wBhDx1tQOkRX+OvjnHXb6ObY3h9LxB9z5fo3jSosAngYj1UbQEvSnMeVqrcrasuwuX54YC2zsZ6S6nLEF65N+KV6wWqytfemPLmiUeGWcxMEs+9bEIxeCTktTuL/X+/QG8NcVc38OzwndsLDsZTvvTDKbf3h3y62OLb95YgNaLr2V4+fHsmgDP/YcVUb/Go/CKC597yn3PlS6+vrO5gPI5NIa8Vs4jk1amSTxW3MMybjOki53yRM10cc/zwmMPP/Tpbv36LjZtvM959i8HAMcprRoOGUVlTFo7ChEAcycLO7QaCK8APwOeCL8Pf2kZiqYDta71KqH9JP8fHujrZI+uqdklge6Po7Xpqww/R4gGG0CfTKDSB7JsttetfBdlMMUtCXHUhYfFfE05vGJY7QjWx1BOhGQjVlrCcCIuh4ZSSCstSc5YED2BFxlLT8whweAbUjCQ4JbZlzo4uyBdhQrssgFuDWVknwTYXo0+8RtIymKVi63CfTROiNsyTrA0SSL5KoHHUI6GZCMuBMDWWU0rOtOSUAac6iERdS4ZjNK4ZSlDgXYyMCR7p7m721ebg9Age6aWzLMlpsMFWSU5FgdOYBIJQHxYd4pkEm5nbQpthiBUVCQkezBITizXDOQudscccwylnLNnGkUcJNUPZDIFjFHLCAMcpC+YcspBH+HyCzWtyaVjoBvXYoc1L+OUO+uA0OB4en3eEXhckOK1cVFFj9p1UfLqfbRo6LtyPsa+thHr1izrFOXtju+ALHx+DV772o3Pe3K9CWiWiyizCXX/AyTLjtCnCGjozoQ7r3jQW7d5Eq0AWFGt5aAb8y7tDfu2dE16+r+yXV3n/WhZ20Y/Yns2L+p+VHH7jr1KfZ4zvvMbRS2+zx2qmgLB4tH2eE2InNx96bv3jBlmA+aJn8nMVk/0lNw8iF+t0l/eX8Jb+CsXdV/hi9lXMVQeboFcEroKOoSqFaSRrpvCcWlOxPNOr695JDnmvh4mmEEKdlRSOn1oKRUuZNlZzpXQtFuf7SOOY+pNCyUNsaHdTLcpQtP3eTIM3blcDn+qIjGO1MZTJcqLBmH3iM5xOwhl1SJuhNwazh+QGMUhe6pj6fB5zyx1h5YxRGUajQqi94HWVQSoomQSqihWwuZLnSj6Msa0S41vXxn29JWN8oykRuwk5il1GwxhlE68bKJugIaogBMCHYPuu9eNJlS6dVQr2D4SiVE2MdkyyOEYjVAfx85AEIuRpG6AM0aqEeQQRK6FGQtkAQ4SckH9lwTlzlnhmKOc4xjgmhMiLTXFcpeGKGjbF85g5+/KYYx3SSM5ApoxxHGmBUOFvP4+ebYewreM5+sE5MinaClmt5JZUwsp1QLYuoVUxy8163ZD11t+ts4vS3BdemSCqvP7+nDffm7Wp4DWWH/yN4ff5e8N/Tp0b/rvjX+cr85fCgTEZrVoJEun+DDaKUEynsDzMt/nGJOfzRyd87m3hvY17uJ+Us9fv+kc+Evjye/8+N89e5HxnjwfPz3Du03HnXB3UrnuKoeHewyn/yT9+yG4dJuEbh0P+IN+EK45s4sieU2ytZPUuk4e7ZLO7/NmNX+X01nepM4uWRcxoYPDOdAHVKtHMHlwK3WO1R2ZN1mq942jPyhc+Sa6DjkRyGc03kB4u7jPSO1f/gORXj/2J8WEmWgFDhFnXR2mvKLxqKKl0wJwhc91gyZClltQxOXmlo8C+p8Q3A6hBlxqKmDSECA4vqDORSmCCmp0pknkoQQYek1csYj88fWJHv3lMG2Dv4xUHF0MmTZCu0d7YXS7nhjE0eCxNCpYnp6HAM4QqQ2uLLiWaGMJdkwFtfr/ubvYM4Sa+55U2p1zKLu0Umkh4SePSGLSWqOYZcB7VClyN+lkYw0R9GMRKZ5sZfqtENq7HLbaJqRIKjnlIJcdsaYWRJqaw8lyTQFu6juOO1CEUTYLP+rosuULDITlf4Xu8az+Lu/55ZJSj75+EwbKGlZqotetKAqbyAGvVzbRf72StjKf0JbrLgvNTywyvvjhmZ5Lx4PGCb79+kgiitPVenXIn3wOv5NLw93f+Gf9gz/OV6c/EPSdKmifLUF1skIXNInqG3ywtN8VxW5e88pU3+d7wkup9H7I9E8DNHvw8hy7nzzZr3l/8YnhTDW1W1dTaAVM++egx//n/9ccs6hELlONhwX/7+S/ysBqANGRl8PSlzHLb44xffH2H5fmv8vuDTZYY1BUws8TCmeEyJAKTj6nTo2zWTfSeuE3zhGwK6ZFc89H93raY/qd/bHvz7SX8PQl1RNPbifGbFlqrLnR2EhHX6cPtMEaI9hoCOV2OuhJtSrQZ430JrkCbHHU5Wg/C3yaHpQ075awOdpr1co1pYuY2lCjMTZh0ozwYufrqgdiLdhnR0GeUVE5LCMeJaaJeT/fZU9QNjQGpqhn4DHwenmseAHrZwLxZzew8zC9KGH1HX59m0apZvqNd1DEXTe3C87rugCJ5JD2h4ls8txgJRNtxjmwN0CtDqCeoDJDRjQi4wY0yw1OjqJwyUo8XmOC5Rc2meG7ScIrlTAwnLBmg3F7U7MwdpwPLYfk+D8wbNBufwo/yQCGZ1rA96DkZ4nWkKnWpLkq/xqvG108a+14d2xWwW7/fXnnxuQGo8ta751SzpuPf+WiUbTz/Z/1J/mrxA3bsHIvn71/9A/7BrucrJy+F+zit0WEvGkMIkp0Ii8LynaHh1k3DJ3XJd/ePntjvH9c+MsDdu3ePjeO7fDAq+KH7LOzFD/o1L2FFHP6NH/0Rf+u1r5IvNvDAd26+wv/62b/OG/oyHKTdppMRBHgEPCfHXD+rKV//DIcDG0AnFtZtvxlvkF4QEOLZUlhJEs3Xa5dCOyk0udMTAKy3/rFp0iR7x/pv94vlOI1GWumOVQ3nS+dJhWdWCoTEflQOKh/c79M4Sc4bWHqYzdHpWZj85zXMGvS8Rqd1V72scatgm1rKHJGbIM3lIfRG0rX2J/m6apNIoVZC1tnU3zLrsiwLnfftaapRWyNXo+E8Gs99GCtd9lSvhFhCtIX12PWpihmsZsa4rCZBv4J96kMquN0mVlUQEySNVCN1UoTHtXGwi1UO6gnu7jY6SpmLBaGmAc5RTqTCI4xQbtBwUxsqCbGxcwzn0QFx7bAhf19xt+DRCwX/Qt7GmEMot2P6pAae34y2Nu05G1yYX1GC076DIVa6e2Lrx073pfTM9FUw7lwv2dnIefx4wbvvT+OxPhYql3bMd82I//7Br/C7V/+cTw73sCh/d+erjPdm/NO9T0C+7MjF7Y2Tdo48Fnj8c9vc3M649fY5D57c86e2jwxwt2/fRpfCbl7gdyO50Cu4OJHSBBPACL/5/h/xt370ZXaqM0B47eon+Ecv/A7f4WXYhbb48yXt8XLItcpzbR8elGWIzVNWgaZNYviEmxjrMGjqW7/EIPR2daHLu+QviPL9cwFdeiIFraOX1gTVL9WHJXLJwvn60h9R3YhqV7+8YGa6HEwQJm6K9ZwJzEDnwFQDqM0bNBUpmTfo+TIUK5nXndTzpGpL/RQ5aWyyyExbH6cUk9iXiNtCP9LdhyJKyWms0t8+8CTVJgFjmgNOVykGTjsjer+mar/8Xa9fGuccsFqI6GmG9bQRJdBLxZFbMq2J9IsmSMZOEedD1lsbflNE0NyiV3Lcxs0Y8K6EbCQjjpjwA3ZRDpki3KChVmGhJuYnNkzw3JnUbN9xzCaG7/ohjrt4tx0oFglM5zVaRc9pW8lOextY70Ecj8vm8npLAfRtRmBWcPH6lRKA3f3FKl5q74seEOUbZ7fBeX73xrf45HCPa9mMv339W6jCPzv75Cq4pSbEFOrC7v6Cmxtjrj9DKYePDHDb29tQOfbPHcxmYXL3iYUJfET4zcd/wt++/0/Yqc9A4LWtl/lHN/49vuPuwt6008ufcAPeqxpedY5byznfOiPs5kJXNEba/57cWv6OrFbYgjAxUtZT77vnl/UpSSOtFOa6c9QeFekqn68beNdrvq5/1r+ezK5KhL636Ocxs8TSRQCr0UWP/5RUrLRg3VN+N/Vd46Q2GjXiuMhjaFDbEgWgv6EIYBT1PfUmzQXxcWeOqmoa29x0fUvX3UpwPdXLEySRdD7vIzl1rW/9fiXgJPlQU+jSk4cAenMgvU59ArC+ux/WEHJCESSRtLnHsCV1E9RMoFQoBDXBSXKim8yl4NRY9phxhTrWvUhpnAwDPM9P5tzcWHJCxtfddRr/Mm62ie4dBICDLgFm3+b2tGaFC+bPy5ZMK+kqK97T2DY3AmTsH14agHlh+L5xfgegBbnr2ZTfvf4t1Fr+4OTly4+LBXDeezznsy+OuLWdX/zeh2zPBnC142xeoVp3O15qcQG84Hb5O+/8HgNfocBRtsE/3Pod7i9uwGLaqYFPATjnGhg10Ah6Mm1/p02n3MbOPaX11Zi2gnzvGO1N6ARMl/VpPU9W2jXbSSad2a4/Hkn1etIqixpX7FhUW9cAbhnpALFYNpULKui86amhHl02q6rLh2kx5U5IiW27vuY9VTltCn3wTrGIccfXyJMSIdhkEuh439EI0tim1u9jAjEXHpoY+slorkQg0u7Yy/qV+haliWDTfPoc0SeMlaRrjJJFysqh8TOFVRU32jz9lQy9fgdTbmNkByNXUa6w7+8zlT1yzqNzyuJj2gRDxVuyR6GnNJTs6Wdw9Uvo+3P44DzY4Aq7muH3x4HbpRfFE4LvexLrJcO1MQ6QMV0v4N1vXglJH0O/vnF+h916wn/94u+zk825nk/5eze/wn495puz2xePj/dRXeifuYyP9yHbRwa40WgElWN5vLhIIOy1357+MYMqufGF/+rK73L/bAwn5+GtBG6+JzmsgcBSgZswdAoHlwxsX/XpM3DXB6avSsHlYSp9CS6J/evnuMyP2mgn1vfVG+1d108yEe2aSuG1Y6nX/v9l711+pVuu+7Dfqv3o7nPO97rffZD6SF1JJiWREklRMiI5jiVDAhwgCOBZnHiYZJ5/IIMMM87QoySw6CRGYMAZJDMZAozECQmQJkVKIsWHSF7yvj7e73XO6d67amWw1qpau3p3n+flvSR7Aef0a3f13rWrfvVbzxKAW8eyebYPEbDPR76YvblLkOOogB2gq6ldCwpTsq5T/wfIGJIcy2OSDVw820u8PzfSdnpKLLa3zOa49F/eIMV9x87LLsRUVIZ4R5FAbGEj+/rAfc7I95ATJPYxpemxGj9Jxq5VteZnG9B75+CXj8AvjsF3OnD/AOnoCGn1ELH5JZzRWyA8hxU8ZN1kCbTGe3gbgZ6CuceQfgfx7RPwd56A33wuwAY4gDOCsM1QKZD0ocmEBMzMD0w/npPVUiDjfHOFvgTwg/U9/Lff/Uf4Hz7xr6VgPSX8pw++UQCuLqPOjPNzWdCWc/byS8qNvKi8ieDHm2knVvIX6TX8J2ZAJ+C/eutf47/r/gnOov50bXubUeO4IfD9HjyyVDmdE7MdWFu7bC6ZvWHe4O0Z3FVliMUmZZM5Vdd3XcmTSCY8e0DbFIAT9pYym9urFs/9RmBRZQJP+7N3dkRvgzMAtxrzgIBjEuuTbN9oaivKXjNeVCOyvmLPnP0CmH+/2Z6Avo9NzcqLZQA3V7wHGUxJDfbSL5SURSZk7zcPSRaZdRR76EJiu/D4VOK87i8R7y5AL7+C+PIjhMXHQfREY/gIEoHegrkD0Ub2faBTgFvE8VeRvjsC33pcAK4NZQ/hlJz9cGYx9r6Fyybevw/SgPFPX/0ymrwQAn919ko5ICYpIuDF7w9xTbk2wJ2enuKlIWL57Azn57tP4M/xK/hY+/v4L9r/GwDw6fF7+G9e/Cv88/M/wPf5pW01cGZCLo4aYGhx/nxUgNMVy9+w2iBq8U91ob7edaIDQDIWmHinqnKhZAan52FM7vr3Z9r2WFjCJERgFMbG9ft71P6dYkZ8r057j66pgt7YbyqJAYuxiibo4jdlohMhxzSMNfnzrtVTxhTM7Ny8umWqagbhBOyo47dTjI1WY4El8ju/T0ME2gHoAviFRvP3jXha33wuu9Ef98BxDz7pQfd6xDsBtGRZYJlVJd8A41pS1o6PQP0KjAB+9yn4q++B/+Yx8M4p+NlaPO3ZBseXX8BuQc7OR6xWDZZ9wPn6crk7H1s8wT995cv4+3e/l9/7F2/9Dv7lTz47PdDfVyIsF3JPz9fXJwjXBrinT58Cm4ijFxu892RATuz1hfNU/gV9BnS8xn9+8kUAwN/HXyKOA/70ye/hh5t7Sq9thWZnMNYGjhpgs5Ib+s6Lstr7zZ93jd/aZuYngnufScIcpLT4LTAu7Dmn64i3U25imcSmnkwY3RWMz7XYium7wMWATfbStOvb0trd8RcBC5F4tv3g9qzewDJ7pKvr8arrpF1hbvl8rgpwWWb6L7F4uJmB81BUYhtbbQDrxshYtBKlv2ilhpvFGFqxysxc9ZoDgY57+S4gFXK/+x7wg6eAVvjFcT+1waWZ0zRP8C3Li9OIl14iHK0avPfs4hxRA7c/vPfd/N7/8vZn8YW3PydaQmbamN7DCkOuK9cGuMePHwPriJcp4YfvnpXJZEGXzkDOAL5AnwK9ssY/efgVAMAf9t9Eakb86dPP4Y2z4ynTGNJk04zXX7kLrCN+8J2nUsa5Fj+4KqF9m2f0U0p8q+ug7TZ0W5LSNIwCDB65gPGgaqmprMbgriO1GjimvHtTZkbExVbZOLW8HqSXmWTGePPv8zbgsXvu76cxrJp1N3qOJrfJcmxoj1KOXJ5XOZ9jmoYTNQRu/SYUbgHM3+Pyvo3NNogT6eladtayKh2nQwH/GTWOI7u4xNuT954O+DgkXOSNt873HjsHbv/ru5/DF975nJyuqaVz45QZr7+6BBj44Zun1z7fawPcG2+8ATDj1Tut2B/M3jGm4jVzkhj4wt/+NmiM+M9e/SrAwD+8/23EkfGn3/8M3hw0HSPv6QjYCHj1QQ8kxttvnM4E06IY82eE7XwAHfTuw8ig9vYHgQhJaIHFFHlblIVgEAqw+8E4URPtQqRfWL2LE4eM9Vmtnt5EahY7id+r+pEDZj1NRLJKX1Xm7LI+It88p7skO5hug4nvkWQgz9NztoXAAz5Bvcj72jO1msqi3ZC0dT7ouHH32X7Td7GLh+P6s1uQt99dAwBefbjYe9wcuP1vb38WX3j8eSTZpOVCefWhBMC9/ZMPoJrI9773PTx/NuC1Bx0+cr/Fj+fQXBcks62MkfE//+1nsYhr/OPX/goA8CcPv43HZwv8j99Tfbyywd2/3+OVl5cYh4Qf/+D5vE0p7JhgtXS1cdqrMe+DJB2sFrvlA1TNUK+pQrDV3SZHS1vhE9mr6I3udrzZqa7qWNh57tX3J+EXPh1PgXxX1OZ1uneOwXnvuh8DZuec7AAFTFPdUD7PY/KWZn5yLHpiaknTR1vo9omxU7sUG6/e8cVc4hxrld1e21vvg23uhz8+w/MXA157eYGPvLLEj9+eZ3F/dO87E3D7l29/Bl9453OIcxklM3L/TotXHywwjowfv7O+9vnerJrIt57hdz/7AJ/6lRO8+845NnVBvSFN05DUFPLPvv15IDH+8Uf/GmDg1e75VNXQG9MvGvzu5x4igPHlL7+LuMuo6djeXqltdaRbBb5vQmUyEcseoU2QWDEbe6z/YjVQI6aTMKGA2yQOzE1+v7LftviJ6tXTQOI1nQMMouuRqBrgTJ2ZyfVFp0zXM/HZ8B41VcRU2PFtgBxj24acg4T9NfDF96UGrMRVyp6+tx5lTtVmmXQLC9sl5Jvfe4HPf/o+PvV3TvD4yQabYfs3F66m2L99+jr++VufR2xmcplnpO8DPv+b90AEfPVbzxBvcE03Ariv/8VjfPL1Ezx6dYlf/9gRvvaNJ9MDfIxOJf/sW5/HN588wCeP38X/8f1PlAljj8x49JEVHj06wuY84ptffyKfmUHXtxkSLkUVQsU0iKcDwgPgrRhoees522TY6hI/sNP2Ndokz0ZlrozvXmV5HwZ5BmSe2rbYf1iJZTFcVea8v9Znk3gpLmx2H3gEIMfpRR0rY9p52lcWD151LN3kuMu0NdPunGPF8mXtuITdi0ndNze0zX39W8/wydeP8ei1FT75+jH+4tvbdvF/9e5vISLg3eEI/+fj35ASZBf9rN7XR68s8OjVJYYh4pt/++JGc/FmcXDrhC998S38wz/6KD73Ww/w+K1zvPFGZRDcw5D+7Icfw5+Nj/SVo/SB8OBejz/4D18DmPGVL72DzelQOqhe1S57wy5iehaxznAOAt7/nS25yvEzIz6rqI75mviJPwEBLhP2NmLuLpIJu9pzrZd1Msy1v2vVTpUDxPfHTrGbqoDBadt2dVNJt9yeydx1aSgTWQDsPoCvxwRBDPs3wDhm4Etfe4I/+v2X8Tufuo+fnEa88fZUjfzJuML/9ObvXr5RAtAEPDhp8Pu/Lbv1feWbz7EZ0qVU2l1ys121YsL3v/scX33wGJ/5zAP80T94Df/mz36EH/1oj9fD1AcLIt1a5RgP7i3wJ//xx9C2hO986yn+8iu6w5YBG+Hyk8zLWHnWtq4HxQ5mNcYsHOUynWwr7kUF+qJjaHOn4+O+THwy+JaNKk1tLz9Nmcu59XKdwemvvQa6y4L4pORPKmPE+skWhK0YP21/TlPYJz/Nvreg7765eHGv+8qu7wZFJAHg+z8+w1f/6ik+8xt38Ye/+xD/5kvv3shWBgAP7rT44997IPP+jTP85Xee36g94KYAp5H7X/ni27h/p8PHXz/BH//xR/Gl//dt/OU33pNjtgaouolDAAAAIABJREFU0mma+QzAr37iLv7gH3wEbRvw1o/O8P/8+Y9KaIKpZD64sbZb7JN6c9t94mNzrELKvng7u7bxEudiIL0LlOauxwNcHY7xfrGHy8g+FTUm7Mz/9PFPW226ezunbl9GBffWiFifozMTeHtdHlNc2ng/1P2biqayZe/8vlPc1X/mybdiCb54AuPisQ7g3//VEzy41+Fjv3SEP/kPXsaXvvHkYlAychPcggPgVx+t8PufeQltA7z9eIN/9xdP9jRyeSHm691BIsJHTv7rfKJ9Q/j077yET/3WA7RtwA9/eIpvf/MpvvuXlytW9yufuIdf++RdPHr9BOOY8I1//xhf/8pjbNaaf7mrjpgN0MvEnJlXyla/q0pdG60WYwYX5c5d5OXclch8W2lfHwZpG4kdO8jVpWuAl1bAgyWonY8jY6s1WO/JYGIphUYejNGZ6WNP/Ci5udMvAj71ybv49K+doGkCfvjWOb79w1N8742ZlMo2IGcgaUWf11/q8GsfWeLRq0vExPj6d1/gG3/zHBuvpQTCj7743+M6UHVDFbUwic3A+PIX38F775zj7/691/Do48d49PFj/MZv3sUbf/sC3//uM6zPI85OxSi3WDZYHbX4yKMj/PKv3sErHz2WXejOI77ypXdELZ1U46jCFMxDdVUTGbCbnvtVa/bmXvBDhMvbAy0w9kNIEH4qcivZIr+gkh1M2L9Q7rMz1tkq15TNJuErf/0M7z0f8Xc/fQ+PXhWw+s3X13jj7TW+/+YZ1hvGmUZALPog8/6VBT7+yhKvPugkwGCI+Mq3X+Avv/tiO5j7BnIzBrf8L6dvammdJhA+/Xuv4FO//QCL/gI2o78+joy//tpjfPX/ewsbi9CfXXkANNWqpQbKHSc6Pb9dnwElGJcxBSrK/25BuKyatQ0uV5dN09cmP08M7iDXlyZIyfKXVqUmYiVsu2tdZnrfgMHlsktEMu9/7QS/+avHWMxpSGbfds2OEfjr7z7H1771DBv1A2UT0gfO4HZIjIyvfvldfO0r7+Ijryzx8V+5g5dfW2F11OJI60mdnY44P4t49+0z/OC7z/HG958j+t2A9okHtIuqDdTJ9l7qwbELw8IF1WCvIjGVWls127MsjVzb7BeV3h3kQskOrQ/6PJDjEGNifPVbz/C1v3mG1x4u8MuvLfHwfo/VosHRSlL9ztYR5wPj8dMBP3hrjTfeWSOuNdTCABCYOnc+qDi4LakYCTPwox+d4kc/mMkfvanQ1pOpZKeAUzvrWm6X9SQF7AfKfVInggfXTs1SLQDVGGNtiDdj8IfR8H2Qn57Y4hcTkFwV6Ln6hz+NRdKXltKXP35nXbyqPjURwGRLg0k7t39qtwtwc0jbBCBZWe9b+A2jsTkgF/PAU6eEEKZVSs3Iuk/8x9aevXfZa6k9cbYXAaChC25RsL6y62tqgNM4vfcjU+EgP1uiaXlbu33pcwBlvF5luFzm2Nru7dXKOZnLxQ57jOf20XXs65X8dAiuxRfti5eqQx/2SUpXr9TRhGlnXZRkX5dBzwn72s6eLdgmQrTNFEfz/Cqj9G3ZfpcHOcg+sfhDy2hglHLx1y0gMZfiNvfTPsj4IrHMnciS0peLnxpTqRtHyeRJuHHWxU8H4C6j2l1F7bqqiubVQr8b1D672pyKa98zdnXp03ANsI9dohJIfNEqeJCDmNhYyRVvp2qFlHC6BsvfgTnbx13iIIun82mJNr6pamNSMIBLdMHPDIO7dbniVfsySZOdqy6xCu3KYrhurbcxaakYbXOIpa1NFbM0N44O9reDzBX49PJhMGFYcQgvcYdqOqex2Di/oQ3xZgBnaHzZooZzgGKqqWdZl2lr7lzqyr2TvTvDNshttUvTTAd/Tg3JJipOeEzZTc+anUAhlI2j/TXmL7nneZeoKu0K2M7Q8CvbQQ5yEchdJITdqWhXmYu+ra02wtT0dF1H3Q3k5gDnH/cdUz83+ppFP9u3h4F5Fed+z2xmXhX16VXepubPe8vDien3AYBIDLhbcXO03QcBmOw/uQVU7hrrctuTul+YroBXsVEe5OdfGDcM1NWxyyjj2uaJnwdzsjX/ZrQcT3yY54/x7b1PY/t2AG7vL+xgS7lyb3Xh+/YRaALAcXebc+5nr2LWK4j3Us4BoArtWHl8kGV+Xp/73ErrS+B4Cl7vY3pwNhzk/RSiqbPtksUodwUXz0ogyUfexwp9pMUty81tcFels/l7+V+Ri1RVwv6MBc+mrI3WeW7qfRL86x1qL9X7q/pYuouyCmpw84Zh/7yu/nrIVjjIbUntlbdYy2t6J2mLQIT9bO9Sjd7w+3vkZgBnoLIP9XeCFWFrA18wtkCvLke968Y0hLyRs6fZmcHR/Pfr14TsvaGJmqr/fCydr5QxxzotV9BXqzD3uC/DbRV6bSAeVNGDXEouMU5ssbd51ATkLR5trJu4sQ/Yd+wDlTqFcW4+zrX7AcnNAK69BHu7bExOBMABW5uUDHy5NkIox2U7XNh2MOxtQxgb254Jkzr/QYMV3fH+vOqyzVar3xcjtD0wLfg313dzdd4OcpDLyFVssi1N55HOB2pC2QPYAE/NRrJXrS7yVwEos3n7BT/cAsu7ptwOg9t38pdhXwAARt4oxN+3y3heMlMLUwLYOt2/3lHL/aykkvibaaopyvX5SOxcy2r/aeVYHs/gzH1u70/2/TwA3EGuIJcdLnn8V9rI1mEEbpAdamRj/koAp9/xJ3dJcvF+aC43BDjMx4mx+zwfSxfEnenkr2ulXcagaTtW2Z//rqqn1O5YRRhSecHyTYGS8gJUGQ3TFXBS9cNuKuuAqP8M7KzYooV8GGs7lA86yPspte3MgCgPbZnHhGrs75VbpGXvk6PhZgC3aOfLqhhDaacG/bn0jpxL1zIQg2xBd1Ukb1QNbcJ0s9vOqai7mCYD1Jsbe67tUADOgC0zuVhKXndF5aRBViMOUexrtjo1KNWBLV0rh40Y4B2A7iBXkEBX82qaEAFdkMXcCsZeFa8I2wTkMpWva7Fxf8My6nNyM4BbdcUO56tc+Br3dfBtJeTiwtjy6/YB3FwcnNazIgM6/34TtivxVuWSd4pRe7tptc1xbArAWQxb1Iq+iUGbILto+Y2Y7ViruNrEEi5j5dF9OfaLyncf5BdX8vhuUDxj+pkvSe6PNzGNKigZ2VJhMT8/6rk3iUpAsbcZcJr6wijAN9euNXvL4/xGAEdHbbmgJpTyP15FbavieF68YdMcNvt2VALmy5fbja4BzlaYvtqPsdcBUe/jWotrj/YUAAQYvFHA2kQBr8RAn0BJCw+aKqoAx2MUlXyIJUVr0AKFpvr6wN+LtsY7yC+WWJFKW8CBYhMHShK+DxHpqrnYBNmIydqz4W1zaI5sbG2ePnNOJlE3xjCTjM2huTLq9j0/5m9Bbsbgjvtp7Nkc+nrvZi2TSGeVulMne4Oy3EyvNmYVFNP3TdpGKpBav/tj6t2parFjA+l1hJ3OAFpy2bd0kwTAbBPmRSrArddHYyPP+wboonizemWDvVNXLSDa74Nq7fyiMzqbiHFHdRlT+69awMBixYBikqgnujqm9mbevJ+i4576IKYiwKmaJJoBdmg0QLENz8WB1nMa1Wf+2C0GR9vHGukxp0Ugt6+rHpAjDao2b9i/NwO4o273wAIKgPkVZnLc1heLbcraqcsSsapzthr5VaNmcBBX+GR7NSulbIM2p0a5AW3n1TpWaL9Tb8TrQdrAeT2CNlHCTawwoYHV6B6NsbVhN3vLmzmjtGPZD3Nbwvnzvy0AnPVi38LE3ucd9yqLf23v5cmpM2cfwOUNkmd+x75mXWlOpZDKOdoWl5PfT2UM7etnO1f/+rJSx4CaEIpDLWsoUDuvAZxTT5O7zqtstuS1MZNJN9O22ckwy76P6rl9VjsdNxF++9osae4kLi83tsGRzxRQ4VEoKBkI2SroL8gGhu+MxMAC+XrY2IyXUVRUuiTAZTW51/NUik1tEO+pTdRRB2xAsYk1asA1Fhr0DgyuEm8fVL3UtiKDT0NRT4foQI4F9Kw0+6DfxSAsc4hAj/IbSTb4zX0zKCtsWc+zutZ6w+jb2rVqF3jcxCHi2cPsb1K5bkAzUvQzu86crVKjSD5JbStM2/Jii++QiknDHu08AbGNWpOp+r1988/OFcCVy9CPcb6PAorpx+aV9RfpSXtNZlC7MGH37nRzEtN2KNQl9jWxbIfsQHR9T60Wo5hkLDHAYUfdyJutorfnZHBxLBQbMLgwHyB7bQDs9hZWA5DGJI4Hr6bGRkBnMQdwMyoqIDfVVrmuKQPCb25j59OEYqA1wGyptG1xbKYW2e9ZW7aKbkZ5vollk+ExgcYI7szz6jbPYQY2pnIx0Hn2piC8UfAao6pRFpCs3xmiDPxgezs4VatO3J909Iz9xYtf9RnOmbSHgXlmM9cmoYT3+H06a/XINmH2Xr7g7k1UemIT3Bi+v06bOHNMq84/tjFrYTvWNx6Y7J7UZpl8PnqBQds3UEksUQKXFcI24zJngDG4rpG5UPex9ac55aydfH28fZ3AtI/mah5O5hdtzTci5L4kNcGBWZxtet7i++BKvY3l93ybH6SKSqu2nGQb3DZlrGORpuqpPU+2ks2tvE7PGhOIuXIGsEyMVScvtxgcle/bWXTO0dA3+WaTdzTkTTxcpxtrM+Oov8YtZ0dhXdQE4FzUWW5jWZGUvVEbM4vjIRaPU9sUNVUfyTPdNgCbCN4Q0KayO1cg+Y6do10CN8WgO6D0/Zad1AFL5+yVJjXAmf1kX+C2XYO1OXeosY+kQD5XLMEmjP+tBmWxGvSgPpTFxxus6wnj2/Vibdo5WX8Z0whuDI4oRnOzjzKkn+x7pr411flMPJkzfeKnRA1wNUloZGxSvw1wPKaSqdBQ2QmL3DhuSK7FX2etiu8Tfz5zMjl1N1aZQUyXU5cjC1m6ptyMwRkbsoFhNhEfJjKX6N5AUrK8imo33tTDqEA2RmBhyjk0DKMBloXB5TigXLstlBXWJoIxuL6ZApOxnQRZzTzAedtbIFDXqMqobdc3t+Oi6qghlVrKGznzGAoj0EFmlUp4jFOgGt0joKs/Az0kjcY2h865higAXVdR9epZnQonHVeudy4gemL0tfdmVncvtXo5J5N7X5k66gowPt1ndE6FbHMyYHcnZX3t1V1j6DXoWZvW1kU1zDIjAcA01QDs2uy3/fmYA2NXDrd3mLQVy/ELgLFes/tWWEGauUMtgX0aYev6ZFJswo0Bf4377IvXLY3+U5Sbp2rZo0Xyh1AmlVc5/GBmAMRlctr7gLZBACtQIBSws+O6AlI0F59mrICAHCdkLKJrpjRdf1LUy2Y6IDV4uKiooZBDYNuewQAwCnNiuEGsq1bD4KB9ERMwGDhxsf15YKi3Tsvny2LLsGu0idOGcu0eXIwdAQLk+6q1eAoxNwEDpMiAv7dz0oQCpruOq+OywDPjwd13e8tnz+RUOto2ypN/wtP3rN/q86kX3Lm+SFRYrt2/Gge86jopz40yNnfFW9gtqM/Pn5u1M0TwkECo+iOPDZTxUKvUfpyQHu+VpZTKmLT+9f2QtbDqHO0Y5tJeSroQUBnXQyqAbwu6H/9QVfYGcjOAswvwdH0SCJsKDTWGYR1lq+hW4GD9OgDR1YAzNlVlSUxVyzC9qS0VZuJV6k0sbI9paxXM50OU81SzAVVBpu4PThXAZHYld5oCgYlURUVheo2qn2a3s1p1Xr3xHlxjlplphLLit5xZ49QudAnxm4HYomAsknD5aPN6i8Za6rYsT3cuMn6r7Uuew3XE3St5PQNetfiF6KIYrhziE6CbJ8y059Vh1/ehKXNIz42HBDofXUZQKJqALfxjAgdVU/35mRMLkDllhSa8GEP0duN91+rmJlvkwC4ZE6hvRBsxk89c5MQN5Pb2ZLhMsriFUlwGlA3ZGYWZqFA3fb0VYGiqg71vToU5ILTzmjsnn/7lE5ajAtIWwAmjZKCAV/bUhnyzSc+RCfL5oinxcZHBDRdbktkGs71KVRhW9TbooKzP3zIscn+4lXOuCKcxWu9wsME+B2o5FEFf+/bMGeON73uwrrR3wTE1WPvd2KWR8tu2QMzFr4Gleg14u52rgmfeNSqJ06We9HXtNd9f9Xxp3P0Fph5Y34DNoUDAegTOhiljNxIRqTD4kcAT9uVMH4CMR6CMDactZFY1F2zuSYO+zqA5xxara2R7f3BgeFGG0RXkdgEO2AaL2rB62ZMPpKoQiqo3MYRXasrWQNDPLNrbdqfPhk44YzzN90RDJf0rn4eyppbmJ25DIGa5cZGmRuNYVsuyCo+iGgNqQ+NC5w102Nn9QhBbXFLWyXr+BoJejTH1KXu5AcAN2FqIi6riVXgv9lY+Btt9QKQ21kptqiX3gf7Lpg7/ezw1dzCVMZXVbpqek7XNufEifpzWUtuydsWh1d/x9rAa4Mak51f3wcwCQ9oOVaDgVT41d8jnAM5H4Mx2htdx4NVnc+DUJoVNFUJk49RXuLmMEGmYTn5jep12rtZmq+03XNRwIz7vg9z+rlpbO+kkodbXkbmgXVsxJk4L2r3yGsARslE0q5mD3uR6FcrfpSkokv4Wh8IsawkMpAaUNH2rQ2FPppJv5D1KDI5OpVVwoxSK9hI8IDnHghnCWby2PLdXrNUBa6io4LtC4xLLb1lYBs14Phkl/QaYsq4t2xdNwbAW3+cWH0Yz99FCMqzcVROAVMWHTRjEJZjgZSR71S+iniiahoUP5TYgTrKRkDNtdgk5durbsPnD2D6fmIBTNQOZp9kzrM60BgVJH8u3td8HkMONruq19OFCZhKCtpXPxwEduHynDxrJsOM3b5ieeHOAsxXMvFz1+fjOnDgdZlZrswNYbJqfM97DVwdjzjI4FXMoqBGe3Arjyy9zZgrIqxfBwA1FPTVV0Y6tB22eGA2IBQtFVbBVUVdztU+QLcqZvYViP4n6oammSQepZ7ZEAooNFYOsqXLeCbSLkXmp2facVPcls0bftqlI+R5Q9aXSDfmFLUL1zweajpW8wFVtzUmAslzeP2f9Tmbei2+yK+XL1F37no8gyN/Vfwm7bW72e+Tun53XnAfb//4QwWeDBL43BFg4hvWlnbIt0k2YMk2bnxmH7Fwvy+Cw7SwyIK3V8NoEYr+3z1b3gToZPKDlDqVyU02yno8y2H3MmgecAGAM2xfWBReNHaagtg/gLFSlDaC2YiXuxlAStZICTaucWjDvJIjYTbY6VMTUFQ2Boei2EbR2GxIPqsO7HDcW1YmCAGZ3fMTU0ZCM7bC0ZeEKCXJXnVlK/swJNN9NWT3xE2MWRMipnFSYlRfHLvPrfbhZT5L8vgFbNRYuG55QOXh2nkNy/eLVwBz8Wp2C9Y0HTubyem5Szr3v+9SfQ0BZNPy1VsMPDFE1z0fwKoKSJwAO7IDCpgJPmdVcPvZFBS/qa2h8wNsuoELx5vt7HeOHWEX1mQpA6dw59zFQ2A+5ApRmV7Lvk2hHW1+3AF3S5z7Gbg/A5VSyPqhHd2aUaweTMh2yaPOWlP5XA8ekLsNkbXmj/hBBo55bm4BOgy9DLBMlMmjZind1VKfDkArDZKH0DJSBGUg8T6lMKmpCdmqwvW/2kaS/PwZIiRyqWJdT/wMKSzbxsYY+9jF7t32nW19Y29tdfimpgfI6Qjx7y/d/B3pdtpDRFISttD4DORPAFuscxH6B+InuY9D8wtKGAnBGDiwsKgFAQi4SG5MMPctwMeJQm4f8uTFjq9DqnGNmn/gFxK6ljoSwNo0d1izufaySc8NULZfJYCfdNWJ3mDtnjXwmAyTrjLnV24dZGKiZraFtpsxpH4MzEPLBvv43AhWKXKtbdaK+MTpro04Ns5vdBqkVF1lStqpSSTQkyXBox+IpzfFLXfGA2nmoAZu6BmzBz0OS1C1VU0r1CzOyKfOpU3CMXZvtz/ehKxyaszj8tQLyfs4xpu3A4jm5SO2dE9LFiTEfC7VPpfEfxYStnN0rnscWEJlKF2IxYdgiBkIu2lqbBXw/mOqdX6PYlr3kDASULJO2EWCKQRZum0tmSrG2zaNq12CfRYgGwIqmxj7z9e4wYnog22VPtDliYiqov3ZPFFLC3hVwzuN/BblZqtZxXy4mA0nYHQqSb5Lr/F0dZSDZ6Uraa9kjn1NqcimAC64unE6COjm9FktxCWG7PZOcbsJFZbDyR1b8MquoumKOCbQWlZs7yxuNkpZGBLYk/FxZJOXv0qKReLl1BDrNdx0arSnH+fpItVefqcEEGUsG6rW0bgIFbKdYkfaHT7/LFVb2qBi1aeBCMbAle7UtuwzT5jU0iWH+Wi8rc2NL7wUPJMUgfP8HQFLk9N4PcXc7Xmw+1JLHF+WCEdQGIAXBpMQyN/x8st/q28IILVyqa4B1LAtBi+0+24UnA5UP69pyvr8m2RBpm9H57w56Drt+sz63K8rNGNydRVkV8mpBu1UK0rLllwI4tUlZZ/SaVFyrpwC2An+92O94BmcAbICw63yNwfmBV0166k2NVEeB5Zta4UtXC4595d8uAusIUoDjdtTr1e8CRf1U7xwP+r12lOvtFJz7BDbm3Fn7zfSRWRwRbRDAnrvmNpStEv2Ey31Lcg88e56zudZCdTtOvIpTj6N9oLiasdtYWz72yqLkr8MCjPWYk8bMDuYgsoIIWrqefX/3yuA8A7N25oDM24O1rUmRVVukCVOHnqXnmTbhbM4TZ5zONWoCuOPpIseY3pscs0ZTh0PNQO26qji4iTPRQqW8dMpA2bWzywZXn9sV5YYA15eO7Zop6PgJ5D1gdjMs+NarfOy+OzgGF0JRURdVLikgk3IOKD3tNycFsMPThe0JFQjovCrB8GlhhCTqiC6TFAFmBYC+1Uq+qUyIMYltzACuG4G1Ui3zzHbCACf9qHXhaDNKJZI2lOPsNzqnshpAGquwCsONTBoO8wNmMqE8U/XOHOt/t5jn89yFIQZWvh3rd0sHsvdtAbuM+IR+oASMTgAuleu/qti4AYraboDpFysLKvbv2fXV4DBno6rFwju8jdsDiYIkqfpOfmGw7/g8cfOwGugxI+8PUp8ngBy8bNe1r+tqbcokF5XVc/YmpzZMPa2+f+bkBjbYm6moxuBar/6pWAQ/3CAxdLdB7D2UXtceU5mcyryyetq3QtW97AI4N2HJVr9aGLLyEkli/EQSME3Og/cSEUaUcgyt3tQWaFqgb8FWoddW/ZGlRpyqxtyFDGbUyvWyB2I9P4zqTFgHYXydU1G7IIyRRVXBJoqzAijsNKQJ0O1mu00xh0yYKk3soGR2SbdQ8CTmaSql77VBx3rLOIEsZAtn87zIycAoKiAgt2oTixccUBUp7jy3vWLA4b3oZoawmn5NzEyaeu3jBU+vL2DKgi+SLsCW0OlYp3JealvLrflMHVuIXFoimfbSBhkrcOeUeJqi5bTiC0PiCKU2o5cMcNKAFanIi6ilc9n92xcjeIMd526uotrKvOom2+2xH3h2MyybwOw43tFg9gRAJs56lPcysOnk6gLQTKgDcgR+Fp00oYwAmq2iEWSXP/U0Ci6wa6O280wBj2hABjhuwWhAaADqwSHouQaxyXC7paKS2esY4nBgzgCWDcNOJeKF9sv5IG2vBSC505JMIRYbTZSJxQyZhMkeeTsw03ujjSn4vvP5u30jpao8wCWWsk67WFJD2w4LU5GsPDtzad8mXhMmUSJbeZLANCJfcyZpSGVSxJAXUL6KR5ZIrtuDm7Fsfc7mwBgZ6FN5BErf9DxlgnOSGVMo991krqSQ14DsuhnIgdKZ0bmNmCbqKop6CyjwXAJ4LVjdPLF+rJgETMeUFs0kq/vnHXVRbcWozqcWvsS57ZCbAdxJX1aFo64MAGB7YwmjsgZwuYYVzwAcywpkAGespiM949E1zKiBiMRNVJ2sB6c80+RZHnsMaKg/bbE3kzH/ljC4QdqjFuAOQAAjgigATQtuOshJN6COwBas21EBeUCem4rax7JKO1CkmMDnqiqtY7bjiao6FjuRqakkNSbYmNCgg8wPpLkskNrg7asnL5pSqt7XudvHkAhTR4OFOvhqxWos98wjA0zueqd+sv71bpwlLmq7P7culQlktp+LxKt9tlB5ddHq8Xkb3xiRK8nUC/wu1swocWc5fg1Z+UHfbM+jNohH3a7ZytgHFOeM2VorxiSf6/28alL7oGzV5oXNaX9udaTBSGVec/WdwWek8MWbQF1DbuhF7crqtupkcOpqRJsqmG2imspzYQYJUvrTDm/AI3TCM2jVwWLGiM4BRFCpKqhSg1EE0S5wkt/Qk6o+LwC33WZpg/J1jflcGB2IOjBaEEYwBPAIAxgNgFZX2OJF5q6DlF8PwPMg4RDrgLwdoa5yuVR5ZBnYTQCaMdvxzCOLLkplBgW3rJ732oaBxSTLoAIRYNt72mn8YB+AvhVPrtmJYirOlR1CXvU1kwXB2a0ATgm01DFkv10B7YSkm2qbOuTS7AnKaEcHcJzjBYkxBcl9YqzL27OsvZ5VI6Fsg7PCknJuUcwUXmzBMqZmbaVUACdftzmIRLUsKYXkvKVUbGpJwc1SC9WZkIOwW11QMiXHbkfTPmH3e9ZHk0BkB26T7QNRnD/muLOMEbt3TJjmtN6O3HDTmb4wgGVbqmJExmxpZmNtDUANawiDgYrBu6ZrWf5dmwAaoQYWBRR7DXgGR7askzE6+xOhUr4UPBN7Q5cAOHIMTs5D2CKhA/Jfmx8F8IK8RwFy8fbYASGAWw1FaSCMLLlJYGzMwk7Wo3rCGplIZwFoY3Y6UKeOiEUjidg2uNogTKYWmwimVvh4OH/fAGBhttB2EqtHtQ2nlnqVt9fG/FhV3EU7Vcnm2GV0wAUU26Lvq02DvHnRkEr5eOBij6qpy15N9+zNJ7rbsey+CyAnudftWgfk4/XJloGdp+B0ubGSAAAgAElEQVTgnXTuN4i09JZhl7OBs00DsJh08nOanreBbn37grsOfylp+jsTT6i/jPqS6u/YdU9ymK+viu6SGwJcW2hwLzYnbqjkUnrJBlBIpkIGKc7qoDCdBIQGFDpIL52DsEFhS4PavgyIvFoZgYm6WtnMJuDUzVwQOxDcAXDk2zBgHpHBjdvynOy5AhoIxC2koHsDhBU49KCuBXed4N6y+k0PcInBZ4OoKBYP1wZxNmxUTd0E0FrUNm428M6FWVe8t9EEH8bjWJdlgHgvttngVMWkWUOwjoE6K8LULmMmWUVtZdwYQZiJDeO5PTXNDqfed1q3ZaHdRPBG2eYuBpdBA0Xl2xXSwu6YHPqjn/uczq0dzwi5Qw38cpWP6ncyeFd2x/w66BzyJ14BUUxiDoEyzZAUNHUBsf4hQi71PhG11fmqvtZ/JmTX0Lj+SQpcthDwFOwtdGcLy26fvQE3BbhVl1c4ahigQWun6YSoJQAF2KICkmdgSb8XUQBscMB2jgJ09r0EA5oMcFk9LW3L7/mbaKBThFxb2w4GOya69w3cDGRHZWcKbGyMzn4ruL5p5Zy4B6MDmgVwHABelB9jaMCwgtMYhb01QZwSXSwb8GwisG6LijpGMRwPye3LMFNKxBvQLVbQ228IpZ6/xSH6MBGb7HPj0xco2AK4inmZDS4HDjPKTmYqMYG2bH3sbDfaT+ejqM26qTadaYxg9vRWbfgS+7ZjGmHqjbXjXJxd3hbSAGBuAWGIGuqrheTPuLCpSb+FAh6zQMsKYI4B5jJSKONFFwceteyXHWvnxXvunTlk9l0boPfLg57e69HPwR0yCcj+MAJcL6OcQoKkCOkEb2y10pGyBQjRgUnNlOy7xqRGSH2hqI+Da8MzqCSvydpjbc0fw5NfmbI4D5ipAkObFAa+XsweaKqpgBehA1OnjE3BTR8JQd8zJ0UHohHcLSCKcsg/S5o4zylIOlArNjvW8JCcY7tW58RmLGEMFrWe91xVYPGqgIXrWKbHogG6NttJs6Eb0BCdpsQC2uSdG5y1sdnes9+cZXBqn7RV3qfx2Xs1GNTMNDFwPkrM4SaK19mAy3J3azEGaGq8TW5TEQ2IcsgPl/Px15+qR72H+djZyW501S0Ctu7uU6W96mgqamLkqiUBkNLqhFyMEyj9af089xvmuva/UQOhvy8eaG2KUDXOrIiBHw81s3sf5GZOhsYDgsWEqXcHrb62R0BYlqmXyamUHkxq9heVufGMqmqg5dtMkzYLq/PMSz4BewbHKHmcdm7Ir+VPVehJO+pFlcJvIJAwMvZqqmNwdn2syEWDfncN8Eoe7baYU6IJcsyiBS+7Eou2ieDTQdncqHFyIdvjcr7r2BRV17x1ubtJgKtrRO31AdVeNVWgI5/OtUvtBaaBwiZ91d9zO5rZemjqWzbcz6uWXO/9mlhAfRNBmxE4U6eMgf6cYd2Hmvh4QcspVWBja39Mwu5MRa+Bd65PLqqWUWfnXFcMSM0mp5kVVs3XSu+Dwu5zMlbvCl/yOL3GzOp95R2z541cvLn+vMyu91OUmwEcBHgKI0vKcwgFCOrHqGDoXmeV0lidp+WjAluU3yNTWUdnU3MAR8XwL+foVchqcJO/fDtGzqMAnD93z0aRjxVZw0AO2Ah7y6zOQM3UV1NVo3yHe3mfEgoTBAwIJb5uI+8H8TRyUFAyr9SZ5rVa2Eg3ZhsWW3Cx7cPqMgrIPISWfbFqgUUrA3jRlNg0oFRWMW+dsZM5sbQv3+91BkWS11a2Om+kk6tO6J9XLatKNZSqIZwdDRG8aYF2I+fhcndZE+FtqnHrPP5jKululiUCALGKt6uzGS4CuH1ioT3G4vw9qtvyaVD7xBe6BIrn3srt71MJTdXVdtirqlqjLqvvBGnPlzzKKZupAJ+1e1mAq8OZrik3LHh5CmBqvCdEsHBUd1wBDwHCAQIirJPaey69emttn4EwgPTRVLsClINTT43h2cCQc5uLjeNpfWo9N5tA2XJcqau7xNTOtrA4dGB06kUFQA2YBeAIDRhLOYY6BbJzMHqQD2OhTtK/JPsdiRZAt5AwhJZkMi6VhQ26reHAwLmqq6eDeDnN0WAeWhuYvVNRFy2wakA9aawVFPwgKker9k2LX5yzs9p9y0R8ZmGxa9PrJCZNOQqFEeVjMFWPRjgw8cfpcyZgCBLzN7bgZQssNwJw6qGmMU4Djz2D26i90qv6gzJtK55gqnP2crrTsdeXwjg7/1C+Z6q/r0Vnl0juGPv9XEw0yD1i/yVMVe2gx9a/4bq6/JaALVvX5mPd9/Px1bn6y8ttKbuz6W3t1G1Mvv8BA1ygp/qsxIZJWITZokxqdrR2z2s11WaGOg5oCnCgoqIWMNNHMudFcWQUhwZjGiC8pbBiqqba+9vAOC/mHTXWVUJGCpBKiIgAljgiWP9ALZhX+j3H4NCBSQGOexAWAoyhB/cN0LbAsgWf9PI5NwB3orquFeR0A2lWFY18tLuBnGYoUDcqS1bTAAEIxooBkPVlAldOmtJf1o+XGaAkaMgQtYmCBq6HfFek2oSzA+avliwS0KizsQGYwNwBvATGI+Asyr4FpqL79DCg2AJZnyfkQpI4G4QNng0Sk6aslZoArKN4dX0uKkNeXyaI1tRwH4yb838NuFw3mQqvLJqCbiTjWV4dBpOT9KksaHMLk8tcyc9JMw0Gt8A0NTBh2xHiw3ssi8XOJdtmqdg2wdttXJQDe0m5EcB19CUU8EogSpAAV7sgf5NH7b8RwBoWc0YYM3MK+p8B/c9oKKLDgBbyKK8jmpm/QIwGSV8LIxNeJe03qAY2ChMnAIFk4vohQMY0VWSacX630WUqupYiyxmUXzf4DPq9kI9hhHzsiB6RGz0DuCuw77WI7m9Eg6THD+gwokVEkB5oAcQGsg+lXDZbZYfAMkYDJHygEXtT0wGLMGpfR/TYaPzoiKAgHxB1EU6u97zIGeeYxD1SOH1QyKR856O2Ii2WvgMCYk7dMU0h5OdRz3BEiwE9htSD+xY4CuX6I5UxiqDhFPrb9lkEMBJ40wCxAw8NeN2CT++Cz18Cjx3wIoKfrcHPNrq71Vg8rRvz2pqKO2VV7MMlbI9fy2bxVUj8jm4WHL8UMwIIkt2SnQs879XWtgrAOTEzg3dy2KOp4d7GqLZIakg81XaOXgzI1BQAogLm7nykjqH2j2fRudqw2WhxbbkRwN0N/w7GwggMoigwxQSQTF0AmT3JEBpA2IBIHBMBYx7KDTgHjBgfasE4ooQejCOUxw6Mjhkt2yPKe0l4UWCJcey4tOU7K78HYfeNfh4ABL2hjXturwmFC7aAmIYySycMJBwykvqKdUIm0t6iEvzCpPyTCCMJTx1VBWDXhrlPpG05/hyESMKZzknes3bGlajA0hNy1kmZtW+RMCBgQOANWh5xkhL6xFglxoqT9CcYHQNglhaYp+nAlTS6WM1Q5CwMYCTK12iPgODPSMUwEIlyP9njnLD26xiANRHOQsC66TB2R0irhfYFgbnR56Jx6FWB0SKxvE5okdAj8hEijjHiCCPfw8gPwbgD5nvgp4T0kwF4bwA/j+AXI7BOAnabUT3Yyqh8iI4vwABkxkStmBjEUeQ82JYi1wtbpzu9mBJyrCk7OyU0hMR1TC5QqiDq7gESHAOs+jWyOIJcHByPURykFmjOk9am99yuL2HKKo2JDtGZBHwso51PAdXryo0A7rfCd5Sj6DChJJNZF5xOh6gNGVHaEhYUdQjZ+6zDqyirBnCdAlwHxjEYKwW5jhnNhkEDEDYAnevzAaB10apoYISN9JVpND7TK5j5cJSJm015LqSOKi3VzBL2HKNoSYBMMu5Eo+JAolnZvTdNsxH7epJOku+0QOrlkVsSBNX3s8UplDZTC6QO4E4mfVrq94lEM2sIIxqslcuOjmUG5clB+79HRD8k0DmjecpoXgDhjNGcArTRPhTNVa530L5kFLNp1T+C+npMbbEAgJZyX6HRa7P+seuyaJlW2jAfDftRS+41Aakj8AJIR0BcEs7aBqdosUGDNQcMCOqeCmpYKc9HBJxzo26tgOdoccYtnqLHe9zhMY5wyveR+GUkPEQ6eYjUP0R6eB9pvAOOR1Ky6sm5VHux/UptIptXcoigUQEuKYtTswFZEVbLgbW4w+MO1LdSouxui9CtUTJ8jGGp7sGsZhDtdJ/u5kwwtvAVNqsqfj6AIFtaKltjLulyBMk+yZ5kA7Mp0ObXHqQCcnWRbOOsAc47GT6ockn/UXhHJ4mshz0xElN+r1FgaCKjHfQxAv2Y0ESgGRntCDRJ2FZgob+cCIFZ9sxIQJ+SfG9gLAZGExXczgCsIY+nAM7lNZ8BPJBsJzoCcRTqn1RF4Rx+RVltSZHEJGCPSb+f5LlNYFn165UOeVwQsThnG33ubNkUILbgIO9zA1DDoho34iBFK+/xSFvjTamlVEZpAdJjKQDUM6gT5hQWDGokbG5oxE4TA5BUDaEkxxHLPehGBo3AuA4YngeM5w3G84B4HhAHQhoJKULOCUAaKfdTRt+5/jFzXDvtMbLrJT3/BmgpTWKgQ8cIWgGGAiO0YkKghhFczmIg6ccAAYqmZYSO0SwTaAWMS8L5gjB2hE0rwB9bQmwIowKqPY8dYRMIsSMMPeFsQThfBjw/DvhJ3+CHvMA7fIJnuIcnfA8/6V/CWfcIkT+GyK8h4QF4XAHHBB4DsFmAOQi9NywyW+jg1D+g5I0OqTCcHBIUgEWSflxF0OoM1DxBwJl2soGWDjBYLOW2jbQc22TmWo6zFEYq71sBCVOBJcAO2Txhptao3zFTCEhXYT2cw5TQR/09y9Ix+yijlOA3VfuDArg/xnM0yqZMPTTW1USWyIkN5PGZPj8H6IU84gWAM31/dCY7TVTgwX1/A+AZgZ7La35O8v2NtnEqj3wKpDUhRsrK81rtYDHbd8wa2GBkU6BFWVZlW32nxVJoU9Ta2CUyLOSbjX6r/kaTbVTIypA81/eIMe4pERPAam/k3FbjFKsWjEWIaHug7QHqU0moCCj6dQT4jMCnhHVs8AIdXnCH5+hwhhZnaJXRhPwnt0fYjtkKvUhG1PTcG5q+Y/3T6nkHMBYYcwSlLZAtmQWS0eVrK/1lfUYAGpKz6dV+uEBE3yT0dxP6lxg4AfgYoCWAIwBLAOKXARbyRyf6/ITBdwF6COAVID0Cnj1o8D3q8R16jh/gXXyHenyDl3iHf4BNehOBPo7ID8HtQ6R79wCswLzUK1lCplqrYSxpWlPOiwe4YwW4jkB4CsIpiJ4j4F0EehOBnqEEvgOTOEvAAVgtQnvZQpac174OSs/Osqa0KcUkNEi+NfXeQqQUAbiRRw2TYg1wL6LZPqaObmJRhyfVYJwqfw25EcC99OejqC4jIwxAWAsroJERzlAASAGOjGU9l8/SGWEcBYyY9Q/KrFgYQoyEGAOGFDCMwig2qcEwBAxjg5gIwxgwxoBxJIwxYBMbDKzGZg7YICCqGlJALuTnxjrmHoEpK7nMWiLrV5nU9RCbflaeGxB6FXhX+/67/jHbMxMjJEYYEpozZTckzgWpGESILH0bR0LiYhEdFOjtjzPYK4Or+seLLLbTK66PtJ4sXMHOu1w/odg+KR9brs8kTL5TVO8ARssJy6cRy/WIRRfRtQl9iGhaRtckNE1CFxKawGgaRtdF9CGh6xIW3YijxYjVyYjmEeP49YTXP77BS6+P+M1fDvjxgw6/Fjb4Ggd8Gxu8w08w4lUkvIKEl9SgcgSxg0o4ENCL17NvwE0LLIR++hEg5EhtpO05qBlAtAHhOQjPEOgnCm4/BuEJCKcINEgvcINiAVUq7Nv2vUkKXtmjb72sdgC0elyroU1mQLJHC4vq9Dc7971GH/vqc88wtc02SPsLkuwcEBCD2h00vu6Dqgd3/H8l0Brgjagv6Zxkf+IxgM8I8YzAAyEN+vyMEDeEpJ8Nm4ANNxh0AiX1lHkWNYIwcIM1As7RIoKwQaPfKxPSHgcIoI3qbYt5spZJC0C9jdfvuA+9MBBSQjMWJmlszxwW0r/N+98P19cwbiQhMhZxxGodsaQRvdobxe6b0CChR1ImnNCT2iMRsUTEHdrgfrfG8csDVh+LWP3KgLu/PoJ+i/HRT4y4/5GI47sJTThD4DM846d4wY+R8DIS3wHTMZiPFeAWOuEbcLMAGs1B5h6lso2xJ8Byrwmnjrm9h0DvoKUfYUVvYUlPlWuLUTlSASpZlNR+BuhzW5g0xoBbJGq0B8ryIBy5AbNwaZCxPQ1Mz1LCoZgFzDJwoQPna+4kbMcxTDmuB0IrnwX7bnDtuvCqa8rN4uD+dwDnAm6RKYPOhhucpzYbddfc4JxbnKcGaxa155wbnCVRg0YFG/OrJrbJJzdqDWl3rac7x6j867LuFynPL8/EftbFwi/G6ur9q5/nfkggnKPFGi2IF1vMWR5RHjlHMoLAWGLEw3SGR2++wMfffYZf/vozfPTfvsDiNyLu/r2IT/3JOU4+G9EuGAsA38MZvk/vYOCfgHAXjLtg3AFjBWSPtujEMoEXkG+aHcwmPoFwDiKxvwQ8BdFTBDwG0dtY0Bt4lX6CV2nAPYxYQjKIBneFEhla4hcGBU6LWB308wHmgLIQ/ODeNybWuZ4qrJAzY+sdSxWgYovXxEqvsZtcH7Lq3mX2x5ntNSD0MMbH/AEB3LuPl4gDIXLAhoVhCRA1OOMWGwWlczQ4R4sz1ke0+fUmW2RspSkqYnI3y2xoB7maTKfxLwawe5mq0ldjqmtIYG83JixixGIj3uaH6Qx9F9HfZ7x2POLzv36GvmV8hAb8Ep/jKUU85/ew4SXOaImNRnKOaDBwp4CgQMcLFIN/k8GEsIYEEq1B9AKE52jwHo7oOR7SUzyic7xGI+4gYQGG5fNYGYrBAdzAZLk+GQQHSEjRhgkb/WwEKaQQCAGBRowYkXhAAeDipCBoTJwadg1cJQnOMpokP11WVlOdLU3RwhVMdU352xYwBuBG6as3Arg310fYZHbVCFnmkAFtRMiGallJJWxhzU1+fgCtg3xYJSLgFB2e8AJHGLHEKCD3ZsS9b6zRPki48yDhE/fX6O8zPtoP+Dtth7dwjnepxXMOeIoGL0A444A1COfUYEQnyjH3SNTngCmJw+sUKCRwhWgE6Yzq6AXuYcAjGvFxGvAyRhzpN8V0Q1pvh7Q0LGXgk/cCOjVRtCA0IAQiEEvY9gZ+CTA7WwQrkBXrqLjO5qVYhEUYXq+yY/bL7ZlMbgRwP+ATsYehwRlEDR2gAJefC4Nbo83szNTRrXCLgxzkQyQMYIMGT7AQrywiWtZcm7eAB18+R3Ms0QOPfmPAK49GDK+s8W7T4icc8JQaPOeAUwScUsAZAs5BqrkErEnmzYaLl/qczI0ioNBCMoRWGLHCiDuIeJkifgkDXqKIheo5AwhrVS83TFomVoGNzPyflM1VUEUJA2QbQspzVJTGBCBRQmTJFKGsZtb2OJNt8COkDJEXiysXdgtyM4DDHaxZ1NAzZW3RGf2j6v4+xOAgB/lZkgTCGVq8x4vsjmEAtAbwBnD/i2u05wlHbyesXgfwS8DqKOFhH3C2JGw6wqYP2Ghs3dARzgLhXMHulAPOSdiVvfbVCA2ElpSwRMIRGPcR8QqNuIeIFqx2asI5EtYI2BBhwfIbGwd0g1j2MntrFLBMJc1l4FDitu05UUJiQsrvBMwbPDx783IRwE0TJPezxMvLjQDuh3wszgMUFfTAyg7y8yYjAp6il1RPMg99AD8DFl+NOHpvAL0J4KMM+ihw8lLC8d0EvATgDsAn8oi7Eou36QPWRDingFMycBKWd6rFBgZI4O+gIRIdmYuCcYKIe0g4Vt+opeq94IA1Es4Q0JOooxsOE4ALJIDXgrBmYUsCJwkEQqIgaXmAWtJM40qSPscRBAsIruPTrgtKPkSlbg/gDypM5C0+ymEdlmJ9kIP8PEpEwHP0GFgdaBSyp//hO+e4e77B6lsDlqsIPNSg4XsA3wHoDgTgFOz6Y0a7YiyPGSdLSbOLS0JcEcY7AHogtQR0kpMbUQp8NGAsmLEYExqNO+UFsO4IHTHWCFiAccaMFgFr4szkWgW0FsAGjEZznklBTuJD2VLJkeRUAKTsfR21NyhHIF5PpmroPlDcxQgvJzcCuNNZHfwgB/n5kwTKDjWLsTTH2qsvTvHS6TlOMOAkDAgnjGbFaFYJYcVol+V5WDGaI0Z7AvB9FuA7hoDfXQAPIJkWElmC2EuanYXIEWk8ozhYBRuOgOaYEHpg3TA6ChpRxugRYFUKN7AKOMLgAoBEUtDSAC6h0LfIJROr7JjCZpmreuiqcOdBbR+AfYAAd5CD/KIJg7I55in3eIoF3sYKd3mNFUWcxAHLpyOWz0YsKWJFI44xYBkiFpD3+jaBjhh0H+D7yOyOHgB8D4CptCdAc8JoLJ3MEgPkREQ6YYndfUZ7L2JxFGRDNJJwjw1bOlxAq1VbiIPa7gIikoZwCLtLqoclAB1KZUVzOARKiFtxacL9PoxyALiDHOSKIiyIc95rAGs5NfUVWroa2/EEwxE5lgsmWKiYUSUL/7IU0xECbtokNAMrY0wH4FhU33FBOA/iSDgH4ZzNeSF/A4un1WxyZwh6DGnMKuW/jYa11E4K5pCv3jITrPyUBelaapV4TyXOjRDAFEEc1O4Xnd0t6bHmvPCxcTeTA8Ad5CB7xOfBWvw+AVgg4hgDVhixkFKl6DXJqUNCh5gLBFgqWACjCVy2y632Cef6PVNNJelBGJyxOfu8F9V2OCacdRKS8gIBpxqesgHhFBKislZQ20Bqap/q60FBTY4R0DOP63mOhLACC6UaddlvpHUnpNkHuQdNnTXQ8uBlZXj8e+TAbp+39nJyALiDHGSHaAlM9C53NUCqnHRIOIKon0c0YomIpaqgFhTcIYpKquC3oCSlnqyiyQnE1naMbHOzP7bKJvbesat80ru/FTCsCM/aBi8Q8IILyK2VdZ2yANepsrHTzOY84GlYicbQGXsT5te4ejeSQ1pyUAt7m5Zqqu1m4o5kCiCOyuJUZaYIZttO0zyxRnFvFi5yALiDHETFl2NqM7gJQC0oTso5NWAsIGC2ggCcPS4N4Chhoa97img7qVGHI/njIwi42d+Re5T8/AJ4KwigObDjVuLqTlvCc5KsiecWT6dszDOxc1VFT3nK2uy5qavnGRwDBjSIEzpp7K0HcymHVNRTY2IlI5yzQ0K9r5o9UUJNDMx8ypZVUoXbde869/QgB/kFFEuot+dWk26JEStI9RFRP5WBaW26BMpbDRjILfVvRQZ2wuRaCMAtSGrThaXUpcOxApYC2gTojiRWzmrUZQZnr49EJU0tYQyEFwh4hoBnHPAEAc/RCHBxCfLdAMLa1LZ2pkC3cQB3zqaOGsBprF+uEGIJ95pWxl6XLiBXmJzfdtNvQOTV03KcsLgm2+ZETW1cG9eTA8Ad5BdSGlc6qUfEiqKCm4DT0jGzBaJUHAZrho5tvVNK8Bf2poCmNjgrvElHXFRSU1FXKCCmj1wD2kIBz5jcEbBpJVvhHITnCHjKjYAcSmqYqZgDCAMLEJqjYJ0fA864vGfxcgNaRF7ASiiVMkgKcGwOBV/aKGjVXmN6dc2amPmvsDhRVUtSfonEK6rq9auImBwA7iA/92K2NCnhKOrlUtlZi4QVjTjBIKBGXt2U173a3yTnM2BDUo8wQipf9E4tXSggLhHRUUJnzM0AzVTTo+3nWTVd6rGte76Qx7goqV6nCHiqCf1P0eCZ5b3OeD9P1VFgwDYCWHNQ1gaslbWNaBDZyh8BpaqvQUXr/sz2pls1ZlU1gFAi68p9sABf+2tQHBAWnGKPjJLDemBwBznITmnAWGHEEQb0ahc7wZA9nUuS18LeCnM7UoBrc2U9Sds65Ran1GGjTKNBEnCjOAG4PkSxmzm7GjvnQn6uf+ydDceQSBMHcHwMjIEmntKnaPAeK8Ah4AVI6zAWcDPHAgBRS7V6yFkFgiNaRLZ6dSvtPa24iw4CROZoMNAjjVkxxuWLds6lcrmwEQAlVoZk21H2aqmVVDoE+h7kIABMiSrOgZ4EbI6VoXVameMIo4Z1xInn85jksdf3u0UCdSUJMa0J/UZAbIOSft8hCWtTcGs73QfD1E3dh1qL+pagXW/C8hgB5N3E7L1EhZmZt9OqhtifFK+E1ngrxSwBUf5sC8sSdleCX6Y5n1MjP3NUO5mVQvedHtW54KvKRT2TIpz9pgBr7CDAGSDFozpqZwmQ0g1V1QPAHeRnVmwfB4u8ajQWP8eokQDZkYZyLJSxmeezI/GYLs3W1kSs2hFdE9GGhK5lhCMN6wAEEV4A7YuEbkgYR0nZSqAc+NtSQkcJoeNiRzMgc6A2Aa/gAnf9vjFOk+NW9ocdHJhJGX+zm2m8MJe9NMw/6SuD7KrOlqukQMEnB+Ia6PkClexaVq8nMYjtbiQFt5rBjfkXpH0rcEkKfgKQjAFEFhjIOISJHOQXUlq1oZkjYEmSDrVCzKBmddQsHm2BmL2kFhJiKmnTM8IxA8cALcRuxqYyArJn7jOgfZLQPGHgGaSiNQJsj7GGEsgzswWmZqs6Jvay2ldjyhzpvq1TO5vfEChmnrRfzHvM2azv80wTcmYGGETG5iLABn5SE44UIkuMm9rRKFa/Z3tLGjtUwKOoILcEuNXnHUA9in3uenIAuIN86MU7CSxToKWUjfoWe+YdBCt97cM2LOC2axK6XoJuQ8NoFwnNIsmWgmYTW6iNbIWS/zlAtr88BmjFoBVAZ4wwMigCxKp2NSjszbIUFpgG/fvQMvvbM49TcMDmU67Y7GeA3+oSKIxtuz/9Hlsu/4ASIhszM1tZ4XQiDabVRMreaAQCE+sz2/UbmHLGgLI/KAN8Bit3TmDIbl+NfJ+Lfe66cgC4g3yoxAIEjJPIcNdQDguoVfnyXHwAACAASURBVDtZ9naSxq4pkNl7C4pYBP0j8Wo2lNAsuOyBuoAY+E8gTM3i1HwMmqHBBuBnAJnT4ASgp0BzzrIdJjBJgs/qqcTFTpyOXj3dCXDudSJsMTdzJph3NPIU0DzYbfdzeWTX5yUv1Meu+YoeJYZNIClOPreaI9Pke199xF+oeUpHbUuUZEIH2Sh5BHjj4uGuLgeAO8iHRoLasSy41nslzXifAWwrpEPUzmxPCxHtkkFLRlgywoJFdexU9TRA66UaR/ZcaupUTouy+FbdtICeqbfTPKDHkD1/n6MkycvFSNveDtdjOy52HzmpZmfJzZ+qpyOK+po3msfUiVCLhexaKaSSb+uT4M0qZ/YxATSiAM4lzEMFcgZwnkdqMG8GTgPDAaAOhFZ/KarH1ja5afXzA8Ad5GdITOVsqkcJ2SjBtUfGxDC1ny30vWMMono2EV2X0LUJ7UIflwlksWYWamEeTcsYcNkBFqOWA2s9IAFiLlpPGRwfAWRt9JBdWzbIWhUba3MJ9aicCxN9cb6gLQAz2xeVVFKqPMiZU6HsSgfMq6jGwah6r1Q6ifrKH+nLiYfqPdYLGrdPPMOynZV6S7N1T7ymAokRtFVlYJjpmMvLAeAO8lMRP928Yb8wsZIiJWCWcIwhs7jOeTs7kuyBE2ywCBHNigv7uq8AdbekQ7HFolk+p2YGsK/OoZV0c6waYQpwA4CzwuDoqLRBrbb1HFKEcqPf6bWdbubP2JuFkZna6rHDPqeyz2m9v4JgKmFk72jYrZpaVWBjdvYzVsRI0tEsjaqomn5LQAZlpwMQ1WnQYTvFCjDPaB3wK+EgUHeyAaMwOuOXwOjcy9eTA8Ad5H0ViYOPulFezLvHZzUTMdvQRB0tDgHv/ew1/GNJozgHloz2TgKtWNRNS2e6qyrnHWRGhl5ZnLEtO7Z34Gf2Nv1OCgQOQFLyECLQbBj8ApOClDmH9CkKwK01NMwAskFRgc02Z4G+K0xSuFhtgh50NyvJHzXGNiqglT72FjLbWZVdRBpywtVA8v0WjJatoKUojpmDEWEAI2F0oLlR1TdowUtjVY2orDlmjfVRxDYuNNglMBICAsmGOVKCyWDIp4T5RP7rywHgDnKrQjkejbPqucw2s5LS5BPafZhHryC3UHV1ESQmrW0YXRvRNc7b6SvgmtroMgOMsWV7mjkOVijpTwsgrQipA1IH8JKQWiAGi+TSMt/MWEQpOR6WQHtHHRVabhzPALxABjiWoH/kupCmCquKmpPtl5hWD+nlM+4IaSXndNpKLukLlAohtkeCSSBG0EKbliUqEMSygY3a21pVdRnAQBL4a3st2J6pALBRHmdiwcJWF857VUs04lSRlb+EQKJABw9wOj4iAaOCmOwLa+1JdRKmmxW9PADcQW5VpMKGGf09oDkPp/N+yudSIHKFMTM8s7l1TULoAeT4NGVoJxC29gCFBflKHVaRw9VQYw8kzos6tGWn9/Iokxko4axHbcKiYSxXjHA3IdzVBPr7EPZ2DlFP1yjxqaam2rkYKVmglEDy9kErg0TlfJ4g4DkHPIcwOXMs+DDaANl5yzypxtgAATWTwRkLRhCSbmoTtV0DNQsUrkX8KCH3DTBkgPQ5DiX4GpKT6yDRxFwRI0Ztd6PAXQKVb1oI/QBwB7m2iO2mVLFtwFhq9sBS06G8fa3PVTpKjTSzwy2Q0IWItmc0XUJoWAJvLZPAGNoKAmymJt5Tm5uBnlXdOEYJzeiQWRv3wNAQxo4wtLKhyzpIFdtkNi4udi6LJWvBOOWAHowFJRz1hOUdRt8xFg8YYc0F3Dauk8zW5gGOxPQ0doQUlDHquXADbEJxKEQAT7jJVXk3kGKV3jvq+VSg8h4gDLRz7oJFBXByDJDYItdKKlcCTdo2SSR2P3M3WM6CT8LQ6nBSa4Rku8NdXMy6a2BCJAO2knZ2EzkA3EGuLGGigsbMyHoSz6alQh3TgJVja5avmeulhYRe49S6kNC0CcGcAVb7zFe9VdXU7zOa7WEGcGpvYw3QZanog7Qk8AKIDeGcpBqH1EJDLvwoLEJqpRlLMhBowVhCqqN1YJyEiJMlY7WU/UnbxAgDi518wERYHQ1SZUgBJgBrKrmi5kBgAOegCQA9QZPrtll4iPglSe+HyNSRw9lFwBA2Z6Z887RG971EEkdnYmpsWwFTYV2lX8Z8HizHUwG4HmU/130Ax5AtEjOztAXm+oVE9PwOcpArCIEnToJFxcqOSXI/LRfU3l+5XNAlRixCAvUMOgbCikGdMDW+g0l5oFwA0mxWd9RhcALgoTxyDXA9wA0hkeRvJgLWgbChgJGAM1czzUoJmSfSQMTCLgwU/GTtwHhOAUecsARjhYSeGF3HQAu0y+msZIhNL0GAxN4TJoY8mQ3gBlioh4hVDmFYDirlYyx+zc7RnpsvkvPrko0w5hANghU5SpC+qs+71ev1FjefCmYAZ3F1LfkKcrIoaInMbONjTIHRrmWEBzgF2esnMej5HeQgF4iAWinnvcKAExqyKuodBsdQgKvSpLo+ou0Tmo7RNox2mYqnUL2LvICwMgdw2Z5mj3dQbGgvC5tLS8KwIAzK0LhBVnUsNuwMpDXPBNCkEkfI8WRrBFgVjqKelsBZm7R54jJjRQm9TuJeVTFQsX15MTuXhc4CZUJbmUexq207EM50/wRgaiurI0paBSuJcJkyps5BpmdutkeWnQMwVXnteu23OnBWX+V3kiRukf1+YW69gT8YITIaLnbDAEZSNuuZm53HVXJq98kB4A6yVyzMoxSEjFhhwB0MOKZhC+COMOKI5G8ZJBB30UQJjjWWtdhOjcoqnIV3qPGdK/UUJwKEfALwSwAfEYaGJhut2OQw9UbUvrKr1CkC1jzdcOVMjdtWAdergTYpDeACgAUlLLioX7pLAaDPSxZAYUueDQJztTamE92+vUFRCa3l2j5mwGLnt9Tkf5OOplDhQdHi4AzgzAsLAAukbEszgLNzJQV3GSdAQ6zZKHLcEowVJ/QxidpeX3AvD9GADgRQKRhgj1tGwCvIAeAOslMCGA9wjju0cQUhRT29g43a2HyalGYXNBHtSUI4UifBynk+LRXK4s4M4NoK4PweBMboFOBST1g3hBd9wHkQQDpV4Bo8wP3/7X1dzC3XWd7zrpnZe38//j/OyR/EEZBE+RNNioSMLIFiAQoQJISQeoGTC2rRpFdIiMrlMgriR6INENEI0cbpBRe0EghcAQlcpHUtoKgFCsWE2CbBbuLYwfY537f3npn19uJ9n7Xe2Wcf2+d8xz85nfdon2/v2bPXrJlZ86zn/V0gvDhLUzI4XyLP1w09dZDjb2iHG7UW/qGXsjAUV08XzloIfkB92EcVNAFYqs1sf47AtM81lWrtBSrF241BumxvHwY0Ure3O1yI6myLqYpLzyf7SNWy87YIdOzPws+sRbXBEey7MaNdA0Lv8mUALi1cjTbvhE0TSVko+EyhcDPAzTIRY2y5xKOdlxPcgg2OC5gZiztCjyNsy0rtiy6ja0csuxHtQYbcBOiNmDgClNkCVDOZ6H6I6u08RmFwurAS3ePCFlkZV8C4EgzO2J51UNv6mgOnSEXNoxpF2agvgedgR7ZXlsZD9ZoOsIodVJFYO6NTRSPMmU1YIWMJrkJQbVUMkciQCbAYmNX9ycLIlsYdmGq8vdPAxRqEjHrZzfSyXAIEWxcm/1/aD+Y/0DLYhP6RuRHEI4NjOzWxira3ynS7rBAuXr2PwbnuX2LnGt0lvrvLO1yxzAA3y0QaZBxji1tkjZuxwe2yxi1Y41i2l1TsOMbWVos60Gl0vwfgqseqcbsS2EJaVElsZ7xayAnNrWCbpAS3norgoqayiMrJDsCdQCYG6ihb5Vqf3hYEF9FgW0JCUJwLNPTHMAratRpVD29TLJGK7S2ymy6AUKe7gEAPtO0S1cFLxUI8NuFckkoBz1GdUQqKhU2hWMBS5kcFmFWQJLZa0+KBClC7QkYWmeClPdz/29CIocy++pdALUUVmdoZWVuUGeD+PxWWIWIM29LTqI7Q40ZscbNscAvWuF1OcSO2OJbesgqW5ihoDjLawx1w85feiJoTStCLDI4LrCyAcSHYNmKZA43ZY3pmEiSUJex6CDauip56PbSL4Oc0WRXKbFTVEJ6gYRFjKQBXq+EKBu2c+RmvyYGrkAONqBXXGgxlAejOgWYRVVQQ9GqupwDFGN+GfQmMwKXqptng6hZrqzonWgBZARFra0C1p8WE+hQwyNTcK8OQ5wWxcI4TiWvLsEjIviKfEYUiJb0GciaAe61ctAupyS9oKjEsHCxn9YLMUkVw6UwaTc+yZz9BVEOqQTmuW3BAxwAG3Chb3IgtbsIWN6c1bllscNAOOOgGdF0uHk29EcAtmIJXCNfQm1HyNPUYGA8F+dDToRbm+cwd0KcanV+SyJWewurhJBAxxKOH4AKmtrcN6G2sHlQ+Yz0wWYxlgwY9Ggw+ZsdS+I1K43LnSmcMJfTUEsgT+kkhzjYoxa1zyLDYnl17VQspCQBHx4ABp0yeGgYfx/vNpZEJchmAqIEnQW5A9ajyOPE91W4N7UzHzBRnZOf73W3ApbhVGoksbrdE1L4DvVoA7jvTl3CqLS5Kh+e0wwUs8CwWWGuDNVqcoPUZcZazSszxpKTwQDHvE6C73r5rhCWJcvn9CtMFWWhbOxJzHtCpcLNs0d6cITcr5Bat63MeO8BFQIsAd2AqKm6y/fOhYN0ITiVhEEEvKO/pzSTj2MCyCvj5FNM1PsnWegQ1VVNRMaNqiXJtDATWSNh6PJlZz1ae6C3IynX67MrqHoCzFHS38smIrGv06D0lneDnBnvZBJXUQIzG+07LSqJmuxPa72o8WT2qYhOeod314C2It2p1VHkvYXCh3VGlsEkCK9eVwE5be50X/ncva9uVWBKKSyxE2WVv10g13df8Fcvbvutp9KcJ2wsN1hcbbC+0WJ806E8S1tkAboMGQ2B4rGtlVQRijYGplykKbQ5RyBKrx0yQ1Y5RPkMKo7SZ2l4vp9i9zWVgMgtg34tCINplX3TDAzQS1+/imp9tOZ69WlFPpeIiK3W19lgZ96AZsFyNWB6O6Jb2F2+EqZu3uU0trK4+UU2PDOTygaDvBJulYFjVtKgTsTCO0VeDOlWzncXA1RFSwGzwV6x5NjpjI8Pj2qAbdH7fG9QVTCkcXbAFjdHC1vC0OBQFFzFmfXH6BDtMJUOLtS4DOkCx8s/u0pBN2HsBIGN0KNpiAJeL7jw2rPGjD8q1qBycQmQEHR7lbERCwCz/ZShMDW2EIRdW38OcGWaLi2OM7LIwwPJeJtds39IR+5ge9+e4VFhQcxKFsHbmPofBPpWEL93z/RXKmQDu/A9etJLNTyrkqwCegP19Ctj2CRttcDJ22GiDPidstbFocbX3Y04YtIJTBbjpEG0kY9QATAoMamA1qth7/7vVBtsAZms06DVhgxanaLAJikS9JfvlStTry1H15KpgU+KJasBsKzr5HF36bXlUtcysSSr4R1AkqEloH/4eAjuOWHudZCzE1jToUp6U9F4uR6SbFbjVGditgL4J5ii41QGOVWqPgXwkGI9qpsF4KOgXBjzPIhUg20Bw4qqlAuX9bn0zxp/trunZgxUsLGSCaUs9Ek7RYtQVWKaDgFXvXiyXvYAqs99bqC+4oGGZuho8MS2tbQ997yCXoWK90xKlZtF23H9U63V2xtd7kpXdr4yFDB5Em0uGBIt1d8EaL4g2OIvtG0X9L88uYXRe2vik3wVGNhTQqiPTWC0Lk0c0qdsUAKQCFkV3/nIcxn2YGSESvKMvJBHcSLvPyEfOBHBf+d4Wq0FxvBnR/aNWgHsGSBcVq5MB3bMZuRfoKZC3AmyBvBboINANoGuxennBy3IJaHcK9L7VXFzQEdAs0MHWqtQ1kEcHOVSQ2xSAa3CKFmu02KIpOYBklXX2MiHT3GWOLOZC+6LdizwxwnqhF9jaQAZwkV2RYVlqS0ascAtQnZhykeLW9w1cxQl+fAJcBLtGDOCk9VdSyMLK/UirkBUsVu3A49WOFPlWmGrJUkSvt4BasCzRgo4AwWmTcLExT+fQCDZNdQA8h4S1JmyAEFzrK6pjB+C0LppCOxoj+w0mGmRfO3Ms69HbmQ66cqBypUotcKOE50oEuNZLYoszNmNt6lHGOlFRGQDBkaEGbmKV0qADxDPr7bsBor3tLyOqOsu6JD20RLsO2Kgpt4IBCxnKmOmg6DSV+97AclMRerJQA6FOFUv/zUIs9SmrYIFscCe5ZCl0kGL3MxapUE2uOiuSMCmfBY0c1hVQpBIoPKol27MdhtHwqvGZYKmm1MJBzndmtHOUWDW5ZRyc2wjFWOvVxoqcCeD+9g0LHEFxk444WmcsvjGje07RroF2rejWiu6Z0YL8TmCFANcATmHb1v7qYSuMsebKDsJpC7AAKLgfM3TZzimgvYNcThhGQc4Jw5gw9oJhTNgOCX2f0A8N8giMQ0LO7hdTq6hQjpmBUROUhg6XlBjo6MAMoEm2OhO86ymp7SeKtlU0TUYSQERtX/8uJSClbB6w5EzNUasRhdD1JYCkKddMogXsJJn6iuR2nqRlHwjq6k4W4l4r2zLPMzoKbgbysWA8BrYHgvWNgv5YMKwE48o8nYMYiF2A4IID1xZmSyNju+jv7fakku9pVTIStmgxoCmTDCeMXs34r6BpgdOHl71VC9CgI8Di5Zc2SIqqKSgJSbq74AnN/UtAlwg1LxDVUi2WLYNVg5QeojWhSmXtQGZPrpRBmR38CG4D1BVvICOjRy6MrkfWHiK0k46FgVuPR2xDboQiYYMMi6Gr2sFCFYeSsYFg5ftsAouLgcgCRuXkUlYyqdkCzdkpGCdqdPUQjxOgZFCvj0m/grTnNRBkUXSN2opj8An6cnY4gRUZFfsgCa8swP25HuAYGTdIxq0HA245GHH0OquucAj725xqLSPDUjL+kviZwFUr9e2XCGxqbcrWXtgCaatYbEYs2O4GkIswELyAUnVVNv6etVqcGRYZd16UOu5tf0VdVASoNcCo5Ry4SkeAiUUQOTo44hD+CiyyH6hu9ihsL75n3xb1lMrnzgYL482U4RpMaGfM2jGwOTRW9iwaPKnNJOasV2NcBLgSPKsWV0Z7mnk7QwybAxwAjEr1MPoYiwk+gFUNHS2qY/mtlDYqA+tAAKsJVhHgIjNroUrPqQV5RPO5Ti64qacINjiRLaBcctl5jJzaewUEpyD/NIvZGjWL03isYAORHr0DZ1+OEZfcM1tfGRQT3Y2KvMUmnqpgCcEBFIeSsNRah40Bu5QlFAfO2oojRJlmlbEVwdKZXAtzjHDYx9g+5pta78SZJL3Blqs6CJDEC3E+37OdSPI4c5/RAIczAtxf6gqHUBxpxk0y4hYMOEL2OTXjCMZg2qRoFkB7pEjZ1pBss6LJ9ldGm0HSjlFxN9m2hZax2mQ3vGegHWHtenuNf04ZtmblGsYgTzEFOGePAKg5xINPF/OuCYkVWFiNmbW++D338WiDsiYmX7Eu/y7ABdDSZFR9H6vNqaoImszeob7fmHZ2TsDoluKcUGLOhsbyOPtGsO3stWmTpzEBz6LB0wHgNqhxZBugZg9owoAWQ7A2DrrAgK58HouBn9bDA9TEIF4wr22h8XNdRJTfqc8g9S9taHGpqn02OAZluV9TF4glsqP5/FKAM5W0eFHLaggEOHOJ2L4jFEdAYW2jAyLZXO9tMW1+MwFQDTOtyICsR6irWjWuEjco4cjSY6M9Rmxwgg0uyIBjzVg62+LZlQKY7rU9VXGWVlOyLIRFsNaMFcTdLdOKIlRXmYvKvNQWwOD5uQxAHpBCDq9c1jNbxjUuDdI+i5wJ4B7Jt2CBjJWMONQex9jiQEY3mmYcQtElRdvUixSTgtty4nX+NrET7MP7OOSSMMZHyw2I7ni+b6BoVZEGIK0VzRZIp4D0tk16U30FZmuIC3FLrmAqI8patdqad6hAbw9oJ4WM5NYJCJxedwJtAW28vn+y9+rPk7ZSXFqTQG9z9pXyOrtCzxc90bE+GKu2RuMvS9qMqNVqybw27hCIYRdbFTyHFhd0gbU7Z4YCZmbgr/bMxsGCFSa9UI7yfV0vjzYwhCSnGkRhvY70lI+fASPBkP7HwNq0qWg/8fioveDfKez3Xl1SuahJDtRCBLuLnaiMkGYFpAyIMzqJtXV7iK7951tUsKJq20NkcPDiFNFD1KL9VOissO+rYyNDcezAykWRFeYjNTufqKnLA7NsdYtBBiwweGhInqioVDmXSFhimku78Di9jXNOVgWJdeFiStoIW62BTG/pbpUGgkZZktxgfTeoOU5D0Z2zz0x3tXImgHtK34gagHGCBs+iQV8u4MIvrGhdQmI3aXk39y0mG8eyMfHCRIpMUIvgSbtD4zNV1yi6Q8XhoaK7UeNjYQGSuDSymyk5YB/9kIOXkS6xSmq17dm5HmLlX9SJn9S8yF5qjTGa+1gqhudL4UpKEwp7GTHj8vSzos7YNARTqYklqkt8GRJOPOWJRRVPdYWMG8yFoatwlZO/P0DWZZlmpoCzCneVTKvq3VGdJPjxjsYr77NA2C8qXWE9PgW0zxbW31awEgZ7AcCoKEPndHBcGt08EaaXVoBh5zHrGujqAFg0QBJIS5sK2d0a6vYOA6l1YXcGRKxzQu+rsTYVZ36u7mpUUWU0I78eg6sm1NGaHCzpCjuFYAnFIVTWONE11l4jBRjQyAiWTFooSxlVYGPV3Q6KlZr9bgHFSixikFdcAHhuPFhEs4OiFdaKq9OVpawZ4A11Hq/PMQzKuZ1j9VUDcFt9q90MHSByCsGzEDXTsTEyMxEDDhICANnBo0bAMa3ZPDfVF1MXs6geQ9tCGwRd49nby+5ptGMmP471R9GhR5M8YkoMgHmxM6YBljE/j+ySTKl3sOB5sWAfh9rofecCGrn0OqH65GwOjFVUc4hMMu/Vi4t6zABUU2EqoyaI1KOZzzWDAaCMoBvRYNQWo7OwHh22/tleK2S9sYBZURXVDImscVuApzA2fh+Ng+691GQghFTfawp2zgDqKua2U4FS/+75tQDDCIx2RzBkAzh1gBvV4moWjVXRzQqoA9yowHoAhgyM2T6PxWNkv9stJbtIwEEHdN7eMlW766KDtg3QHFrPGvOCFXsdtuZ9VdYItug/Oh6YSGYJVlv3tqo7NICsN/h9pHqtqGtgjRAZIXoCwcrAEqcYcYqMA3DJvhEbj8kDegxYo8daxkJCFlrBbiUJB8hYImNb1NhKRBb+0NhKZ8k4tf/eJmZjfKZVJLRQ9CrlWaGaGteVGHmLcLXuhP1yJoAb9FtQ6i/oBiLPAhgxlNEal7EAfHQ5xa8FlHmj7H2LejNpVN2tzO7+ZJt6QY4UPWeXlhJUQNZg8AHUFkdhD2IkN1CTdgCUcA0CV2RarExqZ2F2o1wMcHF9oxTUHirYuyGUfGKG0vqLFUUD0XHnvV9vMIGnnhkV/BrgaqyrVvNqARz4wxUBTirA6cJVPAFy52piAnVypZ7NuuF+rtrzPsFAJqv9pYyugKsawwqzgJ72KDRsO9pLYfv12YMFxdprBHrQGSDFmaTP9rt+tLa2rjckAdqm6k7FduFAuWoNPFsHu1ULJD/GsgOWje3bZSA5w5MRkAGqFmKCYIOjTc+Y2xpmu6M9DqjrYd0Y7jQDP1qURf+0h8jKAc6YnLG5aiPMWDvfUgzO2TfaYyH9JBavg2KrikGoSFcvajQJJagXCc1uRrYjQoHB2WCGhSGzEGZ1KVWzcrnM0Mlzda3kTACX9Q0BwDYQfQ4xXYUUfiJiLuNLLfrE80hidxPXgPrQ8hIxgioAXPkJLVOuSqh7uRySskeeWw9D7JRvtWZqjdVp6T8eSsOeBIpoT+J8Fd3DU4tjFQIcDeO7eSy1t5eI7uwiAK8x4XfaDj2WzIRsAayQXbWsdrQjf3+IGCcGbaFDY2H4WYFeDTgyoM6QVByc+lyPSzCijDvgBkwBbsx2DAc13YTxtRlrW1n3AhwOOvscAW5wYCRL23obnbO3JjDA0dtctcBpC2kN7LQfgdPGwG7dA4sWsmiALkEXCThooZIgXYI2GcAWolVFhXRQLM1+hg3EFT6RJVRpfTYbXtYpwNn5d9Di0Q2LsAo9zS1ENmDaveoCUlTaLSAJGVtsdI0BWwy+8tUCnhmhCaNYQM7gLzuiYlAUC6CIgVN1EZl5RoNvzAKP62e+WnAte6ud91LImQBO9cjVIrvgJnGwRtbg+6ldEAuG1PAbguG0ZoruAZ4KcGZVAkaHGR4jtpv9MmaosE6rbVO19d14e2QCnDwv9o2ZwvTwRaCJBnG6RxGAQ0AXpxZWGn/LYRAtERwW6n20863Xgr+p7UqwTVr3yFB5zfg9jxkj/5MHycbQiQOoL+bJkNIKVA20d3DKGViPwFadSCv0xJlVVgMQAgZQwSUFlqawzwIDKvFzHHO1j6lWxgY4axsrEA3+BVXSRirgTWwBauDI60U1FTBwA1VWV6ELeGZAkp1zn30o5qk6y3X7OgApGciJ2e1qBThTw0VaBym7hwZEje0P2ikHWDwPT7sCHLUX1cG9YH5O4p5chYFf8cAmhyWAZEB9bNu2asYYYHNWIxMdxF0ccHZWK7fUsPfpBBzr3+2zu0v4XH/z/JFiVyJnLJfU+hjJEKlLx5qwm7wZfMhcSvqC/T4amX20o/pJI9uL7RjDExnLN9MHGajAObiqxGhzRhWPoLqrBeDo7siljeoHoj0pqs31MtY4LjuX3dW545K89bfi/erKXtb+KvSDQyGGPFSgV23dDbx77vG6MdCwMkzVmINJT6gPP2Ux7rjKuJsMVMz+NbodiyqiAjpmt295XwZXCbumfu5HU/sIHlnts2BqD8sKHTKkEWOGY66nyON0zrjUwSguFsx5KgqBlNubUGqCoQAAIABJREFUBOTRMT85yPG9FIYpSWxb9GyPasBXPmezqA/ZzmfM0KaBJBszBgMGD1CBCCcqLdOYBjZjmRM1Di56Ue2+sQYRPbADzKmz8fvkJgvhxM4Mbi4fY/CSNfs6FjUty3o1BS0ClfVmakgK4diIC81E9XexUzuPbcfMX35/LeRsDM4fFLspndHjXfDBCEW0LXG2ImAQ0AhEseQANXeqsGx3g3pZW0BjhC5VXXdCCDX81n/HzhNYKphCegdBQUzxETBEQTyXsZmCSQE0JnF34TOBgX2qD5+psiHwrdyOMWwDIsBNY7r49NLeNYbveC3IPKOaGvvHEA54GwzfkDI8ixNhBIr+Ozh7I5ANGUpmpoEhiVQgIoOjcX+Qan8joxMCitgk6PuWh55ARmG76u/pZABq2134LJgCVNyXgNY6ixepbdP2Fn9LphhExwwhwIkzVEtZAcRDWZLZmY3JJYiMqGaPqEEAVhjAAc7HmYpCtYPI1vdKEB3dOTH4dd/6s0fGPbjzjccd3CZYx6BNq3SSvTDAEOgYgcjw7FYqU4vhYMtSNaW6onjGtOvR21+t12cDujMzOKpPMmnOulxVSEazViM73eEVJHtvqyuqJmepetp1BkMARy0Pu/h+OXwXYtb4cJb36u9c/VNeUjF7iZDas/gMYFG9ZE/8PfvMWxVL7VAFHBHjmOr1i+puTMqrkX/CQQmmUnNyoYLA68Qgm9gOwwsU1Sm/m5IUGSdVVE42Dug5VXWUKmGfzZ6VASUr4wPfe18IWLSV0T62rQCgDnDiAKeD+l1JlQ02Afx4C7NWoLRZdsrW1LdBzJRCsIkSbXZkaLTBUcWl+twKuK7pJUBJVZZ9GnMF9zZBG+9jFqBri6dfkQAdg1oKTE0yCTVm0B1ravfc5g8qjBnQLWpO4wIWjMw+ku11qFpLhRI+JRxB8TLuWsdS2F4KeeJSdbSs5+DMrRYVqKtuUTq1JIBRDEuasbZ7Foy7BgBHupsgWKAwCu0g4qEeZD3oIT77AMlVCbKHGHihO+0MiLarGrVW7VBSgI7uc2dwWmej6UzJ28lP1dJQKm4pGSfBQVFUOHqEAQc0vmf9bcAYH9MYDFwMUKiSkLVFxhbV8yWiaqmBwWkBLV4LDtxdgBthoGyG7rov7VqMY8t+TAIcva+eJkWgGbKHYeRqAxOpHk3KmCuDGxS6GSGjq6FDhm4GSOMMx21g2rjKRhCj93PMphIHwLDTIzNMzrouIwQpeJt55/smgF6bIClBJQNNqqpxBD9gCm6A9d9Va2NxzkJHV8/Z51GBpoE2dl3F1Us6pkQy1ENlKdVUYPdf3ORvX+Zi6BdPzbH3ZN/MRSTH0vKssECTFPDbjVbgL6fZB9PCEjuXGlFNxSTGLgIclxMs7WSFbGGLzQgs+6hc273delFyDVRUO3WbQM1AqkynUWL8CnYzBapkadQ0OJPss9exlA1nIu4r5TdSWBZQbwX35Ug2sDQdi7cqoTpISNFHVJDLqHNVZH5cKC2qfIvAnhYe5Mq9CO7sd4dq9GdEfgSmBBuUCfAJozrYow2u8+vHvi0wBcqECnBdaF9Ku/Zr2uA4KfD87CHTrR+PsWNjNlOEh1oowYhqZ9wXsAfbjfIKs2OpMxwds/twcqUNBDzA0tSKna2x7+hx5e0Y1CNPg5pKdZeMCt4uVVuyKaCqzYADmoNYK5CWXtXA7lK6NEYuqs28BoMCbVDjeY79CG07s8kp0+t475ID1lg98QKYs8cmQ2PzrPbmWoqqA+MC0N6J8QIia5CtW8aDg51Ee2p9hrMmZMmX4P/lJHLDYn+TKYPjFG4+est0yBAssqLZVsYtVrG0JuNvEILkXmSH9sgZGVwkqw4ihSHsZp/X8F0+5DaTGJsT0Fa2AMMaqj2LD7Fp+1UdbKA6GiuEANo4ZacaxiuUHVSpogFTRwLnoWiE3/WokoAvQ7tsi4CRfZ6ic4CMr4EU9rnwX/aolosI7tGLXJ0OnAyKQ6XUNSPzsn6J94EqSZ3tFeaQVz8Hre1I6/sJkDsDfjH7EDZjvQRbdyq0TQUePtA5Vy/maEG3AvUu+n4JFtEZH3qgRnjyPdW7qPZFAIm2sRweRw1tRcpRTFq+kequwG1jUsNDaGsbUrHJyUjbnIPfEPugU0ZIxwr7ER0uZHMrD+XIgKQGEGYo2ERj47RGi1m1lAYWW5jdltc4ONYYUCnPHZ+xBrUGHFmh+vYmeGxr6dTd8mDxEvJVP1edibSg2XmxWjGT/ZeqGKGmgp6W4Wt54dtwwDUqf3hlAY4Pv1eTV2J5zJuzC2sPHxxsor2ItjwCAlXDmOoTbBDBHmdTnKtJwUFhN48mSnp4CQpAZXTRHrEFWZUlMfOW0gaWHFhsRIurKbaNrIyeSHqrlt6m3y3tfFZme517oIeiypt9hqo9MPGiKoFyGb4jS87WDlaIE0xVdWmXrABsQbmtsSUkC/1IAmndqbBem5Ge7ChG/e8Kjfj7ZDSmp7R3sS3atFQdHLSGeEx+r9Vb2sJU0u0e44zAmZYAmut7ApgIpEnQ1hm8eFsEty4BiwbSj7a9TXaNEjxNy68F24Nf1suduKIyvN2QkuyTYLELugVL+fx0dg7ozC45jKZ4tI15ljuCYzVj1DFFMz81rBqMYfblphyLIPd8SFKzevyvVHtbrTJdn9jKEasntYUi9YrUoBa72MKG6gUgRMxATvBqADjWLKJhlGncnBFG1BmJnwEpxm8yKAMaKWDDWSkFICSAlOkYl07VgGqqN1dphI0gHNkXgZLG/OjkBqoNLnk7/B1ZFtuOzpPolTJQVk+dsm0tUPrFAc3PTdiWQrtAnTBQjlX7U88FQc2eem9pd4mqdw62JP8rZDfZ1Mk2mXpIb2TSqi4uGjPwA/b9sjIyWTgQEFSWrbVFT2R2wGpSUU1lkay7SweeZcgqIHtatpY2tWiBlIGVp091PtkNYr+jarxs7dUFVXfZQgZXkbumhKvIQVfTseIxmxElaJipXAIPA5G6L38n8D421TvrOaxIDpwyWqVbYfmDOPb5nHDMDzBU4O12u2MxbUSgj5958Tg2gnkm3HMt39Yy+Bw9hMW4jZ+jQSiGiBQGJzp5ohq13G/Pd7QXWRvfi807OEUNrIhBElcoZwI4wTq8H1znd3BSABiNnejaH04a6lkTKyytK4zb4UM5ohr+mQU6ooaNsMq83UQquPXhjrNidWBMQTKCQ1Sx2Ycm7EswltKeejXMac5oE9qLQDOE3zornIAYj6eoVWcr850qBQCX+OXVn54TJRjPy367m/g7fzXJvJkY7CFaOngIjMmMatugwLaFMCiXeZ6AMZVNh+JkAIBDZxwAsHBzxbIpgKGAAVHOHsYmwGELbczuJZ0Box51tV9u08LC+9gloG+Agw7SNWbsX9jnEiTMlCtVcwR0jZ8PgKMOOOysnS6orlv7LEcL6yvngq6BuvosbVNBDLBjrFoHSAFWDSQn6DYZ6ZIBaPy5gT03ZlfbejWSOmGJroF0YPmukoE0mmpbAJDjJ754x6l9VJmOHe6nSJ6/XMBMqqoJTIGrPgVTMKTtbVdVbWDzUelyfDnfmRS13aCakEN015XKGQHOMgEsclrDjVr4uCZ40Rbg8c8Kj8EZHSQAlFy8xmZ8d3vbzYizGqpjQc0T9MIS5yAU4IjMy4BKUO18QB08No1E9dv6ksM+bKvOb1PLRRP+IqghrsaXtq0NCYA3BdYInATX2r6Gwb1fKpM2yZO/kuCswkfb8tBGZmpMvVQ4O8vQw85AwxmZFIO+qVCTkI6xrfFoCtv3wNR1dI1lYXQJGFNlSavWjP5UBxMgQ1cZEQDtRwOxNpkBf6GQQ9tHmEO6bKr3lcCTxIOPnQ0qyneybEM2BaCds7ODrlxBiJh9jsOjc9Dd+mRwtIB0Cm1as+kns6DLyvQzKdTFnmCRDHMw1LUbDPC8UrA0QEM764haDj1O2JHJRZB7cTpepQYx66AyNAC+Sls9TnUwaCG2/B3bK2BqFpTKytgMwY18aUSt1Zgxtc1doZwN4MoqQoRmZ2HllCLrIdPKzkE9L64Uz/N6WBJToZxJlBfbYZsvfONMPeSVjAR7/18tt8zAzvo8OttC2JftVVUToFpaVQEDsgaqdAY03koEql1AtJDHCry7ajXnS173yFL32YKiyrLD2CYMFc64OKFk8yBiAJqQptWMZr9ctm6jAkqGAZuLsW/w5mPALQActCihH6OrcgzOJYjRhuaAUtRBhl1sR3N6dAnYJgPOo862NVKZ3ZBNTQ1J8ti46rly2+6iNQa36iY5rkJ1/NDtXQwEjnZC9rdxp8wCQDNApAUaL2Fe7MRbJwdA1V6opbD8dbmQ/rnFdGEDC6KXEBI11TTixLVvTKS928vqbxKAC9PpuRpHAkOTacWRXdU2wW2rtD7FF0+JgMbLwMSMV4rB2ZGpQrImPW1A7DVgD2mLOvsIarXTKcAB26qaSQJCFQazZ/EBtJgpfcEkXesfgWBaWJF/aZ/j7ajxffUu8Jzib6g+7rZL+0i1TlTbX1VJp6rtLmjuqqg6aa8OuXHnt/uuR7S7UVh5lmCby9ZawW4LLpWnUEhDJ09vLHrhXt/ssY1Gr20g9+MUAFi6CKjAsnAVlRkQLHPUZre3BRsWbXYibsezpmRYFBZoQKbA0WICjtJ4wHBWyMptckmgrRcjOLKILFk09tuD1lTdWOVk1UKOvMJeF/obwkykS+6sAaTxGnHN0tROrH2cWGVgcyzxOhsxUGnDvrz3bvpRFvqUwP448XNs5pB7Gu99HGdAHVv7VNXqv91VPSW8x+T7Hdtb+FwZod+y2D2qpxHg6ro8xS4nJ7hqOaOKSlvB4GB16iadCHCRIbBAYAIBrtoHWDNrASnqVusDgSDTl8htE8bBcZZy2xVL+PixzVMUU734l8eJwBBZHtkUwS8CDIOLM6LaWtuIToNoa+Ntr2Bp7Y+hbZTvajsxDSsB2fUB2Z2JfQ4dFdLEtiKLrlkYMplGgVqkcQuCXP0NrzsnowZAZ6DTOTsRAKNCNkN9+JkR0NX+aCMGKE2yRUWyWtyZqgXWCiALs5Wph3RYAK6zOcCCcIn7bao5rcvWgIw2sSZB6MEMtjEhCzyyuEyyNFnAarxlraEvHYDklf8WAgs8NicBr7tgCybrc4VXu4a9pVWpsy7hk8znZlPuvwGaB2SrQsTi11Q2gDKEKtIg3sto1CrG0J2/l5cIXhXQdlXV3dHptriihQW6IFNwS6p2qSKAKardLSpqbncrntaLL9j9y8qZbXDVeTA41a52pl0DKBkbqxqgpGDBb7qtCVSdBdXDOo0921VRuf+u2hdVMgm/599d9dDAxABSXSVgZNCuisr+EcQIalSLY8gM1UkJw2UMvydoRyCU8h2X+bUzdQDLxDY/B/XrIN6/7Cxo547tt9WMO9uA6uWO6T681lx8xa0xkiBtW8MdRhhLktF2p0e1S/XW9bl4UaXkbIqbdL0vi6bcOimhHjwHTAAzApwQxFZtBddB7ZqsOitWycDdrKZ6ZhhjXCWgMVYkmqCtP7zJ11WA2dXqeOC1awCsgcSwDS4pyCe2d1yuVvW6DoMxOCnjImYV1H2sJh/RoXGwtOKo02gD3u1oItqV+HxMR/XuE8RVNPieknb+Wjs6ebL4m8JLONyiBs1XNCuGRaMQsxquUM6ootoiuJyRWKiv2goo2QYwKbQ2qGlbPFMW/uMSFpyVdh9ISgSFFyfG5KrPuTK3qqZWkMmobnuqt3VA2Oe2AE8FqmjvigQ+Ogqmc6KdLR0GcY6s4FeL0/jvsx8jeTseYCpXfEc1PAhVhNNtqW2Xy/527waAkfFIthQCD940UPdUGoYnD9VwEGoEktw5wQq5zD4YwjX06iLF0dslSHHFwZwTTO3qkmU00Mu7bE3VbFydHTKQkxn5m2x97Ew9lkUDXWWLf0teLw2DqYwsnyR82qjScxxwfLSF/do+9IaGa1bucQ7gRsZGmytNA40DIk0/XWlfSlEIPgMB9C+RfSoq7L6W+Lf9st9Kd3nxJ/wKfuES1VTnMxJU1ElRnCuUMwKcMxT1QVeCDmkr44PNS9WCC8kKWk/b8ouvndP9GCoYGQ3bmdrI6iImzPOM9q/AupT9cm+sVABSbX0wSXEK1ONw6MR0pxYlR9Os55X1ATDnQi2VVL224ZgBXGudtSnAWfwyQaxma2gWyxaYPGfq6pwP/FFNy0nsb/JzmQ52KdvISHlw2tsi8FsLFgVfAbuE8wjtcXCDsjrIOYCpsyi7AbYtu3MislA6IRg4zDJI2e8jGd6Qa5I/bD9bLKipGQS8JSxZziyEUsUEnuyP4txQ8THl11qEbL4J1zAyejI4jluOtTaYVFgMgRMbM3kUtbKNMziJKYkMpaUtF1BlSEnN6zbbXOufMyDM47aKIaoNIEvvMYtQ1PU6Mwb0XoUkwVi0IkHFeChX42BsNPyMBslWNw6KJQSjr0Gy8EWptxBsRHAgisUiY3GDWqRLBtJabcW5DYATn8g80syLRptvJdZSukI5Yy5qrbVvL3NjK5eMKjmOjOtiShbX6CFgAFywd1p/rEXt4hDek8ozNYXEmAAX/TcAb4kNCnsYLH+vHkM1m1Mj2sEC8HGm5lK3Nni5nXHbFF6T3aXsvO/qYDBRj6V+Zx0ERvUc8+SDXqDZDfGDq6CsksEcTFerMWRoSpAuVguBfx/vIVDTeaKqGq91t/Mb/oIPtJ+jiq+zrDVTQRWQ7ICDatNin/ckrdfik/49AUgCaPH3oQ4dVKFZPbSEl7Q6JCrJaawfrH4i8NLoYnmiXQU4jNmLVnZQidcmKmgEuOzj1uiIeBiU2X+jCYXmCl570pdovojmE96DRZly7BkxNVTR+MpaC0jJbe7Cb3ifDvwyuEaig+NzxigjMqxa7yi9c04DqJgoH5f0EwAnmnHRqwEvodhoxlqkrNhxAl8nWTKOFoKjRV1rtd0A6ciS7OUioEvUDIYViv1NT3HVckYGx/Vz/AEtq4g3AaACe/MLrZ40XAHDZxU1kCzMR3dzWtldDihWpI1qI2PYalAsnQGVmXkrGgExeUxeZFGdx6paySSyyDJrspbXpK5bdFrEWd2ZSxZozuaRLOCJet2YBqUocWSaxQJdIVPgyNlmP5YJopGdZsqs0NTUYwsgDR8AClkoH75ydcrDQ3W8bgfgMYvl4cnJmBDBlwvAABWwWEPO29Exl3S3IjlXdXt0Zj4agxOBXR+FpS21TU37oh1vVGjj1f0zzCObHFyyWpxdBkraFPvJgpyb0a+ZTL9HA3Rk8VNGy21xLDJdD9AdddLVUPFrECc+tlfq+hE0WbCB15vmEynj2sgD0xEtO0Kx8DHtZENX9RjivlAV05x0AESRkdDrGhdkjQGjKwJ1JbqtyKS8+FIyDrUC3KlknKpZ0ldQrGXEWgVr+EukANxBp1i1Ge0KaA8VaanQNWxMr2AVRVawrIarlGvA4EidE2LYRJ1BOBAM7KrRvVJ3a8vrfxX1j8yAXdwFOBbS5KCqifvVVkbbGhkH+xUdFtwOVFCk/ycX4K3eWvaNg7YOPusZga2u9lrX4/Sxm9VZAartCW7w5hoHCEwmiameGh44Mp1YA42qmgAlz3PrbIbHSYJSeLFcArueUyGjoJkgXnsylXp+OqICLOvGlbxLqpzO5ACU3EwCHNdc0Hre2ot97YUslaoq82FZDj0wOKgCa5trhYDWhElDYQ8z2+mdgbMNJtWLVpangIpAkm8n+IkANAlAgNSG+8lxzOeBk4iDlmpJ17PxyXaA6lTi71gfl9e8LsI5LX1kxSnMhNADsihwW8tpofSjPoPuUFIbG6OnF6psMMJWxuPRzW1irdrTkHCECnBrHXEqggNkHEBxooJjyVgj4xQZa81IXj7pNCmOIFg2ikWr6DSjPQTSRiEHxtzkALZo+1XKmRlcfbBbh5nsn3fV10u9g5WKR4cy7QgxXQmYPmQAabhOwIbfx1mxglwFpD58H2XalxgfxsFqpaDITgfUdT7j+ZGt+rHDItJFlQQsZqp3JiJpukLUpFt+PjHRfYgAwkvigCGoaUnboXoYm2QqGMMxFFaTrfQ7OhqiB3jKWHivq8NDgHGsfaIauVN9V+N5uYqpBDhWDWHgrx3KCkWyUi+Fded6fz+M02tBeyQM4Eo2BCUsNqP9aN+zMkqbgDSgxOeFBXG0keqZZoHMxPGtEPH0sGTAZJVxWDWG6FrBrjp3Qg1CwFTbMgP5+FZW1mEpL5pmCJosbLqAKZI09fC4HSbWenU2KtkAHwBE3G5nx9mqYIsNkgxex02x1bKEk2Wdq2KNsZR5PRXBiZpauoTiSLKprcg4daBLqqUe3BqCQ8lYCHB0aMDYHQHpVCFrJ52HuGo5I8ARjAAzjgL1Ikb1VNwZAEwBrhqqK0Al1DU1pfyddpcDheyCKojFRUlqygMMqM+8BCJPA7tEyN4ktJtR1A71cyxqMY/Pc2hCO5HdSI3UByoIREM6o/iHAF7TrgXQyNVgH/GtrO8Z2o0LrvCY2wSVpoBILTQqXrqHV7hDSZ3bcX7QCgS0ZrfqR2M7rPLrBn4dd4ApnpeiMj5fe2ECcFlh9dTEmB8LW+agBvM8d215ZX6z+6ZkZr6/NAmacwkw1u1Q7odsRpQKv5txepwkQFfBsQKcn5JXXVEPApaG5R15wjUo2zQDApzHwAntvGR7FDrzkl3nrrPrPiqk9edEGgAr98hubYxqTZksgdhFyCw58RsTF9lAtUWGQMTU3qwjendvVuhtkd0Uk3GChB6tKI5UsEbGCTJWojjVjA2M1R25qppgBS8PJOMUCaeacYCMLQwgV6JYLjO6FuhWGfJKpWoZuLGkzxioNlABwOl7YDT1b7T98DMBotv5HVAM8EA1lmcHEQnqH2dVqnqN2MMhcKCjMZ03l33gQ+xqF5odNYIl1iNrjGoIz60F1wPVUevDD+xnXkB9ULnP5EKHrsaSO1r+q3FeQGVxpfyMj2wyxrIQMkyX42HaVNdrKQ6Ypl5j8FY0pqqpBRQbqGk1+vN8d8sD7QLckN0zigradCrEkky8Ng1/E2x8ZQ0HP0+CpMKAs3GgHMPTzeoou8yP14opYcNYj0OAY9jM1q/jbtlyAh5DMFKYlKUp11G9yk1lcVbIsmoN0Yzi92KA1dlLbcn1Lc66JEBj7gCrjzhAQt0/Iw1UaQNhoBPIx645z1wzU3NhKkb4+vQYyrNSTTW2zPsWSUf00mOLHkuMWGnGqfgy1zpiLYI1EhIUB0g4RMYK2UOiBRskrJBxKIqDVrBsFasF0Cw1nMeViajqVf3yEuPwLLPMMstLKFcDVVfN4K4SF2eZZZZZXjZJL7zLLLPMMsvXp8wAN8sss1y3MgPcLLPMct3KDHCzzDLLdSszwM0yyyzXrcwAN8sss1y3MgPcLLPMct3KDHCzzDLLdSszwM0yyyzXrcwAN8sss1y3MgPcLLPMct3KDHCzzDLLdStnrAc3yyyzXM/y3HPP4YknnsDJyQnG8YXXV325pGkaHBwc4LWvfS1uuummy+531eWSZplllutbvvrVr+Kxhx+GfPazwGOPAZvNK92lKssl8IY3QO++G9/4trfh9ttv37vbrKLOMssse+Xpp582cHv44VcXuAHWny98AfI7v4Mvf/nLl91tBrhZZpllr5ycnBhzezXL449j8zzgOwPcLLPMslfGcXz1MbcrlBngZplllutWLutF/f3f//1rcoDv/u7vvibtzDLLLK8OOX7LW7A8fx4XHn4Ym+exf0W57a67AABPfe5zL2XXLpHnDRM5KzhdK5CcZZZZXj1y7n3vw6133olHfuVXXhTApcUCb7r3XownJy87wM0q6iyzzHJFktdrAIA0uwun7xdbuxXIr4A9bwa4WWaZ5YqEQJW67gX2NJkBbpZZZvm6kdGBisD1QkIgHGeAm+XrTx7F/e8/hIhARPCen/8LbM/S3IP34dx7fh5/caZGZnkpZfuVrwAA2htvLNu6W2+9LKPLW7uZ7dHRS9+5HZlzUWc5mzz4GVz42X+EPrAA8CDuO/dB/NvvfQg/+a7FlbXz6P14/9s/iP/ytm/Hty9/6CXp6izXRsaTEwDA4tw5HL75zXjzRz6C5fnzGE9O8Phv/ia+9tBDSMsl3vyRj6C7+WZ84eMfB4DikEj3/gK+9a7z1pg+h+c++WH87X99afo6M7hZziZ3/hg+XMDsTnz/vX+Pv3ykL18/eN85Z3fvwc8XWvYg7jtnjE/I1u64Bw+cKPQ//wvc8nKfwyxXJBcfeQSAAdzBG9+I5XkDq+bwEN9wzz149yc+gXf+4i/i6Ju/GZsnn8TC80RPv/hFAC1uO/cUnvzRH8Wf/fPPYSM34IYf+OBL1teZwc1yDeVRfP5/fgve+c9MVXn0/vfj7n/4dVzQD+AIj+L+T3wGF9/1dvyn99+Nf/j1C9APHAGP3o9PfOYi3vX+l199meXqpH/6aYwnJ1jefnthc5cT7Xssz50DAJw8+iiAAU9+7Gfsy+Hv0F+8C0vfV97303j3h96KBgD0cTx5z7/G+qd/Gd/wVh8bj38Gf/ZTn7qivs4AN8s1kwfv+6f4N9/1R3joXaaufvInbsdvPPYB2PC8A/d8+A7gwfvwE7f/Bh77gA/aO+7Bh+945fo8y9XJySOP4IZ3vAP9M8887379M89g+brXAQBOY15r+z685Zc/hOPD5/Dcf/wUsLoXb//QW9EEEEv3/gK+9a2HWH/mR/FXV4ZrRWYVdZZrIKZy/rtvfwx/9pPvQrG+veudePMeu/O73vlmvLgAg1lerXLxC18AACzPn0f/9NOX3+/zn8fN730vct9j/cQTtnF1L97x7z+E48PH8eQ9Zn+T73gNWiiGr/2d/7LFba85BvQC+r+7bPMvKDPAzXJGeRD3nfuXuOWPNvjUB3bUzL/4SwRzXNj8CPZsnuXZDnT+AAAC70lEQVTrSP7xT/4EAHDzt30bvvbHf7x3n9z3GJ55Bu0NN+BrDz0EHUcAK7zpo3dh+dz/xqP3/BS+6Pvqf/sKBgjaW77Jtwx46isXADlG9017m39RMgPcLGeSR+//KJ789c/t8Zreie+/93fxgx/+bVy0PXH/Jx7AxTu/H/f+7g/iw799kQ3gEw9cfHk7PcuZ5eSRR3DyyCO48d3vxld+7/dw8fOfn3yv44hHf/VXcdN73wsA+Oof/qF90X4HlscAbngH7vj0p/GeT38a7/nZDwLrT+Kv/sPfYHz93bbt/p/FGz75r/DFvznB6u6w3xXKbIOb5Uzy+P/5Y/zazxzj1+LGe34LFz71Adz5sT/Fp97/dhzLKYB/gp/784dwhAU+9qefwvvffgzb/HP484dmB8PXozz5B3+AN917L970Yz+GL/zSL+Hcd35n+e7i5z+P9oYbcNtdd+H0S1+qADh8Fg//+Gf3tqef/Sj+1+5XH/1xPHmGPs4AN8uZ5M6PfRX6sct9ewfueeAE91yy+R48cHLJ1vrdf792/ZvlpZOvPfQQXvdDP4Qb3vEOvP6HfxgX/vqvy3fL8+fxhh/5EQDA//2t33qlujgD3CyzzHJ1kvseX/j4x/GW++7DbXfdVUoiRXnqc5/D1x566BXonckMcLPMMstVy8kjj+BvPvpRvOZ7vueS79Zf+hK+/MADr0CvqjwvwM313GaZZZYXktPHHsNjn/zkK92NvXJZgJsr8c4yyyxf7zKHicwyyyzXrcwAN8sss+yVlBKwuMKqMK8ymQFulllm2SsHBwfA61//Snfj+eW227B4HhCeAW6WWWbZK+fOnYPefTfgyfKvOrntNuj3fR9e+9rXXnYXUVV9Gbs0yyyzfB3JU089hSeeeOJ5V49/pWSxWOD8+fN4zWtec9l9ZoCbZZZZrluZVdRZZpnlupUZ4GaZZZbrVmaAm2WWWa5bmQFulllmuW4l6d//j1e6D7PMMsss11z0qUfx/wATKCftXssg+AAAAABJRU5ErkJggg==;" vertex="1" parent="1">
          <mxGeometry x="130" y="180" width="312" height="347" as="geometry" />
        </mxCell>
        <mxCell id="4uIfpQyvWnWvoeIAnhdc-7" value="" style="shape=image;verticalLabelPosition=bottom;labelBackgroundColor=default;verticalAlign=top;aspect=fixed;imageAspect=0;image=data:image/png,iVBORw0KGgoAAAANSUhEUgAAAuQAAADhCAYAAACA9qD/AAAAAXNSR0IArs4c6QAAAARnQU1BAACxjwv8YQUAAAAJcEhZcwAADsMAAA7DAcdvqGQAAKoQSURBVHhe7Z0JXBVV+8d/IKLgAoICIhcJd83MPTBScW1/s14qzErSFtrft+yNFrOFeq3+9bbQZlqalrzl22KlaWSRoGkulbsielEBEVlkERH/58ycuXdm7tzLvZdVeL5+5iNz5syZc87Mvfd3nnnOczzCw8PPwUVME2dhuqkC5sAIeP/+Jhb9VCKO1AdDccMjMahZ9T5W/FUp0giCIAiCIAiiZeK6IDdNxKzpJhxI2YbAO69AJweCXBLuAwuRsTcA0cODUb7rK7y/4i9USmWMRnAbOV+pnXTgKDLeXARevFTW6GDIh0qx6ytFsJswcdZ0DCzMwN6AaAwPLrccs38Ok/03PIIrOv2OFeZeuFbJczQDby76CdbWyGWPtlTIWh954HAF+rWTDujO1Z1Xugtfvb8CNL4gCIIgCIIg9LTx8/N7RvztBExoxk1Fpz8X4397AjAwug/aHfsN27JPi+Na/CKH4aLICAQW/4i33/8C63flo1oS3QNRuPItvP/FT0hPPwXTlVdjeLvt2LZ9F7b8egrBo0Nw/Ft+fDN40YqwX/nW+/jip3SknzLhyquHo932bey4HyKHXYTIiEAU//g2O2c9duVX13IO0H1gNPpccAHCSuW6/ZTdDv2iotC/LauH1B4hqs9uxJtvLMba9HRktwuD35G9OHRaFuN8MPLG4rWsDdloN+JyTIoownbWxsE33InxbTdZzjvVpRdqsveCVYsgCIIgCIIgNHiK/53CNHEKRjCB+oVLLipH8efav6AYh4eOvhi+e9PwncVcvBUbt+UhOGI4OosULUMx+mJf7E37zmph3roR2/KCETFcdcbRP7HWksHJc0p3Ie07UTfzWvy+/zQ6dQlHe74/dDQu9t2Lrz61WszNa1fiF7ZjmjgcvU9kqPrBjLW/74d3WF/0lk5mRRcfR5X8J7auWknWcYIgCIIgCMIQ5wX50BtwI7c4qwSqU5QW47iiTGFCoL8XOg24Fv984gk8IbZbuctIpy4IF2JWgykQ/l6dMODaf1ryP/HErZI7iEU8M9QC2NlzUHoSh3VCuZNfN3iz/4f2ikA7g+Ocrv7+aBMajfstZbPtin5o18kP3djJWw9kw1tq40yMNx5lEARBEARBEISEkz7kel9qHTa+1zIWtxGL/7RczsDClbLPuJRLj25Sp8XFxd4kT4Myaz2Hjy9kH3J1vdVpvdjfMTWrDOtpdK4RFh92O/1DEARBEARBEE5ayM1Yu+AlvPDCC6rtO+w5zbX4m3jBabFpxomiaosV2inMJ1BU3Ql+3PTsLO6co6OgqAi+KhcUNfzYWXsWfRXmtQvwEu+nwMGYeGEtmQmCIAiCIIhWiUs+5PXB1o3bkBccjevVvhxDb8B0u74dwsc8+nqN+8fQG6Y7cAdx5xwt5rW/Y7/3AMRecaHFxcU08Spcxs43Osat8jddy/dNmHjTtbDob8l9RvxNEARBEARBEDpcjLKiprtzUVa6VWDv77usEUZKsrClLBgTY6/A+Msuw2V8CzmOn7/aJvLwcnvi3P7fpWgp8ilbUBY8kQng8XJ+toUc/xlfbctHNeQoK90q9uJ3HsVFOqO2c0SUlXbH8Nu2bCi116blYmeGHAHm6vHy+UP8TmLbb7wt7Ji5HQaPn4BJY0Ubhnhi9/IfsP90Cfz6s3OuFtcd4gfzN/ZdZwiCIAiCIIjWjVsLAxEEQRAEQRAEUT80ussKQRAEQRAEQRBWyEJONDrVPt3FXwRx/tHm9Al41FiCrBIEQRBEnSFBTjQq5zy9UdznNrFHEOcfnbJXSKKcIAiCIOoLclkhCIIgCIIgiCaEBDlBEARBEARBNCHNQpD7TlmEUU+vwiWzHkZbkUY0PgE3folL2H24+IZrYWdNVqKJ6TQuCB+8EY4nJooEewR1wctvRCBV2V4JwuXi0HnHBe1w61Od8a95HXBZsEhr1Xjj6pefQlraK/jh7bEijSAaEJ+heHnFK+yZewlvJ4g0wiUiZr2Dld8vwAMDRAJB6GilFvIbEflYcxWeIxF618r6G5yEz8GgJ1ZhwIRQkUC0CvJP4tEHshH3wGG8v/esSCS6X90B/yRhb0UILRL2BNGAjJ6Hf8f3Q9X2VLyxS6QRhI5WOqmTC/KZ6HzgHfz5+VdoXnKFC/K5CD/7I35f8BrOiFS34YJ8RixqNiRg149HRWLTIU/qnImJ9/XAnX2NhkM12P71Ybywlv/taT/f2Sqs+eAoPtgp9lsJ3EL+f9PaI9vSR7Uh+jDiNBY9ko/vRWqDMNoHD1zRFr5iV6E0qwKLPj6DcrHflHBBHj8C2JRShl/yRKKLOD+p0xcPL3oWV/cUuwo1x/HzM//GvF/FflPCBfnS6Rhy7BtMvvdnkege/g8/gBVXh4s9FQ3dXv8rsGhFLKzdXI1dn/wL9y4Uuy0C/lbkMTw83E/sq3GxveKeD/cX+wZU76r78+A2dupXk78Rz9z0XzSHj41LRMzCO2/FIyL3S/xj1hsgPU7Yg3zIiSagBmvfMiOOW3CfKMCWMqDiwAl5/wEDocnF97v8mGp7uPWJ8WZFu154++Wb8P2dJpGgcA67VpXipbkl8vbdGbSJZEL9MR9c2ElkaebcPedGbHl5PP7eXiTUES4kno59BLHS9jS+MXfD2Gfn47O5fUWOFgQX308rbRXbxIYT4z5Xz8AKJsZ7MAFpveaz2B/9GOZeKjK1CKrwzaPPye27cil+L5JFs9xeFwcfFVvx6DSlrx7BtG8O29y3JhPjKqztewRXvrYdJUGj8cxnf8f5dltHz5yEfm2y8P2rJMYJx7hkIee+3hcOzMPed7Yi4MGZCGonp1fu1FqapXyjq3H4P+/D86a5CA/2kg+UbsPud/6FIrGKvJyvu2VUoC/HYi32/UtznoSw/Lbdoz5Htnwr9eIUr7dahvXX02N7fX15ZmT/ZzZyi8Wui3Af7b79rL/ymusNewUjrroQoqdsObpaazEX7e9kMR6XIO/LWTj4R4m0p7+WHnW/6POqj9lStz6xCXvYqSP+ldQVA3JP4Lb/lIpEBWHd7XUWDq3hUhmBCNqZh3+fDcCbl3jL6TorurF12QsznwzDJM8SJD9biL+47/WTnVD0QyHOjumKYR24xT4HG/sLS31VudbSLOo/rIPYt7HcqyzU88oxRJW3ukBcU95lyHW5PEjsMvhARd0v1jYcxdFLrHlty1JwwkJeaxt0dByJ/77cG73OlePHD77Co1tFumQh98KhVafwVab1a0W2SrdBwe+n8PHXNSK1DWLu88WYbh5iHzimOc7gvuO3tEOo8qEoP4OVKRX4S/OYyOVcVFqJRbu9MMtioecDA6UebXHN4z4YaPfjcBYZaov5kDH49s5wdPcsxop/fYfndc+2qxbyK310lj3FAthxLz6Z/D4ULcXF5dKHh8BiGKzWHre1ktYg/+cFuGneXrEvI5XzYCi2P/MmSu6wWujVFka71myBjYVUb4U2sHpLZV7p44Q13Nbaa3y9cfBh7bu7ZKqqrmprsHgD0UPfT3bQW15t2iCXd3n5N7h2VbjqXhhZoJ1og4T+LYntPZPv+yAc++RprBqgKtPemwVHbzWkYzfDtF3Xb/bKYji8b7X2GUO6V5ehfPlylE/heXl/qdqif471z5L+uGH7RD+ajO+Z+i2U/j4483mwYPO2RUH3DNTWBgVhHQ/+6yVM+9cPIpEgjHHdQt7pYvSfMxPtNidgw7NTsWHlX/AaeA/62vgomxDx4HMIOvEBNvF8zy5Cvjc79xarb3T56pn4TTl2WiRq2ISi7OOo6RSJLn07izQZ3wED0KGNGblrFAHNxft4lL/Ly5O3PzYeQ6cxCy3+0/rrcUEs103etqnFuOR7Lbu1KHn27unG2vQBQqzfwU4ji97jTLxar3e4zQ0Iv0i0a8sj2CylP4XDedWyABf5pE3jvsJE8VUBOPKq9fjePd4I/tsCXCDKK1z+N/nYR2koZY3iIttSFtvUgluf1y580PA0E+Mn1HVbC99rm8NkXA+EjQzBa70r8axkRc/B9ye8MSnBncmMrKxL/NDmR1ZGvicGjQvF9QFleGVFOYq922OYMqGSi/cX5MGEYt1//0AbTJoditkDRR4Fb1/MfIEPGnLlvEzlHenaGY8+qJiNuXAORugG8QaAbXew61X1CsTHljyCszUImxCGcaXiujZluYArbWD4XDoeP3IxfvYEPkxUiXEHHMuv0bpeSZM0O2CMRxXeU1nS/YZ3xL23qVxeDp7G4ufk418fcGw36MSt8OOAtFeU/MCAqb7CV/wMvn5RTv9481m2xwW4uK606dxXtq/Hlff+hT+r/TDtpWl457J6fror9uCoRuTLkzS/lUSZYqV8Gt8c6Ytb1qotvSor6bQ0HBKphnhyK/wzGJ39viW/OWg0nha+4kWvvSGn21hb5c1WHOus0Df8CdN9blgrudhakYyHh+ThE6UsVrcjA67GWhvrpyeCxt6JFZdXirxJeO33MgyI11m/PbvAVFtFeBu+lUWe3AZW1lZvjH3G1pLuxery7f0+WGn3mkKMD61SWZWT8GZ5tHbCI79mmjwgU96QXPnan/BmbbL12ffCgFuS8aBpt8gr3qQ8fSdcn0Mp99vno4/VvSyVNV2ypNvFEyGTp8J3JbvWIS/0u/JR3M7a8sJr21HkFYnh4sLyGw0+0BLPpfKc/+Bk3WpOwmxR0Pw+PIje6XL95P7djlPs/tn0by2fBwmb55y3haXzQcjTVjHuShsiJg6HybcIe9NIjBO145bLisaCumU5jjIB6XfBjTaijOezitzlTFxXsl/OYHRw4VVw+a5dKDvbGX59x6smYI6Ef0Q3eB7diROWH7ZNOPre3RpLbfnqVShgwtuobrUREBWNTuXbkL3SKtILl3/KhLwJIZNcnQw6Eu39vZjIVteXlzfDYtF2jeXIStG+MSjMzGBiWt9P9Qkb8IzsDy+9pZ7XZXE9+LrXB1XlWGKxElfju6wqoI0XwgyEpWM84FdVga+EFd2rQw22fF4oXjd6ILA7f4CZgI7riJ7smp9ZLNg1WPvxSWyp9Malk/TimFvaD+EfS8RNyy/FznygrV9bXCglcDeeIyrLPVC6rhAZLI+PyUc7qGBt8lW/Ucgvxuq9Z+ET0clQRNvHtTb433wF1k8PQafsHRh23w94W6TXRvcgT/b5O4ei47KoHhjjjdCqM1j50WmclFIYGyuwlonuTpHeGOHWhEsmsj+yWs937qlGOWtfl0irBd41/sRt96djTaE3Rt98Az6f7iPS6wGffghlg/qawpOQ7KT+EzFteCfk/7xQZYUtx2sPM9HNhMSYm92bcFm961urJbZoHf5g4sIzMMhlEe0TEwg/9nna97tKpBd9h1lu+PP63x2D4Z2ZwHlWZU1kZT3MxJ5n0HDcrFM0kruPxfJYhbW/ZKOICfAgydunHO+uYIJPEluvGAh6BSbcnhiOntV78ZlloMEGN0+vxO8lBv3LBZilfvprcrzQu6sfagqy8KOlA/hg6UXV/bNec5mqnyq+WY5FvxfDq98lNgMBPiiaaMlbjkV/MAHszGDDCM1161iWU3jC78x+fCra7+lXjT/e+i8y5D0Emnjn+eLuaUPQOX8T3rK8IRDPuVdvTHbgwuX/8CzJsl29b4/KCq3vc96/XyCdPedeffrZiOPaPg/+M3ujJ7v36z9VnhHl+QrEgAlK3VxpQwQmDjfBt2gvSI8TzuCGIDfj5Ga1O8MmVBZVGwjtElQePyX+lpEssa/pXE9q4/B8HNtfifamKHRSyg8fjy5dvVB8cHktQjBLrpvL3MgEf3tUmjNRqqmrXF57/0gXO070UegUDG+o0I6HD6HCnaY6i9N93gC08caku1Uh/OyE8aswV9TTpMVzyD1YbnX/OFuNHL37RidfjOjRxvaa7IHJK1MLbQErI1/jBVSNRc9nI97QzUShBuYio1cWNdi7Q+23UYM/C1k+JtSDXAmm43QbvDDtgWlIu6wz8rb+ilH//kNKdYrRPvj7iDaozKrEGuE+0rsHE8nlNTiibgKjTiK6oBp/ujlJ0z45eOyJz/D+wRpEXvo3pD3YB4pXj/v44uGU6ZIoTWeChQsmSQiwe3jCrPzAC+ogovnzpRHQdaAi/QSYhMSAW5wIeSfEMQ/JqGxWoeyLmReFs8dVbeWUKVq0H4csws1KzYl8jeiv+GYJpql8puV92ZLpGTQaz/Jrat4qMHwG4bJebEihEXMM8aZC379aoW1ENfYXFEvXs+vTLK5pGXRZMBL4nBoU5h8Tf8tIbzHc9L+3aWuDU4OCXdut98rgHsN/HC7qqcvHOX0MBUWeCAjqLhJk+JsK5RlacXUodn3ijG+7fG9sqe3z4I0YPko2RPXZdKkNwTAF+OJ04VGmmgiidtyykDc2hfv2o1rltiK5q5Rvw7H1Oj9nyaVilRRLW96es/qvu0J4T/iw09oPvAcj66M8Bh+McBeaGi7KRXl1Cbtoid1u2bS+8/VO1yD4tLEdZDUKRpM6GzpiSG34tEUgU2c+vQK1A4U3tD7gLqGPHf5GuJ1INLaUH61moslFnG1Dx6G4eYCzD5cHBkzthH/N43HD2Sb5lJfibV2UldKSGhh6qbHz/VV+5c0J//598LAb7moWoShtwoVBL7SYgMnX6XEFz4AusG87bASKvsNMybWFi3LRDr3oVZBe71tdCPhmtfrK2IpUBVtR5hzleG2mfC3usiBbzFWTZtt1R1d/rcBT7oXa99h5ZNch7sKhvrdGoSP1AwortoOPlo78pkV2p9Hch29VPuoqFDcq6Z6yAWG/yQaDH8ktSFVWWrLGr9952D194XfdGynZGu5fnYXfxejG1TYQhCucF4IcWzah8LTijiG7q1TprddiUmS1xi9c+GO7irA2633MLZub4QitPuxyvbjgH+yGKFcmp5Zq/MLt+eHXEwX5qDjbGe27dRQJrZyKMzihiQ6j3Rxbvg2QJpP6oUdBifCB55vzMcR9Q73gZ2OFrwVn23BqE/5+z6eI/aUEwUMvxebkSxErFWCELsrK3FLNBM/asbq2ND1h+PcLN+HOCzyR9euXGHaP7QRPZ9BGWbEVqLVhX8A2IipfYovoNfC/rhu2VmJXkSzm0uCBiaYx42S3Bcl6aRV4+s3V+6Fg8cMXFnou+J2P527wRqSFI79p4ZNaFd9r7WbP+q24+di4NAmfb5Pm88V9/t34kDJksa0euLEBm27CsLttIAhnqAdBbs+9oz5Zjtxtx+DN3Vb6cNeJchTv/ck6AZMR0Kc3G0OrJ3k6ojbXE3ddU5yF+7vPk0W5zTXsuQApCP/5UoM3BEaIwUW7LiPr5lsuynHHH79ZE9QJA92xaNtzTXGT4Ik+ktvCjgwXhbyEF66I9DZ2rXGEi20o+vQ7jFmai+IuJrzy1mTcK9Jd4wz2HzmHTiFeiNS52Q/s5wXf8moc+KvhBLk8wdQZt5jB+PjNGEwKqMLGTz/HDUsrRHr9I7lraPxUBfZej9cndtw2HMFF73RJlOvdLmpD9mX27BqJCbqLyf67J7DrxwYQqW600TW4hV64zSjXqNiBXw4UG/gye2PiZREaq2urwY5rSu0I67XOSi67elVjzw/uDai0KL7h2sFzrD5yikttyIO5sBztAkKhDw5LEEbUWW8G3Hgzgto5K4TdR5rc6RuJ4KjB6JCXiRzdZMjKopNMzpjQZYTiRMvD89lzMVF8uqMQpkQ50cAE86bdqA6dgkH1sponq0viS/BXC2zhk11ZlMXqrUVqS6eL0X2MkUOwIthVkWdERBhjlxUxuBh4Fbq58ybPgjwo4i432j5hbbu1OURZqZ3SnWdQxB75voOEEhRWabfeWrMfgs9/LUeZu9FNdMguJ6q6sR+fmU8657ISHB+Ey4NqsH2Vq248rreh4tefMOHR/TjQJhB3pFyLl4eKAy6wM70KR73bYuw0VUSV0T6Y2MsDx3ad1oU1rGeYIC+q9sCAEd7oIpJs4GEP374Qg7142MMVuOeXBp41UbQWK34vRVDMdSqLsy8efi0WPav34wfL5LGGQPGHtp1QqeD/8H26mOlCVDpws7FH0bvp0kTKGHWEFv8r8NrV4ajes8E1f2keseW/tpEtpImj/jXIX79OiCl5ch6PY62JquEuRteVBk9qFxUhIr364ibVNX2uvhEz+QReS91aERVb8UL6YXgNuNL1GPzSZ0T7nJ7ef1JyZekz3Opi8vAid11WxOegNvcwl9qQjbW/m1Hu35cJe5FEEA5wPQ65Po63LrY4R87XAcdVcbFtETHGDQWzNqa2jDW/vTjZ2njavIy3cTrqUTurXtpe3yYOuU2sb45R3ZzAoCxH8b5t4ohropvo685jga+F7932Vh/lgxOtYLde2/aYFYMY4zbx0t2JQ17PK3XaiWUeHB+KN0fCmo8hx/H2lV5NyteSY4wnBJSp4pB3RptNefjHkmo5Lri/HHv8V+lcH5RKx8QDbyjqDdpQWyx1hlRfJYY6ziFn03F85xeojSGujxnOMYgbri1Liz62ee1tMIAvDPT8SETuW4/L3xdTluzEITdEH2NccnUxjl9uNNizrv4p4pnzEIpvqqK2OKqLdEy9oqg2DjlfGOjObvl48amf8F+Dt351jkNuiAilpxITNnGS9TGh1ajiQ1vjWqtjZzuqi3zMfixn27oZxV12Og65TTsM4qmrQtA5dAMQ+TTPrqovNBjlZUJMH9dc30eG/WlTlkEbODb5bGOay+UPRpXR+RYM7oEFVZmib/Uxyh3dG0fH5LqpYuOrsDyfUhvlmPE3zcuRnyXh6vGpQdsMy1TfMzttUPqSu6go90equyVGPb8HH2Npx2lyWE3xfDr9ebD7+bK9t7W2QYHikBMu4IYg5wv+uL84DtG6sVkYiCDOM5wX5ARBnBcoYly3WJd1INTBZiDlLKPnLceLMW3x20vTQJqccETDuEgTBEEQBEGcD4hIPLbhIquQrl3Fy2U2LlqDPeX+GHX3SyDPFcIRJMgJgiAIgmi9iEg8NpNw/eX5DajLJNzsBbjnuXQc9x+Fhxc8gAEimSD0kCAnCIIgCKL1wsN6Tl+K30/1xS3q+OIrxFL6+mgrrrJxLh5btgdne1yESaTICTu45ENOEHWFfMiJ8x3yIScIgiDqG7KQEwRBEARBEEQTQoKcIAiCIAiCIJoQclkhCIIgCIIgiCaELOQEQRAEQRAE0YS4Jci9vLzg62td544gCIIgCIIgCPdwS5D36NEDl19+udgjtPjDb24yLl40C51ECkEQBEEQBEHYg1xWCIIgCIIgCKIJcWtSZ8+ePTFixAh88cUXIqXp8brmHvSdMQDeYl+mCiU/vI2sDw6K/caAW8jn4IKILByYuQClIrU+8U58HAPHdxd7CmU4/sHjOPKD2CUIgiAIgiDOC1qYhZyL0gew7e98exoH/6pC58n3InL2BeJ4C+KMGTlzlbbOx9FjHdBt9ovoMVkcJwiCIAiCIM4L3LKQh4SEoF+/fvj5559FStMjW8jDUay2EveKQ++XLoXP4Z+w75//Q6VIBsIQ9MYchFqMzHrrsmzlDu+8CftS2iKMldFRSje2uBtarE/9YWMh1+er2rYMO1/YIPYYUn1HoYZdI6ftTaq82vpJ5VxajZznX0bBTjlNeUMAXZk2ddPXq+tlML18Ddpm6K7JBb+qfBl9v1nRtkW8JbhQ7jW7byqka9+AQCWb21b+q3DVf9/CwKLPsOijMNz43KUIEEeKNjyKN5L+K+9EPodb3piBgD8exdLsO5FwUx/4SAcqkf1FPBa/vUXaIwiCIAiCaEzcspDn5uY2KzFeG2cLj1nFOBeBi+Yg+MxP2C1Zlx/Azp9KDK3LbcLHo/9zPVEkLNE7fzqBzpPvVOWTJ3BK4thireaW+VPiuIJBvn/9iqqL4zHwiUtEHgVvdo2HMXDkcRywlHcO3W5/FF0Hiix2qUJlfp74WxbpPbv8JOrFtns+xwlchF42E07la/brtVv0yXwcLTAh7FF1PiHGOzFBL8rb+dMxls7F9msqMc7zPSu77Ih8fy05gPb6NxVCjPsXWu/Dtnu+h+c17k+Gbd/rJtzz3IU4/HwEno2NwNuf7UO7S57DrfcOEzlk/C95Gff+zQuZ98j5Fv9ajojrF+KaWJGBIAiCIAiiEWnBkzqZMHyQW7bLULxJZTGOG4PAdmYc+9BqMa9KWSK5fARMuQ7tRZpMGY5/ZLUSV60+gFNoi3Y9hbDsNRndLvRGyU+f6yzJOozyHUjFYSZovQfF2Ajts4eZSLVYsYtQttWMqrYBaBcmJdjCxG336wbA+0weStZbrdDVX7+DfWoLfMEvyNvERHTHXkyAizSFU38g2/IWIQdFu1m+dl3QTqlbr2h07s7Ed8aPFut6Vep6nDjljQ79L7b0m9c1V6Nrd9Zvn1qt8NVff4oj3H0oeoJVbPuFoF3HKpTt3mYdLLH6me+rg9995UGk3XMxvk6Td0+s3YBj5e3h36OXnKBwcgM+vWI8ft0j72av3olC1gL/AVrhThAEQRAE0Ri4JcgDAwOlSZ3ND+5H/QYu/i/fFGuu2gUiDP79u+Pssf04pRHQp3D6xCm0CQhkclvFqQMoceA+4T2lFzrqRLAR9vLV5BQZCm2NRZ/BhfVOTTsYbU0Imyfa+o6wNMfrXUxska4p/lZTtf8vh0LYa1CgbsKsFWt9/dFhqAneNv1WhIrjrHS1wC/OxWkm5uvVx78iD3lCZEtkPYVProqwuqwIKguzWY1UrL8Fb8X2J5cVgiAIgiCaBLcEeceOHaVIK80P7oPM3R+E20jH/kygq90kItGuk3BFkUS7sj2r8neub/zh041dVC2gxXahTVQYF7BM6uQTOnmbRiHQZkIndx+pn2tWf/0NCo4xAa2ycktvGzqq30B0RDvuEN7xIvRSXZNvNj723Bo+k9dddpeR89GkVIIgCIIgWh8t1GWlCMVvr5LcKTRuEgVZOF0qXEIUv2X11iBhCoV1WBMVRb25M4lRTQ7y//MrTkHvciN8vrtqr/vXkl2GFvJaEYMZtdgeOL6zbhKm/KZBmjiqaaPYbCz4rO4PiGP/kttAkWIIgiAIgmhttFwfcou/tNpKbsc1xU0MXU4kf3Gttd2ea0q9ceAHHP+LtUttJZd8voGqHem1urE4g+J7rx1U6AcTBq4pznIgFfslUa7y0W9qhs/B4tVpSEv7BI/3FWkEQRAEQRD1TAue1GmddGi1kheh+JNtONXxIkS8qp/A6TrVGTtQekplmeaRQ54cBa+T2igrsrtHBycjpbiDaJfaSi75aDMh3ftCq4tJ4uNuu6w4O6iQ+vy0PkKLLTwCTB9dhBnJ1x5ncPqQY5/8RiMiBAHSyC0Ul9x7M4KkRIIgCIIgiPrFLUFeXV2N8vJysdeMMbKSc0vsPZ+jKEDvR/6K65MLuR/087+iQvFJf+dy1Hz6CLK26R1fuGvG0zi4p4uNH/ngehgYSOit5KJufPChuJjwsIb73HRZkSOlnFNNmrXTBsU3vNTAj1wlwPlE1UMnx2uPS2Eh6+rCU498sRS/5JwROwRBEARBEA2DWwsDEa0NZaEfD5uFe+wtSNRSGD5nMZKnhuH4mrtxy4t7RSpBEARBEET90aJdVoj6QkRPMQgDWb3jhHuTRM8Hhs/BgxPC0PboGjxLYpwgCIIgiAbCLUHefMMeEg2DiJ5is6CQ8eJL5z/DMWfxaqS9PBV+uz/ATbe8CJLjBEEQBEE0FG65rHAxzhcG+uKLL0QK0fJR3FZ08dp5iMMGCRdJEARBEATROiBBThAEQRAEQRBNCAlygtDRrVs38RdBEARBEJzjx4+Lv4iGgAQ5QejggvzMGQp3SBAEQRCctm3bkiBvYEiQE4SO+hLkfn5+4i+CIAiCOP8oLi6W/ueCnOu+3bt34+DBZrJ4XwvDrSgrR44cwffffy/2CIJwh7Ydu6D33/+Nix/5AV2HXCVSCYIgCIJobbTslToJohni0aYtTFP/gQvv+S+8/YJx4s/vYJryMIlygiAIgmiluCXIvby84OvrK/YIovVx7tw5aaupqREpztFt+N8w5MH/oUufMchJexsHv3wGBb9/iaPpCxE+lYnyodeInM0L07Rn8d57ibiE/X1J4ntI5H9YuASJ7z2LaSaxy7kkEe/xTKZpeFZ/zCl4me/JZRgg18edcl3FoG2aNP633C/GmDDtWdYO3ha+PTuNpTQVRm2pDXv1d6eseoA/V0pdHPZ7fVOP7W2SNrhQf+kzq9SPbfX6zDpbD55PVQe22fkqcBN37mdD18ld5M/os43+YSTqG7cEeY8ePXD55ZeLvWZGpxsR+c9VuOTpzxExWKQRLYqeT27EE2m/Ira7SGhkFDHO3xS1b9/eKVHu12skLkz8FKHj7sbJnT9i36f/xKlDW8VRoGTfehz5hYnyyQ82Q1F+Ca6eAqx+PgV8+acNW7ZjyDDVL5EpFCEIxsUjrT8IptAQ5OUeAcwr8PRdT2OFWRxwiTzkhVxh8KPJ6xMs/m7GSMLmSYR8dxfuuktsHwAj6/Qj7o6QcJMGqb8aF9vC6zMTWKTU5flchDYLQeQIXRubext4/Z68GNueF/Vj26LcEPQQhxuXPPadI+qxiH3nzGzMAZg9mmOdzFjx9CLkTrnapbrccMMN4i+iueCWIG81BM/BoKe/xoDYi0QCQUAS4FVVVXjyySdxxx13OHTf6hDcGwNnfYjIaS+i7NhO7P/kfuRv/p84qqXs0O8oy92DsNi7RUpzIhdHFVF9JJcJ5VCL1cw08mLkrl4NhCg/2yawJGzb5JYK15CbC43Ql7hkGIZs347tYrd5YsK02VOQu+gupKgXsWUDlBXnxaK2zbD+PdiwLy8XbJgnc970pYpm3QblnmsH0BtS5IF4k7JhC/u8hyC0MQaiztIc6+QiXJTb26644gqRi2gsvMT/LYfS5ch6lW1il2hkbvkOjyUMRDuxq6Z067/xzj/fQaXYPx/hlvH8/HyksB8p/qX1008/OYzI0ueW/+BMyQkcWP4PnCkvEak6PDzhP+AydBt6HUoPbYWHYdwjbmljX5BMhQ4ZkotFd23BMM1+I/5omjdhG2ZjpGkFzGZZfOd+cBR4chir5Qb2rwdCgnOxRfpRl+ud+zz/keevVp+EYtzebhF79tJZud98x8q9GpesUNrH8l4RgtUffIeQIdYfDO5GM3OI2Nm+CHdJBYhrr87FlCnywbzVz+NpRW1I1sApUGzt6uvWGdNIXBy8Hd85Ks/u9e3VuwdLnwmeMuTJ9zBFaid0zwXrJ6faZb/PJZypP6eH9VrqvnV0P+S6KrVTt+WI4zpxATRzJmZP22S9hxKO77PDZ2PRNlw8U19/B31jp73G95JfQ3+/7LXB+Xrysr8JfRZPigpa6+GoTTo09d0unpva7rlcvvpZYwku9q3AXj/agw/C87bhGyWbUf2V6zrxec9bvRpsrG/FQXnW9m6RjlrQ1amu30FSnaZcLL4rtcesdarlc+si3377rfjLliuvvFL8RTQWZCEn6pdPrsC/YyPwLNu+3VEFlGzD//4m7792notxbhnPzc3Fyy+/LIlxzunTp6X/7VFVnCtFU/HuEiZStPj2GITIac+ic8QIZH/1DMyr/w81Z+0J/GCE5H6Au6QvZqP9BkJySVFjxtFcdm3JIM7EN5Pnm8wbsGW7sBZJFuwttnW65GpMyWU/VOJVuPxDIv/AXLzteV26Ai93CCweMlw0SNcT+4INKeI18l2LsJ0JdasbRDCmhGyRjy3ajmDLa132Q8l+7LgFWDr2/GqEzKxnVxC1JdSG2q5vVO8NSOHtU16bWzpK/Rw42S7De6HDYf05rI5Mr3ygqaOMo/sh11UcU7el1jrx9j+PbRc/aeC/a+8+1/JsKPVn/YQps+Vjduthr732+tzoftlvg1P1ZNcdMvM9NhwWfahrq902aeD1VbmlLAKuUDKp7rk8T4P7SmufS/V3jst9K2GvH/WwfGwgI9VhGLu3T69g3zwcB/Xn5zjxef+AfYso2rm28vTfucZ1qqUv6qtOdp/NI8jNO7+t9URLEuQW33GxPf6+9Q26ivZTFuGSf74If13+YTdcLXIEIeDGz+X0u2LRCd7wu3S+tdw6uLAMf3Mvnk7LtmwPv3oP2otjavT57nj0AnFEpif3of7ySwzuPAc3fl9LedxirSrraek8cUyFVKY638dvQZtNvpZ0DV2Z+vo5g9RGfo2oBbhrTS1l6a53W2ww2ohDGvRt1bVB6Vd9P9lLV8Mt41x8L1iwALfddptIBdq0MayJheqKUzj4TTLCYu9Bhx4DRSrQLqAHTFMfRvcx05G38VMc+G8SyvMOiKP2yNO5gej3G4bEJ0PwnU70W/zIufjOPSr9KB0R7iUW/3E93NVlyEzt5CPFKufAQrbhGyZwrpAnll1yNfsB+876I2jBMlFOtkhaYWLoG1Fz9StmaZCxHVuURplX4LvtyiCjngh24Htb6/Xt1NsQ1XPgbLuM7oUeR/WXYHX8QNwLfR0d3A+7z6wzdWJXW/E0EyOS6FULWgf95ejZUOqv7ie79bDTXpefJTttcKae0nVVfWjzbNhpkxqpviphOXMIu9Uik+qem1c8zUQfH1Co0d0/V/tWwk4/2sDycUHK+ilvCH/7JnBUf36Ovc973mooh8wrvrO2q5bytM+rnTpx3PkOcrVOdp9N/kx9h5AnE8W+lrFjx9psRPPDLUF+4sQJbN68Wew1EyRXlanY8OxUbNt4TCTaocNQ9H/476j5Qc6/+du/cG7gbCG081G4/AYpfcN7aShFFYp/nSPvS9s12JX2h1yOC3DRd+WgfPw6XbYW8+0X71m4alqAyMG5HFOWHsCVpp0Wq/KzC3ei6+U/2QrVzhfjui9n4OwHwyz5vIc+hunqfMJ9pOD78ZZrPvu5Ny6bqxae8jVviz2DTEvdUrAn6Co8ZCDeO7FrzEnojE0i78dpeQi5/GvcoGmHk5jYNV7oj3232i9LGigkmHDgLdFOke+sOK5gm0+0QSXKf7//QWw8dpa1YTqilQmhrI8mDvKu1Z2GW8e7du0qbQcOHMCePXuwb98+bN++Hd7e3iKXMWVHduDgypcQNj4RnXuNRujYWQi/fA6K92Vgz8f3omhPusjJPpBtm1/0opTnc3GFPhoE/2EICcUlTHxvF0rEvGkbEDLSvv84+2F+WrIEzZZ+ZJyOUCC5yFyMkZdMwxUh1h8wC/zVrmWi3PNYnSfS6wVueRJ/Kkg/liqfeiN4nfNUlv3mRm33oi71d/d+uPJ8sLwfsII1k4uNcLouJrBHWcbd59RV1G1okGdY1SYbuAsEv5bYuKnVfJQ91fbEsQHu9K07SP0UorJacwzqXydcLE9fpwa5f0b3yN6zyd80XoHc51PEvpaff/7ZZiOaH24J8lOnTuHQoUNi73yEi+xnkf2nvFe9dxOKy7zhE9BTTqh3LkfXgDbsw7QNm1Vjhd/vH47PVxSKPcYt9+Pi7uXYuTgBfyruxp9cgbU7qtBjzGs24vjI99dYz/9kHbJPM50eMtUitntGBMILOTj4iWpVLVbe22rhqVzzrWuQZqnbfCxfuhOnmegfdZduICC5oFxqyXvoxz9RcLYT/Hq5syplqea6tmXNwSVjglG+NQUr1f1kg1E+0QbTWEy2CPzvsXr6e9hzOgyXvsSF+hzcOH0g2plX4sNa3Gm4JbykpAQ333wzLrvsMsTGxmLcuHF499130aFDB5HLGA/PNijL+RMHv30R3aNmoKokF3sX34UTf3yPczXy0MKjjRf8+8XANOV+FO78UUprNkg/1DokkTwFM6cAFmM4zzdkCqYEOxar3PL2PPvFCuG//EL4aX9s9Zix4rtcTOEX27ZJtqypUU+UkyzuUqpjpDapXWGY2B+iWDkvgTUyhuyeM2W2NfQbt9IHG7nk6M5b8Z3sXqARdOw60/i+w+vXARfL1dwLV+rvCHfuhwq7dWIDMutjwucuBBu/iVHjsC6qyEDiTY26n7T1cIArfW6vDXXsMyuO2yQh6mv7mduAb7h3yZNORg6pQ98ao37+tHDrca7i9mK3/g7g5wRPwdWiYaZpV7ASBO6Ux9DUyd3vIDfrZPtsyvN2HBoJiGZP6/QhP5OLk3tct3K7z/coKGTCi1uEbVxBrAwf3RvtSg5gz1qt+CzIO4mznbuim0b36YS2AYeyT6AaTHwutR8iULomilGYqRO8BgJfojgHh9RzEzNn4b1JEfjwZTeW0jVoq4ZbxiGiXSnM65c79j23l+/AURTZDBYUoc7uRVoi+rXLwa//ug92pltq4KLc39/fYinnW21ivCznD3QbGWcR5eXHD+DYr4tRXSlHZuHzNzuEXQTTpAfRtnN3HF71Ogq2fi0da96YsWlbHpCn9ufm/t7sP0OxyrC80n0PT07JFW4q/FUrD9kl+9TatUhu+Aar8+y4tvBjbHDwJD9/doitRduQDUgRLgPSdSV/TWNf/A0pz1vLZ9vMkNV43hmL3IYUi1uC0rb3ZgObpFOdv74W3sfiVbZxRzlXruG90OGw/g5w+n7o2lJbnTYcRYjyCv+9JyVf2lonAzqsSx5yQ2RL43uSL6/oJ2f6RoOjPte10V4b3HqGjbDTJg1yfVmlRD3YJp4lLvS4v/JMJf29mQhZ/YFx2FJ3+tZtxGBBGhjbr7992DmL5AEmzz8b26zuIW6Vx1HVyd3vIFfr5PKz6Rg+cdPeRos/Nj4e4eHhhjEdHMHjkF900UXNdvl87id+8bAzyF58p9V6JzA8xv3J75wJ/0NvY8vn34hEBg97eNelqPn1SbfcVPRwt4pbVP7PWjcJ7jryFkZ3t+eTzITjdNkyLZfDXUyslmrZxzsRoTt1rhfcR/vZiQhWiuUW7lv/ZrHAS6403EVGlSYjl9cvfyVev40LVv1+7dgv284xUdfqH8bLAl9yueFuKGM1bxL07df3q54j34vyVMguRN6Gx7p16+Ywcoqz+Pn5wcOjDUJiZsKzbTvkbViGyL89g6wVT0nH2wWY0HXwVCbKPZgI/xLleful9OYHt1zx16HuxhMniOZGS3ymm0ub6PvCLUzT8KzBfB3n4H0+DFtcOJcHJvj888/Fnn2Ki4ul/9u2bYsRI0Zg9+7dOHjQDQMcUStuWchppU73OPT8aLwg+TffI3yZH8M9lomEwoquikqi3dTi2wWEBZuXIflec9/zxcYTO40oLdiBKvF3c0V+E8DdX6x+5upNL7i5gJ866DTM+0+47//uJOfOnUVu+iLgbBWCRsZJaV4dAxE8+mYEj4pD4Z51OLzq1WYsxjkuvsomCIIgXEJyhVPcXlyC+4/zNxnfuCTknRHjROPSOl1WnKX8ECoaxLec+zLfJ4vyroOgTAk0dk2pP/iA4BNJlFuv8fvG/TjduRf6TdSJUmfdRRoSQ5cT2V9cYw03zGeHqAWYOjZY8jf/9M7l2H+6EwbeutDpAYo7cFF+9OeF8IC8omfY+DtRWXAA2V8/j9KDv/McUnpzRnqV7ZblhiAIgrCFC2nhjsK2mUO2Y5EqjKLzcLe/u2p33yKaPSTIHVG6DZWnAO8+VzsIYeUMc3Djcp1VOup6RAS10VigDz3/BROIYbj0Hect2I4Y/ubvOuvv5eg/oCvalBTgeJlI+uRNbDvmqxOlymTHn/GDw8mUDUzmF8jOP6ua0Mrdeu5CaHmRNspK5ixs3l2FHrVau1m7np6I4LJtWDuPu/VYJ69O1ESeqX8UUZ6buRQHv3weJ/5a6yDeOEEQDcsGpNzV0lwqmkubWmLfNgSykLZEUSGDR6unxQhyr+GvYKiIFX7x6O5A23BE3CHvj7zjQfiIfK6xB0eXLUJ+lbUs9+KQM+H3egGiv1DFyH5B9pXWLpbD8l1+DzaWDcZ1X6ry1hIj2x6/3/8kSq/fpCrnHYyu/h6v/03t0y2s9Zpryr7o8530FdegigXOfbTl8IzyvuttEFFR2illvIOwbRPx2v+OolrkUPj9/r74OK0c/e7bItogNkvoRlnM92sHHFn/sLX9IoqN1n2o7nD/cT1clJdk/YazVcpoiCAIgiCaDu4j7mgjGg+3JnUGBgbiggsuaH6xyAmiHqiPSZ1ckPNJMARBEATRHOG/c86KbprU2fC4ZSFvlgsDEUQ9wr986rIRBEEQRHOHr6cRERFh+Dum3oiGxy0LOUG0bIZjzuJkBOX/iTNF+7Hx90M4LY44y86dOxvlS8yrgz/CJj+KDuEX41ja2yj88ztxhGitcKsX/YASBFEb/LtiwoQJKC0tlRZ8dAaykDcc5LJCEHbgz7i78KX2G1IUebRpi+6xiQgYNBVVRUdwKmc7Ai+6CkfW/IdEeSuHBDlBEM7AvytGjhyJnJwc5OU5vxoVCfKGwS1B3rNnT8mX6IsvvhApBEGo4Z8Re6KIi3UPDw9pc4fAodcg5NKZOFddJS02VHZ4m5TeqXc0QsbchiM/voXC7SulNC2xmLtqDqLEHl9sKjVxFhZmsT8jE7AgJRoZyr5L8HLjYebnRszFqngzEmcthFJM7NxViDcnYtbCCN31gcz5UzEvTewQ9YI9QR6ZsAApcWbMnzoPUpfHsns1R74bOan8/jh346VyojOs99hOOfL1wqS/2Z0W141EwoIURGc4fz2CIBoG/l0xcOBAsno3EyjsIUE0IlyMt2/fHlVVVTh3zrWxcOfIEeh/5xIEx8xG8e6fkJU6xyLGOaX7M5C7/mP0mHAfAoZcJVL1cBE+FVOnTkViKhCXlMAkEiNrIWZNdUeM60ibh/nmOMyIFftM6MebUpFsKdh6/anzMxE1Zy6T80TDE4sZcWB9L8Q4H0TNARPJ/F7MhzkuCQnSg1AbvBxFZHN4OSZxT7XlRJjCpAGXdK+VQQCT8Atn8Xwz6L4TBEGoIEFOEI1IRUUFbr31Vtxxxx3S7HZnRLlvUC/0vf09hF/zHMqO7UT2Zw+jYMtX4qiW8sNbUJ63F93HzhYp9slauAyZYdEY55QQc560JakwxctCP5apQPMyq7VcQ1o6MmFCRD1fn7CHGdnKjYiNQVRmuhDJaWC3DNFOPAiRCfFM1aeyYZUgMgKmnAysk8pNQ3pmGEwR0hFGDszZ4k+CIAjCISTICaIR4a8IBwwYgGHDhiEhIcEpUX7BTa/Cw6Mtsj9/FMczlhkvKOThCb8BY9FzWjLOlBzH6YJD4oCzcLeTBUiI5C4Fq7BAMXNyd4QFworO4a4tq1ZhlbTZsW5nLURyRjSSFizAHMy375LCRaFFzPFLKeWyba5SsqhXAquHOGapG0dVnwWsP+U22B6zW9dWSmSECTkqtZyVbUaYVUkbw/ozybQM89aJfU7WOmRAGdTFIiYqE+nS/Y6ULORxKQb3jCAIgrDBLUF++vRpFBQUiD2CIFyB+/cmJydj6NChkiivrLQuDWXEmZI8KZqKdxe1q4AVn9CBCL/maXTqORyHv3kWR9f+B+dq9Esn2cKtnWpBLKN2KRBuDRZ/cLYv+ZkLN4T5QLwdocWt72ZW3dQlejVuFWmrYtIxVeVrnjZPcW+Yj8yoeJULBTvHxPIKN5cwi7sDr08czMItIpkJQ6t/uvN1bRVwS7b40z3YQC2J9afN/WTPSzKT5NI95Q+L2jVF9L2NS0w2zDn0ZoQgCEKNW4I8NzcXP//8s9gjCKIhOVtZBvP389F97J3wDR0gUsEEeihCJz2A4KibUbA5FdkrnkLl8dom5lgFsTTBTyWIraRhHhOwczQCiyGJOpWgnhNl16oay5V8ptnqo25B+JAnpiInKkYIawG3xkvWbO3ET+kcRQiq3Vwkd4lUKIckFxz5T5fq2hqYm2LCMosft+tEJiQhOiPZdo4BfwuRBCRLwnsq0mNWwfJyw4LsymJ1ieFifRlMKfTWgiAIQoFcVlowXe6agbs/+6dlu/Vf/cWRxuB53PIjX75+O/42xUukERzutpKUlIStW7di4cKF0iTP2ig/uhPmVa+g+2V3oVPkKITEJCBsyiMo2Z+JA0sfRMm+9SIn+1C39RV/GaGaVOmWQOPRMpTz2Wbkj8KE9RwTE8rzliAVqgmearhbS6rJarXmwo7rf6ncRKRanJTrghN1bSXMSzQjXuW2o3dR0buwaJEncobFpciDm5Q4hIXFIWVBAmLHRQMZ66xvOdIzERVjLLPNFgf2SCQs4FF53B8gEARBtDTcEuR8WXAeKqfFEzkW13/2AP6WECwSzi9OvrcE7970Kt699wccKBWJdST6vSw8vSIV/UhjuwV3V9m1axe2bNkiiXH+WXIq/KGHJ8qP/AXz6pcRNCoeVSW5TIgnomjHDzhXc1bO0sYLnfuMQfcJ9+DkrrpIHeGqwv081FFQsrJhRlQtrh9MbMWbkJrMLe/cnSEVJjuRVCS3FsWVgQnCsBwzJEkYOQ7Rxt45Wnh9mDBUBL/kgiP/6WRdWxFSf6hggtz6hkKOwJKh9V1SkYZ56oENf7uRkyqFPUzjwj56nOUtSGxMlK2wZ4Ot+Cj1BM8ImMJUE0wJgiAI9wS5v7+/NDGtOeF71TWYobIGN51lmJB5Ep9MiMCzsUPw5era/ZnrhmKN120LXkFzGzf4+Phg8eLF+PDDD50W42U5f6DriL9bRHnliYPIz1yKs6crpON8Sqhvj8HoPv5etO3cHUfX2otD7gzcejkHptQlTIbx6BsmzLFM6mTCTIqVKCylfNP5J8TOTUGceZnVtSFrIZZlRjFdbyTJ5egekltLmmxNT+FlJplgdspCzl1reOhEuS5JyLC6rDhR11YND3MpuSXxvuGjLxHyUj+JtzbS5iExI1q+b2zjk3jl+OJsUKf0u+TnXw8hNQmCIFowLXBhoA7o99QMjO95GGtmfYcDItUtuIU8eQjO/rAcXy50fhWrZkfgYEx6aTK6H/gWi1/aLRLdg1vIJ3bbjOVxcdjT0DrbabggvwWBm57Am/9aihqedNdaPHljb3hmfY7kWY+gsatanwsDeXi0QdCY2+Dh5Y2CTcvR8+qncOirZ6RjfKJnwKDJTJR7MBH+NSry6/TEn99wt5c6+kq3BIwXBuICWSze5EAY80g3MekNvVgTr0sM0lv5fSKIpoYWBmpetDpBzv2qbxx5AmseMyOSidReneT08m2KWBXnD+ogH7DhDHJ1Ap1b56+/pQ87U+bM4Q34as56WOLQqATx53/1VeVVlSXyhJ/UncuQy49Aqfq60mBhBLrJe4xy7F3wDtLWil01dRXk45bivqfGIMCefiz6TSXQZXEcacl7EOsuH49fTotdjlTehciZ/y06zolneYvxx7+HI/+6vZjY11NXnpJfdX39cSNBjutx1X9fwbDAbN31lXRrY4p/U5/HkMR8G/xy+Vvo/Ikqr5G4V4S/2FX4eOZYu4LcHbgoD4m5nQlvT3QIHYAjP76JLgMmoq1fCAr//BansreyXC5/lFsUXExy33X1KqGtEWNBzscrupU6bWgMoczfwNBKnQTRHCBB3rxonZM6Ow7ApLcvxdnlr0o+1os/2YdzF08WvuJl2PPcu7LvddJmHJdE8yfyvrS9oRHjXODfeksPHFkgjt/7Aw53uQTXzh+DriKPgu/FV+LWuA7YNU/Ou/ynkwiZPA2xE9nBE1k4fLgMbUPCEaHxBuoA09BQdDi1H38q1+UC+8EO2Gap07v4acc59J11j1xWfbNuOt6S3E8isHYfk61cEE+W96VtmlocK64qEViWUehQIobfeQVOzZ+DrSc6o+edmzHB6wskL9+PGv9+GDBBOJtwwfv0GJR+NUBc75/YenYkbkx10o+96DjyZBdrieh3n4TXh32tdWfX6zTqBdz/0nTdh+ECjPv+VQSmD5LzPbsehRfcgHvV+YQYN385UJS3BFlc1bP+qW/OnTuL3PSP4CGGDXxSZ2XBAZi/fZGJ8S08h5TeuuDiTrhFcHeJqEw7UWMITtbCWXA8kZf7ije01VoOh0hinCAIQkvrFOSSyF5hsSaXZx5EbmlbdA7qIic4CxPGI0YEoXzbT1bL9Ik/sf6rfagKvwgX6cXxqV1Yc+un2LxL3j255jAT/Oy64fJAwLz1KMq8uyEsSjWJNDAS4eEdUL4/y2rtZ9dY86Da+s8GEUt3sbJ8ETbifPGX94P/yTVYuVpWy35dTuLnex8V1mc/+PXjFr7rcfXEXvDM+i+WviH7SwNf4Ju3M1DoNwqXJPqINFt6PfcEhgZ6oHjvV9inMmln3D0UX65SLazz3jvYduIc/Ppeiz46gc8t50veKJd31q1AdiHL13Wo5UMTPTQSnkx8b0gRefAUMjPZIIQNKBoCRZTnb/wU5pUv4eTONKfijbdc1LGu+UYuEARBEMT5iVuC/NChQ83UXcVJqo4jJ9Nq5XYX36gLENKpHDmbtW4g5TuLUW4R2lbOFBajWPwtkfUzvlBZ3MtXZmDvsbYI7N/bYl23dw0bigtRUk+RVBqLQ388bXX/0FmyJcZNQ88AD20+zrqDKGL/+YdO0zzAfqNewJNiQuf0MW3w5/w++I/aFcWQL1DIBLktxTi0LtXBudcjQOX2oqVQ/F//cFFeenATzlaViRSCIAiCIM53WqmFvH5o18MPHeCLvrN0kV00vt2uUIC9u/NVbiuyu4r34T/wh843XB9j/O63rf7wLYZ+wfBnmrfn33bpIqiofdStcIv288INpQZ+uOiGF22jrHB/dF1EFslv3WW+wMq1B1Djzy31Stzv5xAVFQCPrN/FfsPDV/CMuO4FDHrwWwQMvkKkEgRBEARxPuGWIOcLmXTtqveQbn2cPlKMMmkypeLLrd60vubOIrmxKG4rkruKN07s3q+Z5ClNTB3fRevbXo+xxpsNe/JQdA449KXiP67d7Fq/35uItL3sSOQkXDVVNblNmRx68HMkq8pZy/O6Qa8wJr7Z/z3/tlOI+xmIzJYnfjY0Hm3aInTSg+g/+1N4+wXj5I5V6MH2SZQTBEEQxPmHW4I8ODgYY8eOFXstGMkNxL5vuT3XlDqRtRl/7aiS3FbCuLtKO717TVf07R8EqCd5NiL5x4twzr8bghvj3Yod1xRnyPgsE4XntFbyXhMGoAuP6PL54/UQBlG2hpcoVnllcyLEIg97eO6c+5MwA4deg4GJqfDvHY1jP7+Lw988h8KtXyN3/UdMlD+AgCFXiZx6VLGhpW2BvCgPh4cMVO+7BC9XPpdHOlmgL4THtpZigOuvb7TMOtFQ8Cgrq1SrdUr3RdwHm3vmAKkcS6xy7cRa/f3kz4N8THm25PyuXI8gCKI10Biy6vzlxDGUnAJ8Bw7FCKN1kIR4tkRKqRfkyZ1VIb0x5LJQeOzcapkEKlOBosIyoGNP9FSuyUMgNpLLyv4c7h99AS5+Nr4RHp4nkZlRiM6jXsCMB+xP4DRk3XRs4RFhVFbyA6zu5+CHnuPiRN15CMSDbrqsbEPRSe0kT2fgYpy/YaqqqnJZlHeOHIH+dy5BcMxsFO/+CVmpc1B2eJs4CpTuz2Ci/GP0mHCfA1FuXTpfWjeHL8rDk/lCMVPrvnhLmrTSzwyr6OMCjK/cuUSZbqlaul9a1Md4FU+ivpFX40y1LFfPBkdz+Gqs/F7Mt66YWivyMvpWIpC9TNxP9kCpV2XlYjzenCgfszxbfCIuv576GSEIgiBajCC3rtR5txxDnIc2FP7V7q/UWYCNz/+AA6dDMWKu4q+tXkpfDpG4/KdTtn7kC65AL5HLVaSoL6e7whTuYTCZk1/zc2w9pvJdfyYUh17Tu6x0xejXxHEh1nnYRbl+dQiP+O5EfMpEst+oZMsESs1S+nevxVMiPT6au3Tw8IEi34KXXV4588BTw/Dc8v0w2fiR/4TL2olMdrCxkr/H6r5eFvhy3eWwhu65rHyBlTzaywU3IElTL75tF3lsqaiowK233oo77rgDxcXFToly36Be6Hv7ewi/5jmUHduJ7M8eRsGWr8RRLeWHt6A8by+6j50tUuzDl67PDIvGuPo0VoqVOS1L1sfO0K7cqSYtHZkwIYKMpY2Earn62BhEZaYLcS6vmBrtxIMQmRDPVH0qG1YppCFNGWtpluePRYwpFckU3pAgCMIpWuDCQATRCKj90TVuKtNw1X9fxZ+PjDNcnKWoqEhaNp+v0vnrr79i4cKFtS6hP+iBL1FdWogja/4P1RV2Jgp4eMKvfwwCh1yLU4e3wbtTN+xf9oA4qMBdRtSrNar3lb+TgSTVwi3crSHebF1sR1oNMw6yjTRTLDKjK5fnSQLrl3UYtyAFpmXKyo+6fLqypYV9ong+RuZ8TJVOEuekmhEXJx/MSVUtKqOqTw4Tiua4aG09bOra8rG/Uqd10R/udpKEZGs/8nsRky763A68P2dkY9aSCHF/dTHf1WVIf7Nej4qCdNdy1As2aetCEETTQAsDNS9ajIWcIBoVEQHGJiQjVtgJo2iFi6Xk5GQMHToUCQkJqKysFEeMOVOSJ0VT4cvkG+ETOhDh1zyNTj2H4/A3z+Lo2v84FZ+cWzujcjKwTqOq1C4FTDhxtwa1kEqJRobF5QRWS7gabiU3x2FGwjhEIxUWbxWJMMSlCL9iLt5Uoi5tniiXFZwZFa9yoWDnmFhe6ZqZCLO4O/D6xME8Xz4vmV1N0fNO17W1EBkBk/jTPSKRkMT6U3szJWTfdHE/1YI+ysQGR3L/z2fPQ5Kl/7NhzqE3IwRBEGrcEuR5eXn4+eefxR5BtEJEBJieFz2rdcO5aw1i3fJJt8/ZyjKYv5+P7mPvhG+odTKDd5dQhE56AMFRN6NgcyqyVzyFyuO1WTmsglhaRl1v5ZRIwzwmYOes4mpcZcWURJ1KUM+JQpgpQhzUkpaeiag4JpaX6csXPuSJqciJihHCWsCtqtIEwDkqYc1h5yhCUO3mwuuTYxX8kguO/KdLdW0NzE0xYVkdLNKRCUmIzkgWb1a0yCuAsnuaHsP6WjUxONPqqsSfB2v/80HfMphSaP4AQRCEglvKgVv0CgrUgfgIopWxbjreek5eTl/jQ35jH5i/HCQyGcNfEyYlJWHr1q2Sywqf5Fkb5Ud3wrzqFXS/7C50ihwlLZ0fNuURlOzPxIGlD6Jk33qRk32o2ypx0Y1QTap0S6Bx1w/lfLbZc3GQhHMOzNliX0/WQiSnmqxWa+4OYZlkmIhUq5NyHXCyrq2AeYlmxKsirGRlmzUDlMgIE3Ls3ix5ImdYXIo8uOFuQGFxSLFEWhGkzcP8zDDUPu6JRMIC7rpELisEQRAK5LJCEO7CRfkEVchDsX38hv1VNLm7yq5du7Blyxan/McteHii/MhfMK9+GUGj4lFVksuEeCKKdvyAczXyEqcebbzQuc8YdJ9wD07uqovUEa4q3M9DHQVFmrSnmrBZR7hF2xLdgwnCsBwzJEkYOQ7Rxt45Wnh9mDCcISooueDIf9Z7Xc97NBMuGUyQW99QyBFYMrS+SyrSME89sOFvNxSf8Fju2KQQi5goMQjjAzKL2xET4PFRyExXnskImMJUE0wJgiAI9wQ5n9R5/fXXiz2CIJzFx8cHixcvliZ2OivGy3L+QNcRf7eI8soTB5GfuRRnT1dIx7nHum+Pweg+/l607dwdR9e+hcLtK6VjrsOtl3NgSl3CZBiPvmHCHIsllAkzKVaisJTyrU6BxOXoHlLoxbQlSEUcUniZSSaYnbKQc9caHjpRrksSMqwuK/Ve1xYGD3MpuSXxvuGjL9VEW73l2xHZEYhX+lddjtT/GYiWXIZSEGeeLyb2EgRBEEZQlBWCaAD4Z8QoygqHxyLnQtwpyzjDw6MNgsbcBg8vbxRsWo6eVz+FQ189Ix3jEz0DBk1motyDifCvUZF/QEpvlXC3lzr6SrcE7EdZUUW4sQOPdBOTrkTFaSh4XSjKCkE0NRRlpXnhloX80KFDJMYJwk08PT2dFuOcc+fOIn/9x/CoOYOuw2+Q0rw6BqLbyBvZ/vUo2vcLjqx5vXWLcUbsjDir2wuhQ7yNcDiRkrucZMLiWdIgqN/AEARBEApuWcgJgnCMIwu5u3BLeUjM7fANHYSzVWXSap1Fu39xKsRhy4SLuxRYF45sPbHGHWFsIScIgtBCFvLmBQlygmgAGkKQc7go7xgxDOVHdkqinCD0kCAnCMIZSJA3L+oQZWU0nlj6A9LS0pD25f/hen+RTBBEg8HdV0oPbiIxThAEQRAtCLcF+fQ3nsGEDn/h7WmxiP3bP/BFkThAEESjwVfwjLjuBQx68FsEDL5CpBIEQRAEcT7hpiCfjtF92sGc8X8kxAmiCfBo0xahkx5E/9mfwtsvGCd3rEIPtk+inCAIgiDOP9wT5KMjENhG/E0QhEvwsIfnzrk/dSNw6DUYmJgK/97ROPbzuzj8zXMo3Po1ctd/xET5AwgYcpXIqYeHm1NiRvNNtcx5s0Rf31WgUOLuE5mwgPVh7cvV89CH9p4PuQztPXGmTCm+uSYfn5BrLcPovkrXssREl/MvoIWeCIJoodTBh5wgCFfhYpwvlV9VVeWyKO8cOQL971yC4JjZUoSVrNQ5KDu8TRwFSvdnMFH+MXpMuM+BKLcunS+tm8MX5RFHmieqpf6lRYCcEH+EAfJqnKm1LFfPxXi8OVGsymkbszxr4SxxTHmGcpDjMIShEN4xPAaOmghkLxPlsAfRZHNf5eX6rWRh4az5MMfNoPtPEESLhAQ5QTQiFRUVuPXWW3HHHXeguLjYKVHuG9QLfW9/D+HXPIeyYzuR/dnDKNjylTiqpfzwFpTn7UX3sbNFin340vWZYdEYd74YHfly7DAhgoykblLbcvWxiDGlItnRykEauGg2Y5nD/FxIM9E9L13sK6QhTVHx+mX9GZEJ8Wz0kMqGYwRBEK0DEuQE0YjwMFMDBgzAsGHDkJCQ4JQov+CmV+Hh0RbZnz+K4xnLUHP2jDiiwsMTfgPGoue0ZJwpOY7TBYfEAWfh7iELMHeuyq2Br3xp45Zg5GpglCaXZ/UwUO87ey0dsTGIysnAOqH/rK4VbLP4PIjrJHAXCfmYxs1BdZ0FrP81dXSmDi0Z3r9mE2YofVDbEvosf70s8MOvm5luLYfdhyTTMsxbJ/YJgiBaAW4J8tETB6Kblxk7lpH9giBchceITk5OxtChQyVRXllZKY4Yc6YkT4qmwpfJN8IndCDCr3kanXoOx+FvnsXRtf9xarEgboVUC1wgDCZzMqZKi+swYZsSjQyLuwgQz5Vr7AzEmedbXBakJdaN0mrFiWuJfHEpQiDGpGPqrIVQqps2T+RnJ2RGxavEPzvHxPJKZWUizOLmwK8TB/N8+bxkRCNKSuc4qkMLIDICJvGnQ6JMMIs+mG+OQ5LdPmCDsHgTMqwPj8tY/NH5fbU8NKzcJHYflhg9RNkw59AbEoIgWiYuCfLRTyzFD2lpeDxwBeJib8N80uME0eCcrSyD+fv56D72TviGDhCpYAI9FKGTHkBw1M0o2JyK7BVPofJ4bYs7WAVuSpwZ81UCl/trWwSWJOBUYnhOFMJMEUwTmZETNUdrdTZKqxUnriUhfMgTU9k1YoSwFkgTBfk5c1TCmsPOUQSd2s2FXycnFcohyWVH/rOWOpz/zE0xYZl6FVN7bwMyl1n8xtPS2WDGXh9EjkO02ZrXHSz+6OkxrA7ym4rIhCREZyTbKZe7vyyDyeHy/wRBEOcnLgnyjS9Mx+TYWLx4YhpS0z7GHGODHUEQDuBuK0lJSdi6dSsWLlwoTfKsjfKjO2Fe9Qq6X3YXOkWOQkhMAsKmPIKS/Zk4sPRBlOxbL3KyD3VbX/GXEapJkrUuM8+Xolfyso1bMbMWYhb7OxlJkpiTPEWM0lzG4Fpq2DWSU01WqzUXlHMgzklEar0YB2qpw3nMvEQz4tXCW9wzua21PQe2RI6Lhjm9nvonbR7mZ4bBFCFP5AyLS5EHCilxCAuLQ4om0ko8zLVMTCUIgjgfcctlZePanThebcKgeFLkBOEK3F1l165d2LJliyTG/fz84OHhIY46wMMT5Uf+gnn1ywgaFY+qklwmxBNRtOMHnKs5K2dp44XOfcag+4R7cHJXHSWLNNEuyq7bBrdu8ggbJpX/gDaNuxdwkSUfk/yExZ821HItBW7RNsclya4pESaE5ZjZVRjcWuvMVxG/DhN4M4QqlVx25D+drsN5i8HESRv42wSL6w93SYlCpiS6hV++pWsiwfQ4zFLnu0lsrMrKHYuYqBxWXhrmqQdE/K1ITioSLW9xImAKq21iKkEQxPkJTeokiEbEx8cHixcvxocffui0GC/L+QNdR/zdIsorTxxEfuZSnD1dIR3nU0J9ewxG9/H3om3n7ji69i0Ubl8pHXMfJo6kuIjCWsk3bvq2uInILi9ShA2jNO5esIyHKRTn2oS9U2PnWjakYYkSqjFtCVIRhxSeN8nExL/I4hB2HSl0onyNJGSo6uRsHVoyvA8yEC257aRI8wKMXxIYCGP+DNQ2CVRNdgTilX5exV912IZYJAiCaE14hIeHu75CyegnsPS5CaheeytuI0dygrChZ8+ekjXcCB6LnAtxpyzjDA+PNggacxs8vLxRsGk5el79FA599Yx0jE/0DBg0mYlyDybCv0ZF/gEpnXCCyAQs0PtWtwC4S5Tts8et3Nzdo2GEL494E5Pu7IRed+FtiEF6C7tfBNFU8O+KgQMHYvfu3Th4sLb5R0RDQxZygmhkPD09nRbjnHPnziJ//cfwqDmDrsNvkNK8Ogai28gb2f71KNr3C46seZ3EuIvEzoizur20eMTbhQaZEMldTjJRXy7lxnD/8Tn1E2aRIAiiGeKehRzT8cb3d8DvJ7KQE4QRjizk7sIt5SExt8M3dBDOVpVJq3UW7f7FqRCHBIeLuhRYF4DkkzhbnrXV2EJOEAShhSzkzQs3BfloPLH0OUzo8Bfevv0f+KJIJBMEIdEQgpzDRXnHiGEoP7JTEuUEoYcEOUEQzkCCvHnhpsvKRrww/Sn8WHYh7l2RhrQv/w/X+4tDBEE0GNx9pfTgJhLjBEEQBNGCcNNCThCEIxrKQq6Hr+AZNvlRdAi/GMfS3kbhn9+JI0RrhSzkBEE4A1nImxc0qZMgzkM82rRF6KQH0X/2p/D2C8bJHavQg+0HDL5C5CAIgiAI4nyBBDlBNDI87OG5c+6/mAoceg0GJqbCv3c0jv38Lg5/8xwKt36N3PUfMVH+AAKGXCVyGqCKGa5ZMr3R0S82o2AvXQUPV1hbHgknyrLA8yr9Im8tLQx5ZMIC7T1XPQsLnOskcY72ueEhD2stx861jM/lk2+t6er7ILdBOWath9061NJGqTx9/HSDNkro0rV1UTajOtk+g+rr2i9H7ge7fUoQRIuiRbisRPv4ILBNG7FHEE3PH4GBhm4DXIzzpfJLS0vh7e3tUvjDzpEjEDrxQXi290fJrjUo2PKVOGKlExPpIWNuw5EfDRYH0sfdZvsJEQuxsEnCjHABbBQX2166OzgqS39Mt8/FF1+v5jyMwmLssmLUXiWmt6N+UhARasyZyIyCNRa45hmyV446XfU37J0bi9jYNKTxdN0zaxjv3F4dWPnWc43qxtPmIMqyGqidNtpN18KFdRKSMYtdgNcz3pwo/W2L/rpa1OXIeSn2OtEw8O+KSRddhFMHDqDs8GGRSjQVLcJC3p6Jmg6enrTR1mw2e1RUVODWW2/FHXfcgeLiYqcs5b5BvdD39vcQfs1zKDu2E9mfPWwoxjnlh7egPG8vuo+dLVJUqJeb52Q1lRg/D+DLyMOEiBZlnFStrhkbg6jMdCHy5Bjl0eMcNTYLC2dNxdR56WJfoHmGso1XTI2MgCknA+uka6chPTMMpgj2p91zhRjn2Cz5z5fYF38q2Cknkq/vb4lbbtvGyIR4djyVlahgp41209XEYoZlldpYxJhSkWwoxo2uq0ZdDkE0PF5MP7UjDdUsNnJZIYhGhFskBgwYgGHDhiEhIcEpUX7BTa/Cw6Mtsj9/FMczlqHm7BlxRIWHJ/wGjEXPack4U3IcpwsOiQMquMgMi0OS0StwbonUvC7ncOvcAlZP/qpePlarW4GmHLW7gVzW3Ln89byBO4A9HNXLUhVrngWsT23cVCLUx/kBYaFEGOL4MvFGvilcsFpEJNtVuURY8zvqH4ajehm2q/GIZIOzHJWyzco2I0xSyXXBYEl9TtY6ZCAasha2t4iQnXM1A4dINqYU90zf1xbslKOH9X+SaRnmrRP7dYXV07JoEa+z2YQZyv1Vu8TUdl11OQRBtCrcEuSBgYEYMWKE2CMIwhW4O0FycjKGDh0qifLKykpxxJgzJXlSNBW+TL4RPqEDEX7N0+jUczgOf/Msjq79j53FgtIwb2oiMqJTJKGgEcsp0chInIqpU9k2H4i3iB0mgEzpIj0TYXEzZPEYOwNx5vlyOttkFwJeThzM80U5iakwzVGL4zCYzMnsmPL63SqurBsXygqO6qWgvWYyE37W8znsGvFAsnS+Un/eD/ORiRyk8rIt/g+q+sSwNqvcCdLmiTrw86LiNW0y7B+H9XKmXfUMt1KLPxuK2Ln2VtLMwsJkJsmlvuV+QLbuF/pzLX7V/D5Y7o+wVIv7YI5L0g68GOpypEGG5X5EYly08vlhg8kk1v9LbGvqHqy8eBMylNEbJ8oEs7i/883KILi26xqUI1n8W9qbGoIgjHBLkHfs2FEK69bsCXsAD274E88tTRAJ9YzT5Q/DbT/+iX//qWwbcW8DVcl9wjDlvxuk+jVYf6kZ9gaSLP3Bto1LMU4cIrScrSyD+fv56D72TviGDhCpYAI9FKGTHkBw1M0o2JyK7BVPofJ4baGrhKiRxLIQ5ZJYU4nROVEqaykTrYqAULtxMLGTEzVHZxHm5aisn1kLsUxxT5DI0YkNIYglgaVsXCgLHNZLILlDpEKpYtbCZdbzJdg1koWwrtUNRdSH9U1OVIwQcgLL5ED1gIFjp38c1cuZdtUzc9VzB+odJiQXOPCZjkzAgiQxKGJbeox6MGh8btbCWfLzkB7D+kj3xkNCdn2xuqAYlJM2D4mpJsyR7lsSGwzKTiKRCUmIzkh24C/vIpHjEG1epi0v07qfls4Gauz+1npdo3Kkz+symFIa/y0KQTQNgzBjzZ94/rO7xH49Meh1PL51DWaMFfvNEHJZaRS24OMJg/HY4MH49we7cVqktmq2PIBk1h+PDb4cabtb1yI33G0lKSkJW7duxcKFC6VJnrVRfnQnzKteQffL7kKnyFEIiUlA2JRHULI/EweWPoiSfetFTvahbusr/nIAE8vJqTmIilF+5vky8oooZptm1pwB7PxZLF8ykiRRaeT1UT+4WK/6QOobk9VqzQXlHD7Bk9chEazb6oHGbde8RDPiVa4xehcVvQuL83AhLKltOxMYuc6MBhuJyYMiBheo8nNX+7lcVM/XDOq0mCXfFPvlWIT91FlIZ4Mgc3YEZsSFISxOfku0KiUOYWFxSNFHWnEB3j6zrQ+Ojphar2tcDm8bn4xKkzqJhqFvb/FHoyCL7eQ1r8FqWtKzA9/8byfODrobj79WV/XMr7cJ93Ntf2IvyopP4OjPQNjra2qpQ9NAgpwQ5GD13y+RBg1PTV8o0poQYUFPXv0K+okkNRe88SP+/ecW/OuVS22t7WKzd25Twt1Vdu3ahS1btkhi3M/Pz7lIKx6eKD/yF8yrX0bQqHhUleQyIZ6Ioh0/4FzNWTlLGy907jMG3Sfcg5O7DH6+YxNUlkb5Fb4kwqSJc1FuuU1wwZPIFKqJm4VFORaNz4RsvKG/sJM4Uy+ehwmbGeKafMKc1oLtHtyibXGJUE+G5VZMY88hLY7qVYf+dhvpmiqkNxzKWwA+kZBrZjui2BGS65LeqsuJtfjMS+I/epxFeMbGRMnPnb1zY2NV1mDuc24wkVN6tkS63TqoiJ2LOSb+xoK7K6kGQvxtiJ1oJ87BP0d8YCB2OfxNicWtiQnq+Chkps+r5boG5UhEOOcTTxAtiKKUG/HBjwXwn/iKLKbdhov7LHS9j+mBz66ADzpiGBsQ3D/BH8c+fxi7RK7mAglyonmy5QF8+lM+2oTG4jouutUwAX7z+CCcPZqG/z3yq0g8g5Or75EGFNJ22084FToFtzUzUe7j44PFixfjww8/dFqMl+X8ga4j/m4R5ZUnDiI/cynOnq6QjvMpob49BqP7+HvRtnN3HF1rEPKQk5YNk+ImsYqHcZsvLIpMpDCBAMV6x7faTN4WF45VSLFEhZDL4a4w0jHJT7oulj1n6sXyzM9ElLhmEjKsriEOkV0eJLcRw7bKUTnikhIQmbYEqYhDCr9+ksk4kogNjurlRn/XN/wNx3wId445wHwRDpDfVxesxdyyzhppbQfbbCZbcteRjGi5/9g2B/JzZ/fc7AjEW9JUdZNEvkiX/PPldPt1UOWXinFXdDvCSDDz+6v4zMufs9pfgJDwJgg1OQ89hL9y2yNs1meYINLcgYv7uUwTzE8tg29gMCo/5xphJN58T2RoRrgVh9zLy0uKoVxeXi5SmpZYX18EsTrJvtofY2CQnK5Q9cdrWqsv9/3+fDZCO4h9lOPwa6PxtiUL96f+HLHhB/D96OmwTIjnltiPL0XN6gfwEheCopyuB17DwhPTcTcTiRJnjuKPB6ZgqaIVVQQ88F88NDsceZrrqRHX7q9UjgtNcT2XkPuid+5reG3j5eya/dFOSrfTVofXs+bR9mXt6TKO2iDy6vtaQtzPjn+ojon8vYqtfay/LxL2yrV9RmyeDwl9Pjtt0D9L4t7ft6OL3eXLeSxyLsSdjUHu4dEGQWNug4eXNwo2LUfPq5/Coa+ekY7xiZ4BgyYzUe7BRPjXqMg/IKW3WiITtLHWmwuNWC/n4pAbYxjnm2hC+H2jOOREw8C/Kx5//HH0798fF1xwAUupRM5barEagknL/4eJAzuKfeBs7losmaSyLock4oH/3YOgQ2/hlV9i8fA9AyE7YVajaO1DePHhn+GfuFyVbotNmQL5vL6oFOW4g3LtticOoZjt15zpia5dc/HXQ5OwxNUiuR/6Z2MBVp8lHk/i/gkh4oC237hLzP0s219sUIEnP8OFlmw78MPIm/Cj2NXjloW8urq62YhxC9IEy4/Rr3o1FipW0ss/wFGdezIXxM9+L4toxZr67k+nEP6wcH9wmTOo7nkn7h6di++l8m7DzpOhuOhVdyYpchH4vSwiRd3+/cEB+E55w826McF20cN47PbO2HMPL4/7a59D+H2rMd1SnNVVhVuV+QNrC8+TiJ35rLwBN1rODXjgNYyxEeP12YYt+Oar3TjtexEmKBNNh83BcH7NXcsNBzyO4SL9VXRcKtdLrttunGN9pJ3IqhoIiHyPDZ6FY4OfUvUbgw8ENM8S698DfrjojdUigzGenp5Oi3HOuXNnkb/+Y3jUnEHX4TdIaV4dA9Ft5I1s/3oU7fsFR9a8TmKcETsjThtrvZnQ9PUSFn+HkwPthSQkmgbuP24vcg1B1A/le7/DonvvFb9hWstx2OsfYcTRf4ljbLvpR5SGTMQMA//rtoPuw+OzA7D/PjnvmyqXE8VK/djgm/BXrizAP1LKZFuSgRjnFK34GSdOeaHThX9z0997EK6+LhIFb7Fr3Lsfnh1OYcskVjcmxAc86a4PuRdr11u4f8wJ/CDVfxLW7qxG2N26CaNeIbjwrc/Q78RbcjsnvYMj1YMwwYHvuluCnFvIfX2dmDjWiFww51qEeh/FjucewR6RZsswXH1tf3gdXY1PVBbRgw88ysRmW3SJuccNEd0Wvm3VVlhFRA7AJS4K0IAHHkevoHIcfs9q0S1842Gs313lZt0YGms9E9Yv/obitt1g+pvr4vjj29gApyoUg556Bf3YAGhGvG1f1ncb5HPLxECACeWXx8Ov/A/8aGPR1iIPFrxxMv0dlXWcDyzGa95MFL7xIg7wgUbvCda6hV0K/w5A1f4fVeey9k9Rv/Vg4v7xUbq6sPIfXib1UX3DRXlu+kfwQI20zyd1VhYcgPnbF3EqewvPIaW3PrhosboqzGGCsmFcE1yl+dVLnuDoyNKahnlkiW1GyBGR7E54JYgGJuehqVrL9I6XsHnnKbTpeiFG6OdbcuvvUKvVOeeDHShi4rVj/zpMzMxdgV2H2fX8u8O9X9UdWDJJNcjwCkQoq07OQ5PsDgKcQRpQWCzdudj082FUevnDv7+UIOBvCO7DkzeJizvRFrcEeY8ePXD55ZeLvebAcFw2KAhnj/+JzY6spsNuR48g1pkFO3WifQt+2cFUWduu6OGqTmVohRsTeb8eQyUT6h269xUpzhCGkTEmtCvfjx0arZmDvcfK3K6bTZ/k70dZmat1E+S8gSXLdqM6dAoSvp9tMABqiDYogwg2EHjpDRuxb4UNqKa8Y5nQ+djs/vD44y0nXH3ykVuoe42S8yuKWBJ/u2A3BGTYNPQ3dbC598q5DYEiyvM3fgrzypdwcmeanXjjrQl1bGq+NRdB2VzrRRAE4S652HXslPhby9miYzgq/pbY8RBeHDzUbVcTGXE9IaTrBK+PasBQF2pO7NaIefkNgN4vvRqndqsvlos1N0bhsfp2WTm/OYOyY3vF3zrashGOGzrVBkn0ir+dJgghAR0A34twuSpSCN8svunNAMVizfvxZNpzOreRBmqDMsHTzw9eR9Ox1tA4zn28VZM6L/8ABb0eto1vbhOR5XuVr7sCD1Mph2PkolzOp3NpCuqNDuw063Fls53DUJ9wUV56cBPOVjWQ6icIgiAIDvcPz1T/vvEIJYpDNFHfUJQVNWeKUGRHq7uEJNYcCH9DhKW2XO23rNqGGU8SbWwueONjJmA9UHDoJLpMeVW3wFHDteHgRztQzER3yZ9fOnBJUiGs+RrXIWny53h0PKqaZ2A3Djp3bxG+9dJcBG6BV/nBi0EX95/XtFFsjYXJZMIjjzyCBQsW4NVXX0WXLl3EEYIgCIJwEzFZs4fXDuErLW9v/pgrMhD1TQsR5LIQ5L453UUKR/IrVxs/t3yEI/lt0Xnw33Sh8IY55fJywe2D4Cf+doSc7wxKd7qiPuvmmuIsAdNiENihHLk/GpqZHcMELQ83WPXHe3j57q+YSPVF+F1qC3TjtME1rPdBvi/lOLLc0TwDA5i4/88Nsii3uPoI15Q2XQc2WVjF8PBwPPPMMxgyZIi0/9577+HkyZPS3wRBEARRG16djV/p+k8bi8CO1Sj69R27Lhauc4JpNVd8wkMwoHtHoFpe0KelwqOy8LcPLUSQm7Ep3ayxhvJoKjMvbYdyjfFTnnBZrYttfcEbL2NgkFqoCWHp2xuDhAWYL0TjlNuFSrQahzW0z8H5TORWuRuhxQksEzHtuX04gEexSVFNqLRYoFURUBgN3gZnEW1V+7MX7y/EafgiZIJSXxERRu+ywu7hv3Txy+WBjPqth/IsTcEt9vzM7cDDHp47V/dJmDfeeKMUfrSqqgr/93//h717rW9kAgICxF86VPHDV6lWbmx8VDGixdbYobhbG5EJC7T3XPUs2MQOt0E7SVV9r+RylWNK+XL+2sslCKIp8e7WBxeLv9UU/cznwqkjnPAQiJl1dFkRPuHt+2GUM6twhkzDgPCOtv7pLYpBGD9I7lO34pB37NgRgYGBOHTokEhpWpQ45BrRzN0mRr+KniIWtzrOtBwLXInLzTCMG85D5KliafPyrt+IIZ/fDp9flXjUujwSBvGqhauEoXVdqqd6kqIIuafT/saxsh3hZDlcaGtisquw9ItSlr5t1vbbhj50fG1HAxzDtkp9qI81LrDTv0blaK/L2/MctvZ8zCZeuc0zYhO/XWB47XJcdtlUwzjkXIzzpfJLS0slMe1K+EM1/LyPPvpICqGYk5ODefPmobKyUjp24YUX4vbbb5dcWTToY2Gz/YSIhVjYJLMNdXGxuTicw5enp8mPdcW5OOTq+Nb6Y0bEIjY2DWn85uieI/uxy9XXIAiiucG/K/75+OO4yE4ccn388DM73sK7uTeIGNtigqRwbQk5ZRxL3BYnYpsL5OvzsIX6CZNNhBSHfAI6sH6wRE8xQIpDPsFfF9PdPnL+EPcEeXPDujAQYUUWxTwu+8dTXHTRIOpMZhfjhYHKysrw4IMPSuL5rbfecn7pfB38nEWLFqFNmzbSfl5eHp588kn069fPUn5iYqJ0zAIXvfHmOiwTXp8YCcTaF64hase+IFeJY/4sxKRjqlDR3MqdhGQnQ+xpy4qduwARS4zuGwlygmjO8O+Ky4cMQcWBAzhtNovU5sIgzFjzGQbAWaF//kOTOgmiEeFfgAMGDMCwYcOQkJCA4uJit91XCgoKxF9AcHCw5E/+j3/8QxJj27dvF0dUpKUjMywOSUZuBNzqaeN2wAXVAlZPI9cGOy4MmnLUrg1yWXOZeDN0lYmNQVROBtYJUcetrkoZ1mXlHdWHobr2Ata3Ul5LdY3a13rhy83nmK3LFGVlmxFmihB7tcDvVWa6ENmRiDCFIU5aJp5cVAiCqB/CXn8dF4ZU4tjnrUOMc9wS5M0vDjlBnD9wwZycnIyhQ4dKolxxNXEWbh2/7rrrsGfPHs25/HPJXVi4O8zy5ctFqhq+8EsiMqJTJPGkEcsp0chIFDGz5wPxFmHFxJYpXaRnIixuhixmY2cgzjzfEmdbNrTycuJgni/KSUyFaY5KFLOyTOZkdkyxmFqFnGStVVnu0+aJMlhlMqPiNWUY1kd37WREI0pK5zhqXyshMgIm8ae7WHzFVZZ1bbz1+TDHJanuVTbMOSZEtLKuJgiibnBXldkTuqJo7SPNw1WlkXBLkDerlTq9gJLwKrFjpTT4DGraaC2PfJ+n6zHKSxDNES7Gr732WskP/X//+x82b94Ms9ksCfOKigps2LABTzzxBIqKisQZeoSAksSyEOWSWFOJ4zlRKmtpDlKXCPHFLewspySwss3IiZqjs1DzclRLr2ctxLJMJsIthtccZCgmcAlWNhfJrC45UTFCWAssEw7nqIQ1x059+LVzUqEcylq4jB0TOGxf62Cueu6Am8grfbL7lR7D+lE90FJIQzq739HjlAP8WVsGk8Pl+gmCINTw5e4Hos2Od+u4qND5x3nvspL/cT5WrM7CH9dbw73tiy3Be6v3YtH/9osUmU+WZuGdtXuw6/JikWI/7/kPX9xmMJLIf7zZwd1WkpKSsHXrVixcuFAS186giHE+GF67di2uuuoqHD58WBLgs2fPxp133om3337budCHTCwnp+YgKkaRSpmYL1k5xWY7Q08LO38Wy5eMJEnkWq3tbiDVxWS1WnP3EmmCJ69LIlg16wEX29fCmJdoRrzKVUfvoqJ3YXFI2jzM1wy0tJizlUEXd2vi8wLIh5wgCGfhy90PdjhpsqVy3gvyM71ki3eRyWolPxleZbGGV7eTLd/8/+JQOU+RyqJulJcgGgrurrJr1y5s2bJFEuPOTurkrijXX3+9RYxfeeWV0kROLoad9kGPTVBZNSMxLjpMFmFZ2TAjyi03Dm41TWSK2cTN1KIci8Znwjo+SmUxdwC3aFvcHZg4DMsxQ5KHkePAqlk7/NphcZghrh2ZEG+1rNehfS0GqQ9USG84lLcSsZgRB93bCx2xsSordyxionKY8Ba7CtL9VqdHwBTG7qODYgmCIAgZj2HDhrmsQvkEsv79++Pnn5v+dYLXRe3gF98bgZv7wbvSR0o761WN7MFb4Z8XgsCjVs/JwpAjONn9KHruuAheVXJAO3t5myNt2nhhYughnHTWkkU0Gct/Om4YZcWdsIdcjE+bNk3Kr4hxHuqQ/+3ahFA+KVLlApI532opZmJqQUocLNpXOgaW304klIi5kuuHDLc+CyuophzukmJwruE+P3UBUqIzkDhrHcYtSEEcLyQnU3JLMSfzfLWUIYVOlOuUk5rKBH609Zhh+1qm3dapKCscVX9lzhfzAOxF4tH1nyW/VK71mbKmcwyuSRBEs4F/V1x/5aXwPHOcbYUilWgqPCZPnuyyIOeConPnzsjPzxcpTUcnvy44FnAx/sqqFiktm8y3gMoKzWpHRDPkofvXGwpyDhflXIg7I8Y5XIzzstatW4err74a2dnZkhgnHCAJyLr7TZ+P2Bfk2gGQEfZjirsDCXKCaM7w74q77r4cwSGnERB4WqS6T2npGdScFTstAM82TGN2Mv4dbwjcEuTNCRLkRHPEkSB3BW4dnzNnDlJTUzFhwgQcOHAAadLqLIQjuLCcY0ptJjHXGxdjQS7eQMSZHSy+VJ8CmvuPpyA6I9HJ2OYEQTQ29SXID2adwjdfm1Fe0YLUuIAL8muvNSHM1PCBTDz69+9/XgvyLoHd4DHoCvx1sHUI8vTXq1FeVir2iObKnH9uqhdBzomJicGoUaPw22+/IT09XaQSWmQBKLm5SKjcaFoZ9gQ5QRCEGv5dMfvOKegaVI4uXVwLv6twurIGH3xwAKdP14iUlke7dp6YPbsX2rVv2GmXbq3UGRISIq0I2Bx8yAO6BsFnxDTsONjyRmZG/PLaGZSdKhF7RENQsSMTd9yxF1csuQ239BGJLvKvR38nUUQ0CSTICYJwBkWQB3bOwecPfIQj98zA3HEdxFHnOLD/FL766qjYa7ncHB+O7t2di4jmLm7J/Xbt2qFr165irwVT9QfK17yIinyySBMEQRAE0dKoxtalv2DRuRGY7qIY51Sebh3G0DZezs35qgvnfdhDohlSkYsFN76OMZco27uYt4783hsCrw7+iLjuBQx68FsEDL5CpBIEQRBE7RTvP4xlB8OQnDICvUUa0TSQICfql5N78K/xn2FF/6vw1YaHsF7a7sDf967BJ/tEHqLOeLRpi9BJD6L/7E/h7ReMkztWoQfbJ1FOEARBOMvBA2cx9O+DMLalOz2EBCNqVKS8DQmEv0hueoqx8v43MSb5YAsS5Cr3knO5y1Cy5imx/QenbTxOynBmm3Jcn6cKZw+8Iaf//F9Uoxxnts9X5VW5sJzNwemMp3AqO1feF0jXX8fOVSYtq/KdK/4Rp4zKYkjHpPO09Sv9cydcn3l7BjvfX4wxcZuxX2exvmLufhSIXGDtWzNHpHExbbFqv46blhwXeZyFXfO/G5Hu1x+P3d8b1s93Wwy8828af+yTP3xjWDeja0p5VfWSzhPHJKQyZCu8Ju+UVfjZ2lCB6BdVefbbKfeNkk/bbwJdnxlfUwsPe+ha/HAtgUOvwcDEVPj3jsaxn9/F4W+eQ+HWr5G7/iMmyh9AwJCrRE4DLEvS860xlzTnETyMllsnGgseZUW55zwKjXZ1VYP7w58VnomHkHTr3vEy2XNmZxlXuT6N8UwYPXvqNP637WeB99ECfeXq3Cd6GqqPjNqsx5k8Ks7z747WdT/5JHeD9hqQ3yEA4wfb943mc6ri1b9x+t9fV/ALxFBFFEubCZF+4lhDk5uHzN+ykHm4ub2t98NVCRfD5+uv3BPkp0+fRkFBLaqjSZDFc+kBEzpMeg6dJz2FDpEeOP27Xhy/hMo2N6OTlOc5dBrcDac3KKLcG216PSCldx77d3jBF22HzJH3pe1x+AR1kopylZp9b6N0ayHaX6Zctyer70LtgOEMG1j88gaqQ8U1WR3a5H6KMp3od5rDv+K28V/iyD2zZWv195fjotUrcZ9OhBaztGsv34ALl8hW7bUfjobn21+452pSnAezE6u3y3VbjfbP278m/zJ4Pu8SYWln2083YaYHO8/mS6ESP/zrA1y1oDs+lvLeiWeG7EZSojofF+OfYvYXQUheKcrbcC+erlhvYL0/iXdmvI8PB0+X80n9thZvq+omif/Lf4LPS6JvWVkfXJ+PpKs+FjlsURYGqqqqclmUd44cgf53LkFwzGwU7/4JWalzUHZ4mzgKlO7PYKL8Y/SYcJ+xKOc/OpYl6dmWaEZE4/2qukn9/BgT8mqcqWIZ+7T0TERZllRlREbAhDBEj7N2tGU5/ayFmDXVcfxy++QgxxRvcP94fSwhcZolvI/CTBFiTyY2JgqZfOnZOvWJnvOgj1rAd0frup9ZWDhrPsxxM9hVHePbowO6i7/1yAEOtqOf5TeO/U7PPYN3XDbWcTpjQD8/nDYzUcyFsbSZkVUsDrdmhsZg7ReT3BPkubm5zSLCihEeIUxoj4lBG2nPG55dB8HzzFGcFavlnzv+C05XXQSfvgOhuOh7hFwLn24FqMp2xxLtAr6T0WEcE/nyIqHwCLiQCf5y1FSoFTng2WemVfR790LbbqzepYVu1q0L7llyt3XmdBcTJlwGlOwv1lp7/fozkWqNKuITeQFie1Zil7lcTnCKthj499GIkcSsMyPp9pj80g0Or+kzKAqvzmAdoOATguvv6MXE/A5s0Ivo8EvxcariB+eLS28bjZ6afGdwZH8h/C7pjUEW872t9V7BdO90fKZcW+q3Smz86ZjcbxW5+OLDAyzP9apZ6aysGZMxs6f90UhFRQVuvfVW9iV3B4qLi50S5b5BvdD39vcQfs1zKDu2E9mfPYyCLV+Jo1rKD29Bed5edB87W6SoUC9Jz2E/QgtbY1zAVotqGXu+dD4TJ4pmiBwXDXNqKnvoFcESCZbkeDl9JzGboRH6ErExiMrkq7A2Y3gfRcWoBE0sYqIywfVbfdPs+6glfHfQ/TSkR1f71vHKIwU45BeBcRdaJ3va/CbbwIQ3t37372zRWBIhPvBneqfIkW1RZ0EfeoG8+jrXCpEXmRAZESIfY2WH9pPzDBSjCb+IMCm/kq4+5hz8GtZzbervIke/+QLj1G8WNNsyLD+oCxPZg2lV8WeLwaNTgKYTPfwmoOOkB9FO0rdlqM7dBY/AQWgjRLFMW3h26oZzJSfQkJE0PToHajvc+yL42ljcu6JtYIj4ux7wC4api/hbwheT5j+E7+apXUoYfl3ZB1P8zWHCd9byh6yC1Fm69MNL3FKcECBbwKWH72Nj/3HdB91Z2rOK9hR/qzFd3VMzKcUnNADhqMCBI4pVuy169A6Q3gbcauR+oqELrrrEftsrsg4i7VB7DNAvFuATiOgJrO124GGmBgwYgGHDhiEhIcEpUX7BTa/Cw6Mtsj9/FMczlqHm7BlxRIWHJ/wGjEXPack4U3IcpwsOiQMq0tKRGRaHJBvTjbAkJVhfSatfdfJXvZZX1ZZXseKcWP6qV3+O/LpUOUfz9jbCKD9DemWsP4dfgy/LHoa4FJZu5zUw4QZZ65CBaMiaQRbf5nXZMFsESwRMYYqAV1sa7d1b+/fcvGSZzlLH8sabkLokXezLOHzO7Dybxs9NPcH7KCcKlhcJkqBKF7Ht1X3C0NTDyC3IIL+qss72kcP2qo4tSNBago3qp8XBZ5bTEr47WtX9dB5fb/GHAdJvbfFuJE2v3RWzVnIrUMT0R8+RIQg1VLpMEDPpc1Cxnu8pBrp1Vbm0tEWw3xnsYumVnbsiuOoYduVXwc/PKpzbd+supSuuKX4me9eypXu/UHZuATZI1z+KPO+uuNgyIHCd0KuvxzrxVsF2i8eNF9jKb7cEuZ+fHwYOHCj2ziPOnkRNOffx/hSlFj9uvj2Hsix3XsEQxnCr863yg/f95RaLues+6RytHzffJt6xEQZy0wnkeq18tpfsoiPKc69eHB/06uH6gILHiE5OTsbQoUMlUV5Z6XhBhjMleVI0Fe8uxq87fUIHIvyap9Gp53Ac/uZZHF37H5yrMVooKw3zpiYiIzrF9suf/3CZ0uXX0fMzEab6MUmbJ15TT52PzCj1q1h2TjyQLL3CTgXikuRjsTMQZ54vzlEvw67Kr7kG+3FLiYN5vrgOK8s0h//Y8fqyayIHqYksvX7Wc2+dSC4parKQbQ4TBnF+LAPrstKQnmlChHQP1WJFheG95SJKXpXT9p5zeLkqIRQ5jg0F+PXEvsDhc2b4bNp7bqSD9UAW1mXksD6SC7S4N9jA68FaxJ9RqY5APKuExi2I9acpx2o15W8kwN2BLDjTR47aqz2WzM6Oks7hGNdPg93PrEJL+O5oRfdTgg2wc8Tn2U24NXwZ/w3novwq8Rtc65vvEuzionZ3ie6tvpyeXcxFuZEFuxJZe04w0S4oLkNxZVu0V9m8ivOV4+XIy66w9RooKcC2gxXy39IAgJ3fWd51TGf4+5Xj0B6lzqwu+WXsXF+456DsHm4Jcn9/f8nKd97Rpgs82c2V3FosPuGqzeLqQtQbksX8TjxzGfu++uR3F0fZXIy/j2e2c3ca6+iS+5obWcidpcvkq0VZol5vL62DKG94zlaWwfz9fHQfeyd8Q62fO+8uoQid9ACCo25GweZUZK94CpXHD4qj9uC+hcqXv/qHlf1wLRE/TtwaxiSa5YvcMpmLW5zUsHOSxdL0WQuxLFMIPOnV8BytFUtClV99DUksql4dq8si6oW5KSYs061cahEYXHwzMcHvC7t1ksiw+I/rMbq3XGyEZWKZAwfctCXseYtPYNKdXW4GExrLxHOgxtFzZvRsNsJzk7Uug3cIq3ckIpgCM+oSuR5MMHJLLK//nCjZV5n3FftfanMMG/Iss5Zl5A5Uax85ai8/lpMKpZuyFi5jOQX26qfG7mdWzfn/3dFq7qcEv1/LYEqZK/bdRPoNl397uTFLevNdh4mdx/YIC7hkwVa7pchuJxaXkVGhCK7zOjxaQW8XP5ZPst4r12ZbuOvGNjUuu6wwWpzLimNcdE1pE4A2HcpxttyViY2yW0zLRbFYN0Js8ZNm/PgLYLpluFshmU5u2ot0h24x3H1HFuU2PvW1IPu7n8TKDTohX3ECGT8Wih1juNtKUlIStm7dioULF0qTPGuj/OhOmFe9gu6X3YVOkaMQEpOAsCmPsHpn4sDSB1Gyb73IyT7UbZ34BmJf/smpOdqJfUZEJqgmcyWCnWIH/gMn/mRlz5KsOknSD4bWmkY0BfMSzYjXv9oWAiOW3TjFUigJFtM4+/7j7t5bxUUmNgHxJqvQsOD0c+YO3FIo/lSQRI3Kp94elnobW/WtZFonPPKNW2QtbkGxiDGxc9P4PheSdsqqrY/qhEH91LhyX8/n747Wcj8l+JureJgT54l9Y8rF/Dpn6DL5almUFxfgSJ1dWPKQXQy0b9dWdjkJCcbAIA/kKYKdu424t5q/ijOodHoaXDkObVKuLbbtJ6Cd4ec8LrusHNnR2gS5N9qwHxuv8h9Q7kwoQWFRr8lOt0ZpUaMcP7IP8lpVPFzhS6hoyd4vQiTzVzqWCY4WmFh/xtbXrGLHdixyR1i390PvnoD5m0OW0TiPbOKUy8rJPfj30we01+ThER/WjexFezr39tP61NeGmFxqfvs7lX/8Gexc8gMWFfUX+7Zwd5Vdu3Zhy5Ytkhjn7l8eHk44uXl4ovzIXzCvfhlBo+JRVZLLhHgiinb8gHM18tPn0cYLnfuMQfcJ9+DkLoMvaPbDYDU8catOmLEVVI16MpdkCZVSBaqoHMJKarH2MLIWzkIi+xVWXhHbJYsJJqhf77IfsAaabNVqkfpYhyQY4jAnTvW2neeLikOcxX/cGM295eXkRNl5ba6QhYXLzIjjF8tYp7UUchw+Z3Zw+NzEqnx8ZfecuCTZWsnhFsswI5cczXkc7uYA+/XmiHrYtl8+NzopHibpXL5vQswMpj4Ny6qljxy1lx8Li8MMcSwyIZ7lFNitny3az6yqL1rMd0drup9s0FnL55hzpMCe6uVRyb7Uzf8qx+a1B2Az50yDnUmdNnA3EaYkTp9RaTEmoEvkv/wiutbJQt69X1f4ny5HoTNRXCT3GF/07Fe3iZxuszUdE69f09oEOYNPpIy9C96lej9yoyXyO6Dt4LvQzpuHIjTKJ457/IAy6dhLOO1/LzqNGtdyO1ZEaeETMEaP764Tsb6Y9NjF2Hev9vXMxDv24oolbkwQ5RNL370cMZbJoa9j+voB+MyOywp3PbFcV4Qj1FyTl/d0JyxQ8tjL5ySytSBAjigjlfc2Zq8diI9XTxU5bPHx8cHixYvx4YcfOi3Gy3L+QNcRf7eI8soTB5GfuRRnT8u+cvzLzLfHYHQffy/adu6Oo2vfQuH2ldIxDWnZMCmvOVelSL6as2qL85W2BKlMtKXwc5JMOktjDswm2ZK1SvJ3FC4RqnjFKXFmh64MMmmYJ16Dy2Vx/0jFvYL7YorXs2Rqr2e4oGA3NEdt3eP9zf4zFKsMw3vLX43zEGuyfzHfDG8Vf5Zy7Li2OHzO7OHoudGSNi/RWj7b5phSkWhoVbSFvzXIYf/sR5yR68EeUkv7lWdVeuPAhKhyLt83RZnsl+Wojxy2lx2bn4kocSyJDbWs0Tzs189CbZ/ZFvTd0SrupwuUHynDMfG3Fj7najKCP1D9Xl7yPl7zuQpfWaKZOY/WHYVvXdH++DFstfh8FyOPi2LFv7x9hesW8s5dcYkoP6J9MXZtt/qkd1eir3BXlHZ+8qDBskBQJbL+kCdyKufzTe1O03AUY+XCbai45lp4hIeH12oo1tOzZ0+MGDECX3zxhUhpOgK6BsFnxDTsOChbCVs6v7x2BmWnxBCSkOGW79s/w9qrVGEKm5h/Pfq7ZA03gsci50LcKcs4w8OjDYLG3AYPL28UbFqOnlc/hUNfPSMd4xM9AwZNZqLcg4nwr9lg8YCU3vBw6xl/HVpfsXuJ+oK7RNk+e3S/iOYCPYuNA+/nGKTr5o6o4d8VI5me2xzaGS9OcxBuxQE7dhRj9ao8sdd0cME/sH0JNthMJq0fbrm1J4K6acLz1TtuGXIPHTrULMQ4QZyPeHp6Oi3GOefOnUX++o/hUXMGXYffIKV5dQxEt5E3sv3rUbTvFxxZ83ojinHi/CMNSySjWt1CpBEEcT7A/cfnwJS6xK4YV7iglzcKVm42Dk3sBB06eIm/WjbnzjaEzNfS+lxWCOI8hIvy3PSP4CGmI/NJnZUFB2D+9kWcyt7Cc0jpBGEP7pc71YG1jCCIlgJ3I5tau1sRw693OOIvPIV37nMv1niPHj7w8WnZ8ek6dfJCQKB7bxBcwS1BzqNCdO3q0hQ4giDqiCLK8zd+CvPKl3ByZ5qdeOONQRrm1dtS0wRBtB7ou6N54YWh0y/DTP9srPvL9chpbdt64pprQ+Hv3/CC1RHF2TkGsc/rTiAT4tdcEyq1s6HxmDx5ssv153HIe/TogR07doiUpqOTXxccC7gYf2U1lTBpXDLfAiorGjjcIFFnHrp/vV0fcoJoSIx9yAmCILTw74q77r4cwSGnERBoFEqOaEzIZYUgzmP4Cp4R172AQQ9+i4DBV4hUgiAIgiDOJzxmJlzlsoW8bdtO6OAbgqJiN2cB1CMdOnVGZcgIHDgiQue0YPhEwDfuPYMKlxYqIpqCfzyY2aBWSo82bdE9NhEBg6aiqugITuVsR+BFV+HImv+g8M/vRC6iNUIWcoIgnEGxkHcLqiALeTPAY/2Gh1wW5NkHgc2/eeCGG5t+IhkXqW3atJ4F78/W1OAc24jmTX2GPdQTOPQahFw6E+eqq5C3YRnKDm+T0jv1jkbImNtw5EfjOOSxc1dhjnb9aomczEyAx9KttzBkPNyWdqnszPlT4WTYZ6KO2BPkkQkLpNjO86fOQ7b0t371Hb76n3XSp5Q/OgOJs6xLflufoRykKs8Ljx0tHqyc1ETrRDJ76QbIdbOtT2qqCXEO6ln3+vBoFCmIznBcP4JoifDvitl3TkFg1zL4d2n5Rs3mznkvyAmiOWJPkHMxzidFl5aWwtvb2yVR3jlyBEInPgjP9v4o2bUGBVu+Ekes1CbKZRo6DrCufEkI8SW0KcJHY2AsyB3fcy6Ik5CsEqViUJWTahHkXPzGm/XCVV2uM3+L02rBtj4y6vT6qw/fdxyvmSBaIvy7IjZ2DIpK8tlv0gmRSjQVbvmQh3QHxo4nMU4QrlJRUYFbb70Vd9xxB4qLi3HuXO2fI9+gXuh7+3sIv+Y5lB3biezPHjYU45zyw1tQnrcX3cfOFinNgLR0ZMKE2lbBJhoae8tox2KGblVEvlQ3UlNhXVwxFjGmVCTrBDIiI2CyrPQpr4xoinCQ7hS29ZFRpzdmfQii5VJ1pgblZdXs9+gMbU28uRn2EOgWJHYIwpBjWHAFX2p3KZbsbYJVVP/KxNWXrMLP5WK/mcAtEgMGDMCwYcOQkJDAPoS1i/ILbnoVHh5tkf35oziesQw1Z8+IIyo8POE3YCx6TkvGmZLjOF1wSBxwBm4hXIAESTCLv2MTsEAsy8xXZeaWSWWZ5gVyRplIa75Vq+wsOhMbgyjV8uzcsqmUZV3yWVw3Ya7lmL3rLGD9Zq2v9pjdOhD2YfdHs4AI688k0zLMWyf2Ofwemk2YofTzggRI3Z+1DhmIxjjx7MREZSKdF2Qv3Rn09VFQpzdmfQiCIBoBirJCNH8kce2CsM/djTn3b0RA4nBE+4q0ZgR3J0hOTsbQoUMlUV5ZWSmOGHOmJE+KpsKXyTfCJ3Qgwq95Gp16Dsfhb57F0bX/qWN88jDExQPJU6di6vxMRM1ZJbkJTBX7YXEzhOhlIjolGhmJLF06BsRbVDIrI0WIpZh0TFX5IafNE/nZCZlR8VZhzc8xsbyG14mDeb58XjITVrInMMdRHQgL3EIs/tQSiYR4EzKU0RLfT2L9ucRArUaZYBb9PN8chySpn7OwMJlJXelec78kxe3DXnpt6OujYJBeb/XJhjmH3uAQBNG0uCXIuQ/558vdm5BGNDO4eB3PLdm6be5+1M243B2zvnsI6zdMx4y+jTnp9hgWJKzC+suuwju3dkNLiDVxtrIM5u/no/vYO+EbOkCkggn0UIROegDBUTejYHMqslc8hcrj7MNZZ3KQmiwEtORukmMVQmr3E0nkqYT3nCiEWfwA+CQ7JpYSU5ETFSOEtYD7lEuWTe3ET+kcRQjqr5OTCuVQ1sJl7JjAYR0IhbkpJiwz8pGOHIdo8zKLb3dkQhKiM5It+xoyrfnS0tmAifczfzuRJAZvbEuPkd+o2E2vDV19LBil11t9+KqGy2BKobcrBEE0HWQhJyQmv5TIxDMX0Gz7cirG/LISk5qhy0dt5K3ehE8L+yP5sd5ohsZxCe62kpSUhK1bt2LhwoXSJM/aKD+6E+ZVr6D7ZXehU+Qoaen8sCmPoGR/Jg4sfRAl+9aLnOxD3bYxW84jXsgiR9r0oVSyFiI51WS1WnNhxA2UUv5EpFqdlOtALXUgMC/RjHgDd57IcdEwW3w3uI92GMLiUuTBTUocwsLikKK4gxjAz2ejNXnwxuDCOCom1m56bWjrY8Veuh736hOJhAV8kqezVnyCIIj6hwR5YyBZoWWXix3vv2+1Qs/YhH0G7sCaPGybt65KHBHH7Jyn+G3ftvg4DA87S0h/zH9zNAKwGws/15alr5vttRTfcWUzFvVSOdwKr7PQW9taih8eeVtOn7URhTiOd29905LP2Df9GL75TxbC7LqqqPpHcoMxui5D1Imn5a3+GhMcXtM1uLvKrl27sGXLFkmM+/n5ORdpxcMT5Uf+gnn1ywgaFY+qklwmxBNRtOMHnKuR6+TRxgud+4xB9wn34OSuRpAWWdkwI6pWFxFu0TbHJcmuKREmhOWYkc0PcKunsReOFn4dJgxnCP3EJxxaLOtO1qHVI/WTnkhwnWqWbgaHL2muGtjwtxtKlBX+xsLiXsTdR6KQyQRyVrYZYdHjLII9NiYKOaxAe+mO0ddHwSC9XusTAVOYvQmvBEFwqRg2IBJRo7Tb6L6dxPHa8ezSFcPU54/sgYjO4mCzxQMBkSZNm6NGXYD+DTSHkgR5oyELyvntr8M6yRJ9I2aeWI/bn1e7hsgi9M70ofgoXVirF4zG5n+lWARj154haL/vBI46UNyR4X51d9Xo2gUDfMTfErKY1dTty6kIXrQU4zTuLYqrykNYMS8SDm2/q1di0t+yceW31vy//Ou/QvR2wuRX7rX0QQC64e7F98v70mbgCvNXNr4q7IaJlwQ4bP/+FFbnWcV4JM3oulZ+YP0+7ZPueFe09/2EMnYP19TprYGPjw8WL16MDz/80GkxXpbzB7qO+LtFlFeeOIj8zKU4e1qOG8unhPr2GIzu4+9F287dcXSto5CH9QkTcEy0QbGo8s3QLyENS3i2pAREpi1BKuKQwvMmmWB2ykLOriN82fk1kpBhdVlxug6ELa4IUd7Pig92CuLM8+W48mnzkJgRLd9Pts3BfDkMob107q5k1+Jurz5G6fVUH4IgnKAGObuykPkbG9iXsr2i4+zvLGzcy3acoY0fBvTphHL2IebnSdumI8guEcebOecqirBD1HtTTiW6RDSMKKc45I0Bt7jeLPs1r5lndaXgVmJJ4C4ciT5cQXKr7awsxC2+SSM2Nfn28DxcTE7FWF8u4BdjXocpcrnSdX7H4Pe05ztE1K3D3ETMHectEhlSXTZixEtyOrcUx8/1xtPSdUUehpxeitt1debYO4cjtWlhByayVec5rIttv+ix6U8b+KBiORYFjtHm0V/Xzv1yth6c+lwYyMOjDYLG3AYPL28UbFqOnlc/hUNfPSMd4xM9AwZNZqLcg4nwr1GRf0BKb9Fwtxd7PtGEW3HIGwseYScmvbktEsX7huKQE60P/l0xNTYK2cdyUXjyBAIiw9Cvq/juqCnDwc15yJX3BNxSHoEeZ49rxbinL3oP7oLqQ6fQoW8gJMO36nyv0O4YGVpjUJ4VKU+YYgU8h/LcY9h+WA54wI+NCDyNnX8WQtLwTOAPGtYRZXtkUa8c353jicg+ndGOZeGDBnUduYX+YnGMozku1T8E3cRB6zFuIQ9D3w5l1msbpNmtu+iXmpIaBHfzYeUW4EibrjB1OoeTTEjvzuf55fJ4v7tlIe/aDRgxisS4q0weH+7Qr3lHxp8o7NMXl1ygFXsaq7hkuT6BwzncmnsKh3eyxNX7sYlbbQtOYld9LLbFBen9G1E45So8KgnjUmxfY0Zln0CE6n7ng4f0xXCf48g66oYrh0Fb3acUR/ayvojsgh7GOtiKPg930fnpIe0ggNG7l+5Nw4VR+KYeJql6eno6LcY5586dRf76j+FRcwZdh98gpXl1DES3kTey/etRtO8XHFnzeusQ44zYGXFWtxfCScRbiiaduNgcww1y//E5xmEWCaIV4RUagn4BVTgoWYIPYk+hNyIGB8ji2inaoXsfJpJ3s/M35+L4GV8Eh8vvyKvzylHi2QEXjAhGiJSihYvli3p44hg/l11/475StAnp7pIV2sPHHwN6tcFR6fwSnPHrbHGJkcW41kJvFetskNEvBIEVstWf1/2ET1cMEXW35RxKKqvh0a6tpOdqr3s7BHU8jV28Tv6BCCw7ij0F1fDzl919PLsEILhavrZbgrxjRyDiArFD1BNCUO5bj9tjrL7NfJs2NwuWwHghfuirCGDuojHyMvzz0mIh0DmBCA9zXTBy9wzLNf8mW4vXq63DHAdiN+twcd381gmHcFGem/4RG0vXSPt8UmdlwQGYv30Rp7K38BxSesuEiybZ1UByN2Cibr4qjCLhHFkLZ2Fqk1qB0zCv2VmheYSVqeS+QrRyPJm0aI+ThxUL9jkUHipBaXsfBDityM/h5CHhhlJTgcLSarRvLwTD2WLs4O4uZUyU2/hheyI0pDPaFpdYXFhqTp5Atkq0OsW50zi2V65/TTEbAFR5S2vmWMovKhAWaR1tOsGvQxkOKQK9phzZxyvh4+drdzBSU3EGp6W/nKn7ORTlCes6KzvvsHymAs+/S7wJIB/yZkMn9OjLHt4+Y6w+2ppN6/bBBbD5yHFEj78Q/foWY+2GQmm/3MCK7QyaKCts01uLa6Ne/NYJhyiiPH/jpzCvfAknd6bVMd74+YIsmiyTDcm1gCAIov7waIv23h7oEqGavDhcuJ7UG4ofutUP22qFPofKyrqZ9M5VskGAEMVc+O7fLlxCPNuzttkv37NzW7Tj1nvLpM1IlfuJMZ4+7Bzxd53rzt1ahsjXdUuQ55iB71dSHPL6xpkJm0BHhA/k0vcUtq+pQFhoGwyKHozCNWz0yed9OuOy4TKdMGSSCe0V1xgVedv34veK/hg3yjUB7xKSm05tbjFiQJN1Ekca21SvRGyxG/2m/uCivPTgJpytKhMpBKHF3twFgiAI+3C/ZqtLh7Q10MTL6qN5MJd6WC3oUP/N8YBvu3r6HqupRKUqiJoh3N9d3W62bbD4jOvhbxN8cO70GRHMoi51l91lutbIk0bdEuTV1UAZ6YF6J3jKSNwcsBtJdzkSdrLw3J/yFV7Mi5R9sC+MwLUn1uPRF7IQpvd7ricsdfu3KqJK7m68+pKjMIP1hOSmA/zw4XaHgpcPTAL27cWGg274s9cByfef/9EE1yYIgiCIOnGuSnIx6RJu7ONd73A3kU6KZbkGucUV8NT4fAdIftd5udZJmYrPtmRRvtAV6z0vvxK+wYGGYRYl95YzHdDTqRCOfAJmD5hY3XIPccHuXN1rg4t7Lv4pykpjYCd6iHFUEBE55Vet8uydOB0LxMqTcvQSLoStaXLUknLJ9cQldxM7dTNGRCmR1KeMzfVEdBZVFitTrFFLDNvuqC7i2HrLpFUeBlEf7USuX/pN1n7RIuo/Uhc9RY+4Vt5Me+XoUNrM3Y1Ee3iUFYIgCIJoztiNssLg4f7kSCJydBWTTrNaopFI0USC4XVMGzmkj1cRO37KplxujVdHUeHoI5VYo5Bw1Ndnx8yFaBNmG2XFGgnFFm35qrpzpPpbo6xY63fatu4G0Wfs1l3VL3vPdMXFfNLp5nxUWfqmVEw4laO/kCAnWhSOwjA2BQf2dRV/EQ1CRTG2rj+G40E9EHtRJ3iJZOAMjm05iD+Pd8SQCaEIth4giHqj4lgOMv44g8ionrigM03Jao4U7d+P3w60QR/9PWKCbN3GE2jXJwKjI9u75S5gt2wnKS09g5yc+giNVjcKCrggLxB7RFNBgpxoYdiJNd5EFJ10PDmEqCOHduPZN/ag9+1XIn6wVnUfXrUKb67phtuSh+NC6wwcgqhHCrH6mXSs7TQQDz/UB6FNbwMgNFRg64dpWFbU1/b+nMzBovm/4+SkcXgw1g8u3zrx3dPxSjfPZ5w4UYX0X46LvaaFBHnT45YgL2DPT/ZBD4pFTjRPFPcW/cI+RMvD3r1W3IhUblIE0SDQ902zxnAROotrqL+B62NtWF03XXYR1XHmTA3efSdL+p8g3BLkBNHskQSZsqKpSCNaJjbzC2Tq+mNJEE5D3zfNGmWOlQbVnJ+mZNeuUqxedQw1pMlbPSTICYIgCIIgmohTp6pRdLKBY+YSzR5yWSEIgiAIgiCIJsStaeGnTskTOwmCIAiCIAiCqBsUp4kgCIIgCIIgmhAKe0hI5OVWIutgGUpKqkWK6wQGeqNPn47w82viWTIEQRAEQRDnESTIiXqd5d22rSduvNmEIOuSVwRBEARBEIQD3HJZ8fICOnQQO8R5T8b6gnoLucTjqW7IOCH23CB7K26/5HWMuf5XbD8l0hqMQqTeyq7Frydt/8N3lqV6CaK1kodFf+OfhyX4aLe7b8xOIe3xdzDmiX0Qi1MTrYn8vXhiouq7dfpv2GNdJZ1wgfwfV2IK9V+rwC1BHmYCLr+KrOMtheLi+g23VHX6fAmoGoC4xQ9h/YaH8M3/DUKgSCUIonGRRMcl3yKN1HvLIKgvXlgrf7d+eGcnkVhHdm3EtDoNEs9DWJvvfmI/RiUMQb/2Io1osVAc8lbOaSae335rv9irH0wmH/w9jo3aziMKM9bg9n+cwt1fX4crgkQiypGZvBSPfN0VT2jSBYUH8eKMr7Cy92T87z8ROCDlLRMHFXoan0s0KFzgzWA/ZJaXLL2isfDDUS3qR01uowceW3MlYtWah1sn47/D4enx+GBmEJqmydxCvgRPeU7Eqhf6oDZJZrctCqJN63RvzSLvaso2NgBcdM7MRJ7YtSUQsz+6Gbf39xL7zZ/dCz/EHT8OrvvnT+qbvbimzu3nb4A+xYJcsauiWT1PzeJzrMLOZxATrnTqM96asfk9krD9LFPYQ4Kwiy+i7p6IqwIP4YUXdkLrzcLE+rtrsfIEE9xPDIRFb49m4nyDbBlav+FOvHJNAV64hlxhGhMuAK574iRu/ug+cR/Y9po/Fr9M7hPnO7Ev3GO5p/97oTfy31uG2Yvy0WLe5g8YjRXKM7thFp4b304WPJa0GeeVGG/OcPH9o6Vf5W1JMxrc7V6ZjnXB0Xjy5uY14FR/Btd/fQXGbfwWU+ntlhP0wXNrlGeNf7ZP4YPbP9W88XFLkPOFgfikToKoDW55vkbyB9f6a8e9fUQ7WlR8x5XtQb0AZtjzL7eTLl1bVabNNZ0h4ALc9cQgBG7ciM+3nRaJjOw9eO/rMox6apID6zcT9PEj2MewCNlHVecyspcvtbaVb0btZejz2WuDPt/D37rc0gZA9kWewQWT9LrZWr+nflT1h/A35Wmy64KSz43X06ysJctK2Y/tFNykFi78FfpTBlYcXb1sfJ6lusn14ELfks/Qp1P4TavK07RTQbTXms/2x0y6lnQNxZ9bbHXwydb2rbgv4piM7lqOfmT1/eboHE1e9T21Xu86yXq0D09NUvLxzfGPfNCEkbgpBMham41D6obY9K/tcyT1L+9LXV6j+6XvN8umfwZqe5bqGblevI90z53Bs2nTBps88r2w/Qwa3QMnn3NnsXmW1NdUXUt6c3CCiZi3VHlt723tz7mTSPUy+Owb9Uktn2mpTrzPt4m26j7bNnVk5fHvsVh7ririerV+Z7rSBnfg36tvRiGYfXYXfa60QW5Xrd/7Am297D1L+u8m2/suoX+W7Dzn+v6W+1DdJw3RBjUdEXvrMNZvJ/BjZqGlLhSHnGh4jmxG4sTFyLxxljw6/GwsfJf8F0+pRWPEUHwkjRy5VdnOjGGW5/+4rzcr76OflXOZ0H/6Z+zrMQIpH1+KIR3lVC5Qr5ZcUMSI9LtrMfS7/yLBDVEeED0ct/QtxtLnNgnBX47MZZula94+VlzQBfhAYVHHa8VIWa7bVft/wHU6Uc7bMP01XzyhtIFt87v+jsXqgYHkVvMBpqf2RIrw2eT9e/K5Bc1ElDPB9N4yTJhZgPuEdYBbNn97ItXmCzXtiXdw3cIgvLFOzvfhnVXsx3e1Wz8cWfuLUdvMCOlLWHoFrljSb8asHd9iqo2QkkXACx5XC4say1eWgYTn1PmEi8bh4Vgo6s+tIOPX/mz7w3zNd/B83Gpl+vDOXCZEDX5gDrBrjPsUWfeLvMIaleiGwOA/GNdJLiGibqys8KV663IwZn4pH+f3yO6TzX+gmDgaZLGUsf5gwlhyC1qnczn5kfWn6t5L9/S5LeJHUn89tQWJb3bcV/REdEGoRbSwH9Lni3DrSms58nOktURJ8Lpdsw8T/ifnM3ou+f2aoX7bwu8B7xhutV5qdcFw/lmqb/ggZgEW9b3e/rPJ7lfy4VH4SjquynOHrXCXPoNp/fC5lI9b8Q7jqbvV+Zx7zp2GC8vPA/CxpW7impMUccSEy4viOVvEhR9/za9686V7Y+Dcc+4K8mf/jgOXibcUtn3i/Gf6IF59ywMv/pc9Q3l78Op9K6TPNvex1w8q8//ci82n+mD8KMfRypz7zqy9DXUisAsGGHxZ1P69Lw+2JHcm5Vli93gHa5NW0HJx/CkWDFK/KZqMcynK94jA5nuJbU+ewzufunvv67MN9okI97O8ASFBTlhp54/Bo3qib1exzzFK8+qAPhdHYvSgLk77jY16ahZeu1J8aiP64S4mun/74bChVdgRAdGT8MbD3fDbc2skN5Ds5d/jP3t74ol3rGKc+3Z/uvi41notLN2VS37DL65elE/+fHYs+oiBQGHGerz4tRemPzXSek1DxGBh9GjccLH1i5W3YZ7SFxxWt5tv7QZs3IPNlrqV49iBcmB0P4xQWeAjbrwGiaqyZEu9ri5s4PIM76OF2xohUo0T6IRa0OC+GNHxBA4cOSsnKOhETv+oC9kPcCEOH9EJKUcE9cWMeHYhLrYcWiry8O2b+xGksaQzgfgi+9H/cQO+0Is3VrcUy+vsYERdw66RfRJHLd/0ZTi06zQiJ0agp0UccjExWSUqlWvG44kJ1nvYP+EqJmjZj+aSgzrxJouP55S8QaGYMLKdU4MNDYq17YWJ1rqwfnrwce7ysQkZLgqp3Zl/IY/d01vGKG0IxpX3M0F9YA8ys/X3iots672X7qlhPtfZvXCl5AccGxuu+h5i9/ANra9y/6timIjWWqJkeP9OcfBcnsJfa804NeESXK88I5bnay82WfrNxWepnuEuBFZXC4Nnc8BovK5xxXBwv/hn1fImqSMunGhi+Y7jiOWBc+Y5dwGbN1eK5XAffvrNOUFjoZ6fcwXJtcXiI63vExc+0weOIfjmIegnZTuBHcETMUc5R9PHynPXFyNr61MnvzMdt6GOnDiJXex3Ri0sJWr73t+1A2/91BGznxpm/byyZzWZDVDSFm63iu38Yuxn5df2Oc8/epw9nbpBjM2z7yL11QYb2CDjcf7GR1tfEuSEldOnUHyqDfz8rRbqdt180bG6HCcLRIJb9MSkkWrl6ovuvXyBnEIcc0MwRtx4OR7sewgvXPM6pr+mE96Mwt37kXlCf02me0O7Mmlt6z7iFMogYuG3+NcLO9B+xmTcqhbGCht/wHWWV1eL8Z+yEUh5QeVjbofOpiAmD9SIPuLl2XFn4WRv3Il9PfpgTG9tXaTyjrAvXKbpmxyNBZPBf4TXPmQVmoLI3n7QLCkl+dO67jPbP+EOiyWTW5Cke6G3VO7Kxje5gZgQFaD9spasPbaDBe2PgREd0HMAE8uOfJqlaxr8cBmJKIkAhPdQt11YCzUTqPRuHmy7Rjvxyp61LSi0G6u1iwMeJhaO7qsSf+vR15fhjKhwAcv9ZNsd74dIFnX9c2RDkB96a78KZHr1Q1SEo2dLFp+G9OqGHsrD6uKzVL8EolePNuJvGen5V4k0I+R7b4tWaBvhxHNeV+xYXGvD1edcsn6qPzd23CD0n9egCVdhtfL2xqXPtLZuNt93FsSgx+5xK85+ZzpsQ13gbzjuZ8KSDQwsgwuFWr735YG97WcwoGewdrAgPr/8s+/I6izfZ/59WE/uOJz6aoOE+rtasfhr7wEJckJFNY7mlaKmsy+6SfteCO7cDqeOl+C4tC+oLsO+bVnYuONkA7+OtYewWPM/R0/G42prM6PEnI8TkAW79cuWbTf9zD4S7iImeFYeww4m9m//ew8mjwzQTOp8CEvjDiFx4iKkaNxM9PHPX8fV/9jB6qwl4sbpcjhGlcjX+pALK7rkElR7ec5RjC/v1JY15pIP8dqmBvnpbTjEFye/B1LYNclibv2ilq0p8qtcTVt1YtZ5ZLEsvX5W/dDb/oDYCigLblms9G4ebFPcKgSFh/LYM2Mg3B1G87CHsGAeyMAn65W2yVZCpyx6dUSZUCa7uKj9Vq1ILgTqdvIfP4OIGrUjLMlqK7ewwqqFa/0/S/WNyg9b2dy69xxnn3Pn0fvfuttvrj7ntpM63Z0wW9+f6eaNelDM75XkquNylBUxsJfc8lT3im3yfBI13LWNu9m0U13bYPDEByPSd5/qGTCYT1F/uNIGjvJdLbeFPXw2b8/cEuQUh7zlUl1cjpIaX3ThLirtOsKv/Snkmt3/sm0QeLjBe39G+aQhuHT/D7hP5xcuW5t5uEH1l62yzdS6fLhCQDDGjelg40biCNmaX4yliw4IKzcX48Jyrvh8s81eHHTu3vK1lEf2rT+yRO0HL6zo3H9eVZZ1cyfcoh/+9r6+nDvw8Eit/ed8QrIYSv6nVgEnW1P0/qjWrVarqx2ka0llyH7VtVl1NKitrvWIZK0xEu7S5roIkQWo+odZWHsaMfRZ0IRxeIz9qGXpXBFkn+/9GKX2I1V83N1AFnkqsc0EiD4MXUM9S/WD8Pn+KVx7/6XPg/vU6TlXwcX4He97a/tON6B0lvp+zuuFBvpMNyWaKCtsc+/57ojQPt7CJUR9n5RNb70Xbwf5Men54J9Jg3khKkOMNGjnYtlgrkT94GobFFhbHp4gt0HjpnjKPUFOK3W2YKorcLL0nOS2wt1V2peUa63j9UIhfvv2OHrEXoBeLn/xinCD7UfgicfG455buzGR+oNmomOdXFMaiB59/Zh8ZmQfwnd7gVEJF9fif67HF1FJ02VRvreY9YJMs3JNaSz4a1LpjUAdXk02uDsBt+rIYiX7cLFsxR0QgatDjHyZ85D5tdbqWp/Ye2XvHlafWY11sY5i3PU6Cku9xkoufG/ZD6TVv70OWHyStQLEJjSey8+SHMHBbqSI+iT/KH7cdBqRd41EdIOMlgyec6eRn3uoffQdUUs/1+9z7iQN8pkWbkGuzhWpD5SIIg1qWZYxdutwAi66l8mi3NFnjrvlLJFEeW3XEN8bYs8V6tIGeS6K+u3bUfcEeTU7v0y//gnRQqhBQU4JKv0DMDCQfa3kGtxoNyZ1qlEmYtp1+3BA9vL/4RHVJEaLBdoSAYUh+XtXY+nd3zV5/G+5rX4YN6ar3NbO/ujH+lU9oVWOCKN3MSlE6qO68I6FeVi3vswq7hlyBJhDeOEeXd4WjOwryv8ymPjFflAesvFtPYW0xVvYT2QfzLxBiCnxhZhmEO3FLfggQRN1hWHjXyq7QOS/txqfqa4pT05U1a2+GTAI90kxb92LWKOlgcSCEFu2E1sdILVLbSUXFiv1ZEVp8Oamy4rwXa1VaLr6LInngk/ssxVy9YxogzqKhxwRxk2XFaeec2eRnyXNBFkuCO25rCi+xPYmy9Xrc+4sDfGZFpMuNROHGwfJJ5r/UU8Trx0hhy3dV3u0F4PvdPk3QOsqtHvhCt3nTxmgq99SiO8vy+dBeYPknvHO6TYYoEw2t3znsefbLUGeYwa+X0lxyFssfHJneVt4c2t5vYg8rT+3HKJP605hjaP9vrzapcpvWgnfx8MFPvDacUATtcQaASXxNkWUcmvybCx9uNzWj1w9QVIV+1wWxKp6OphI6RDNpE6lrSo3mYAL8PjbrL6qfHMKxuEzG5cV1q7He+C7G61ljbniK+QnzkLqveqBDF/+/068MnyXjR+5W3HXzwPkme78L9sJXNyPMCn8N1yr6ocxlyyQV4zUvULkr93/90IXfKr3/XXHOsStNjcU4jZ1OSIMnvqVrmy10V5TDplVDxOs7KL4/fJQbKr68U092VWxjrHNJi64JZ943SotBiKOWbY6WHx5//F4xiI6jlxebW9AbK3k/RNuhLzghuJiwsMauuuyIkdKKbOZ/GdbN5eeJcmqyv8wmAha77A2vH8FxuVZ/VylsIbuuqw4+Zyr/fjveJ91lMrP1hoDmj+X09i9UT1nz4uwgNYvOBW2bdE+c04+5/VMQ3ym5e84NyLN1BE5Sguj1gnP9QF/uzILz4X/buODrYkTbvCdLoe21Loh9U+YjPCPP1CVI773NROcxTPHw35K1xQhQ9124XKyDUaIgbzVSh7s3tL5fJVOvjDQDTe6fCrRzDBeOt8L4QNN8Cs9ij/d8B9XL51vvCQ9QRDnJdxCypfPHq33GVf7Kjfk4KIR4QOUmZnocJd+6XIRF7lDdN2XgycIO8j+9TySUAv5PBG14paFnGg5tGtn+wi0CwtCjzpM5vRg/wiCaIGImMO2YSCFu0gLQp68amTFFq4WBNGAyC4N+/DUSw1n3SeaFyTICXToIL/2aRcWiqhRkRgWAhzZe9ztyZxe3iTICaJFImJEp6Ud1oqEXRuRxF0TGiH0YWMhTxK09fPO/3Ed/v2TfnEcgqhnVG5c7qzOS5x/kMsKgT+2F2PtWvei0urxZEM87q7So4ePtE8uKwTRwlDcVnQTFHg0kqYN8dcACLcV7bcjD3F4c9OE0SNaHVIoT748PrlHtXjcEuSn2BdxwXEg4gKRQJz3ZB0ow6FD5ag6UyNSXMe3vSf6DeyMoG70OpcgCIIgCMJZ3BLkBEEQBEEQBEHUD+RDThAEQRAEQRBNiMeMW2NctpC3axeITh0vQMGJzSKFIBqW6TMGo1OnlhXFgSAIorFYuuRPlJZWiT2CIJobHuHh4S4L8p49e2LEiBH44osvRApBNCxvvD0V3bop61MSRPPjzJkaFJ6oYv+TFyDR9Pj4tEFAoDc8RNCrO27/BuXljb4YO0EQTkKCnDgvIEFONGdOFFThyy+PoLiYBA/RfAjt7oPrru8hrTdBgpwgmjfkQ04QBFFHfkrLJzFONDuOHqvAbxtOiD2CIJovwP8DbQg93GTSgc0AAAAASUVORK5CYII=;" vertex="1" parent="1">
          <mxGeometry x="220" y="610" width="740" height="225" as="geometry" />
        </mxCell>
      </root>
    </mxGraphModel>
  </diagram>
</mxfile>
